Model Upgrade-Normal.ufo
<glyph name="exclam" format="2">
	<advance width="290"/>
	<unicode hex="0021"/>
	<outline>
		<contour>
			<point x="63" y="108" type="line"/>
			<point x="71" y="108" type="line"/>
			<point x="389" y="886" type="line"/>
			<point x="363" y="886" type="line"/>
		</contour>
		<contour>
			<point x="8" y="22" type="curve" smooth="yes"/>
			<point x="7" y="20"/>
			<point x="7" y="17"/>
			<point x="7" y="15" type="curve" smooth="yes"/>
			<point x="7" y="5"/>
			<point x="13" y="-3"/>
			<point x="25" y="-3" type="curve" smooth="yes"/>
			<point x="38" y="-3"/>
			<point x="51" y="7"/>
			<point x="57" y="21" type="curve" smooth="yes"/>
			<point x="58" y="23"/>
			<point x="58" y="26"/>
			<point x="58" y="28" type="curve" smooth="yes"/>
			<point x="58" y="39"/>
			<point x="51" y="46"/>
			<point x="41" y="46" type="curve" smooth="yes"/>
			<point x="25" y="46"/>
			<point x="13" y="36"/>
		</contour>
	</outline>
</glyph>
<glyph name="quotedbl" format="2">
	<advance width="274"/>
	<unicode hex="0022"/>
	<outline>
		<contour>
			<point x="229" y="858" type="curve"/>
			<point x="152" y="679" type="line"/>
			<point x="159" y="679" type="line"/>
			<point x="259" y="848" type="line" smooth="yes"/>
			<point x="262" y="854"/>
			<point x="264" y="859"/>
			<point x="264" y="863" type="curve" smooth="yes"/>
			<point x="264" y="872"/>
			<point x="258" y="876"/>
			<point x="252" y="876" type="curve" smooth="yes"/>
			<point x="244" y="876"/>
			<point x="235" y="870"/>
		</contour>
		<contour>
			<point x="303" y="858" type="curve"/>
			<point x="225" y="679" type="line"/>
			<point x="233" y="679" type="line"/>
			<point x="332" y="848" type="line" smooth="yes"/>
			<point x="335" y="854"/>
			<point x="337" y="859"/>
			<point x="337" y="863" type="curve" smooth="yes"/>
			<point x="337" y="872"/>
			<point x="332" y="876"/>
			<point x="325" y="876" type="curve" smooth="yes"/>
			<point x="317" y="876"/>
			<point x="309" y="870"/>
		</contour>
	</outline>
</glyph>
<glyph name="numbersign" format="2">
	<advance width="699"/>
	<unicode hex="0023"/>
	<outline>
		<contour>
			<point x="159" y="443" type="line"/>
			<point x="311" y="443" type="line" smooth="yes"/>
			<point x="317" y="443"/>
			<point x="319" y="440"/>
			<point x="316" y="433" type="curve" smooth="yes"/>
			<point x="236" y="240" type="line" smooth="yes"/>
			<point x="233" y="233"/>
			<point x="228" y="229"/>
			<point x="220" y="229" type="curve" smooth="yes"/>
			<point x="74" y="229" type="line"/>
			<point x="74" y="221" type="line"/>
			<point x="219" y="221" type="line" smooth="yes"/>
			<point x="225" y="221"/>
			<point x="226" y="219"/>
			<point x="224" y="212" type="curve"/>
			<point x="177" y="99" type="line"/>
			<point x="187" y="99" type="line"/>
			<point x="233" y="211" type="line" smooth="yes"/>
			<point x="236" y="218"/>
			<point x="241" y="221"/>
			<point x="249" y="221" type="curve" smooth="yes"/>
			<point x="396" y="221" type="line" smooth="yes"/>
			<point x="403" y="221"/>
			<point x="405" y="219"/>
			<point x="402" y="212" type="curve" smooth="yes"/>
			<point x="355" y="99" type="line"/>
			<point x="365" y="99" type="line"/>
			<point x="411" y="211" type="line" smooth="yes"/>
			<point x="414" y="218"/>
			<point x="419" y="221"/>
			<point x="427" y="221" type="curve" smooth="yes"/>
			<point x="573" y="221" type="line"/>
			<point x="573" y="229" type="line"/>
			<point x="429" y="229" type="line" smooth="yes"/>
			<point x="422" y="229"/>
			<point x="421" y="233"/>
			<point x="423" y="239" type="curve" smooth="yes"/>
			<point x="504" y="432" type="line"/>
			<point x="506" y="439"/>
			<point x="512" y="443"/>
			<point x="519" y="443" type="curve" smooth="yes"/>
			<point x="659" y="443" type="line"/>
			<point x="659" y="451" type="line"/>
			<point x="521" y="451" type="line" smooth="yes"/>
			<point x="515" y="451"/>
			<point x="513" y="454"/>
			<point x="516" y="460" type="curve" smooth="yes"/>
			<point x="563" y="572" type="line"/>
			<point x="553" y="572" type="line"/>
			<point x="505" y="462" type="line" smooth="yes"/>
			<point x="502" y="455"/>
			<point x="497" y="451"/>
			<point x="489" y="451" type="curve" smooth="yes"/>
			<point x="344" y="451" type="line" smooth="yes"/>
			<point x="337" y="451"/>
			<point x="335" y="454"/>
			<point x="338" y="460" type="curve" smooth="yes"/>
			<point x="385" y="572" type="line"/>
			<point x="375" y="572" type="line"/>
			<point x="328" y="461" type="line"/>
			<point x="326" y="454"/>
			<point x="320" y="451"/>
			<point x="313" y="451" type="curve" smooth="yes"/>
			<point x="159" y="451" type="line"/>
		</contour>
		<contour>
			<point x="494" y="433" type="curve" smooth="yes"/>
			<point x="414" y="240" type="line" smooth="yes"/>
			<point x="411" y="233"/>
			<point x="406" y="229"/>
			<point x="398" y="229" type="curve" smooth="yes"/>
			<point x="251" y="229" type="line" smooth="yes"/>
			<point x="244" y="229"/>
			<point x="243" y="232"/>
			<point x="245" y="239" type="curve"/>
			<point x="326" y="432" type="line"/>
			<point x="328" y="439"/>
			<point x="334" y="443"/>
			<point x="342" y="443" type="curve" smooth="yes"/>
			<point x="488" y="443" type="line" smooth="yes"/>
			<point x="495" y="443"/>
			<point x="497" y="440"/>
		</contour>
	</outline>
</glyph>
<glyph name="dollar" format="2">
	<advance width="625"/>
	<unicode hex="0024"/>
	<outline>
		<contour>
			<point x="552" y="669" type="curve" smooth="yes"/>
			<point x="477" y="669"/>
			<point x="392" y="618"/>
			<point x="392" y="507" type="curve" smooth="yes"/>
			<point x="392" y="462"/>
			<point x="408" y="422"/>
			<point x="429" y="385" type="curve"/>
			<point x="354" y="237" type="line"/>
			<point x="356" y="246"/>
			<point x="358" y="255"/>
			<point x="358" y="263" type="curve" smooth="yes"/>
			<point x="358" y="319"/>
			<point x="311" y="365"/>
			<point x="241" y="365" type="curve" smooth="yes"/>
			<point x="130" y="365"/>
			<point x="43" y="261"/>
			<point x="43" y="154" type="curve" smooth="yes"/>
			<point x="43" y="57"/>
			<point x="114" y="-20"/>
			<point x="215" y="-35" type="curve"/>
			<point x="172" y="-119" type="line"/>
			<point x="180" y="-123" type="line"/>
			<point x="224" y="-36" type="line"/>
			<point x="232" y="-37"/>
			<point x="240" y="-38"/>
			<point x="249" y="-38" type="curve" smooth="yes"/>
			<point x="388" y="-38"/>
			<point x="513" y="82"/>
			<point x="513" y="217" type="curve" smooth="yes"/>
			<point x="513" y="283"/>
			<point x="477" y="343"/>
			<point x="445" y="395" type="curve"/>
			<point x="577" y="657" type="line"/>
			<point x="625" y="646"/>
			<point x="647" y="608"/>
			<point x="647" y="572" type="curve" smooth="yes"/>
			<point x="647" y="536"/>
			<point x="622" y="486"/>
			<point x="573" y="486" type="curve" smooth="yes"/>
			<point x="565" y="486"/>
			<point x="557" y="488"/>
			<point x="548" y="493" type="curve"/>
			<point x="545" y="492"/>
			<point x="544" y="489"/>
			<point x="546" y="485" type="curve"/>
			<point x="558" y="480"/>
			<point x="567" y="478"/>
			<point x="577" y="478" type="curve" smooth="yes"/>
			<point x="626" y="478"/>
			<point x="663" y="531"/>
			<point x="663" y="571" type="curve" smooth="yes"/>
			<point x="663" y="611"/>
			<point x="636" y="654"/>
			<point x="582" y="665" type="curve"/>
			<point x="636" y="771" type="line"/>
			<point x="628" y="775" type="line"/>
			<point x="573" y="667" type="line"/>
			<point x="567" y="668"/>
			<point x="559" y="669"/>
		</contour>
		<contour>
			<point x="407" y="521" type="curve" smooth="yes"/>
			<point x="407" y="620"/>
			<point x="486" y="661"/>
			<point x="544" y="661" type="curve" smooth="yes"/>
			<point x="553" y="661"/>
			<point x="561" y="660"/>
			<point x="569" y="658" type="curve"/>
			<point x="439" y="405" type="line"/>
			<point x="421" y="440"/>
			<point x="407" y="477"/>
		</contour>
		<contour>
			<point x="495" y="211" type="curve" smooth="yes"/>
			<point x="495" y="75"/>
			<point x="371" y="-31"/>
			<point x="246" y="-31" type="curve" smooth="yes"/>
			<point x="240" y="-31"/>
			<point x="233" y="-30"/>
			<point x="227" y="-30" type="curve"/>
			<point x="433" y="375" type="line"/>
			<point x="463" y="330"/>
			<point x="495" y="267"/>
		</contour>
		<contour>
			<point x="57" y="157" type="curve" smooth="yes"/>
			<point x="57" y="255"/>
			<point x="139" y="357"/>
			<point x="242" y="357" type="curve" smooth="yes"/>
			<point x="308" y="357"/>
			<point x="347" y="311"/>
			<point x="347" y="262" type="curve" smooth="yes"/>
			<point x="347" y="210"/>
			<point x="302" y="147"/>
			<point x="240" y="147" type="curve" smooth="yes"/>
			<point x="232" y="147"/>
			<point x="198" y="148"/>
			<point x="187" y="181" type="curve"/>
			<point x="183" y="183"/>
			<point x="181" y="181"/>
			<point x="180" y="176" type="curve"/>
			<point x="194" y="144"/>
			<point x="223" y="139"/>
			<point x="242" y="139" type="curve" smooth="yes"/>
			<point x="277" y="139"/>
			<point x="304" y="154"/>
			<point x="322" y="177" type="curve"/>
			<point x="218" y="-29" type="line"/>
			<point x="121" y="-16"/>
			<point x="57" y="61"/>
		</contour>
	</outline>
</glyph>
<glyph name="percent" format="2">
	<advance width="542"/>
	<unicode hex="0025"/>
	<outline>
		<contour>
			<point x="507" y="563" type="line"/>
			<point x="482" y="563" type="line"/>
			<point x="23" y="46" type="line"/>
			<point x="30" y="42" type="line"/>
		</contour>
		<contour>
			<point x="257" y="137" type="curve" smooth="yes"/>
			<point x="257" y="103"/>
			<point x="279" y="78"/>
			<point x="311" y="78" type="curve" smooth="yes"/>
			<point x="361" y="78"/>
			<point x="405" y="132"/>
			<point x="405" y="180" type="curve" smooth="yes"/>
			<point x="405" y="214"/>
			<point x="383" y="239"/>
			<point x="350" y="239" type="curve" smooth="yes"/>
			<point x="301" y="239"/>
			<point x="257" y="185"/>
		</contour>
		<contour>
			<point x="349" y="231" type="curve" smooth="yes"/>
			<point x="369" y="231"/>
			<point x="380" y="211"/>
			<point x="380" y="183" type="curve" smooth="yes"/>
			<point x="380" y="147"/>
			<point x="353" y="86"/>
			<point x="312" y="86" type="curve" smooth="yes"/>
			<point x="294" y="86"/>
			<point x="282" y="104"/>
			<point x="282" y="131" type="curve" smooth="yes"/>
			<point x="282" y="166"/>
			<point x="309" y="231"/>
		</contour>
		<contour>
			<point x="118" y="434" type="curve" smooth="yes"/>
			<point x="118" y="399"/>
			<point x="138" y="375"/>
			<point x="171" y="375" type="curve" smooth="yes"/>
			<point x="222" y="375"/>
			<point x="264" y="428"/>
			<point x="264" y="477" type="curve" smooth="yes"/>
			<point x="264" y="511"/>
			<point x="242" y="536"/>
			<point x="210" y="536" type="curve" smooth="yes"/>
			<point x="160" y="536"/>
			<point x="118" y="482"/>
		</contour>
		<contour>
			<point x="208" y="528" type="curve" smooth="yes"/>
			<point x="228" y="528"/>
			<point x="239" y="508"/>
			<point x="239" y="480" type="curve" smooth="yes"/>
			<point x="239" y="443"/>
			<point x="213" y="383"/>
			<point x="172" y="383" type="curve" smooth="yes"/>
			<point x="153" y="383"/>
			<point x="141" y="401"/>
			<point x="141" y="428" type="curve" smooth="yes"/>
			<point x="141" y="463"/>
			<point x="169" y="528"/>
		</contour>
	</outline>
</glyph>
<glyph name="ampersand" format="2">
	<advance width="592"/>
	<unicode hex="0026"/>
	<outline>
		<contour>
			<point x="506" y="845" type="curve"/>
			<point x="521" y="861" type="line"/>
			<point x="421" y="861"/>
			<point x="316" y="763"/>
			<point x="316" y="566" type="curve" smooth="yes"/>
			<point x="316" y="394"/>
			<point x="404" y="237"/>
			<point x="404" y="65" type="curve" smooth="yes"/>
			<point x="404" y="-74"/>
			<point x="341" y="-174"/>
			<point x="254" y="-174" type="curve" smooth="yes"/>
			<point x="221" y="-174"/>
			<point x="195" y="-159"/>
			<point x="186" y="-127" type="curve"/>
			<point x="181" y="-134" type="line"/>
			<point x="185" y="-170"/>
			<point x="209" y="-189"/>
			<point x="247" y="-189" type="curve" smooth="yes"/>
			<point x="344" y="-189"/>
			<point x="418" y="-76"/>
			<point x="418" y="80" type="curve" smooth="yes"/>
			<point x="418" y="251"/>
			<point x="330" y="408"/>
			<point x="330" y="578" type="curve" smooth="yes"/>
			<point x="330" y="763"/>
			<point x="421" y="845"/>
		</contour>
		<contour>
			<point x="486" y="785" type="curve"/>
			<point x="483" y="784"/>
			<point x="481" y="782"/>
			<point x="484" y="779" type="curve" smooth="yes"/>
			<point x="492" y="772"/>
			<point x="497" y="758"/>
			<point x="497" y="741" type="curve" smooth="yes"/>
			<point x="497" y="718"/>
			<point x="484" y="683"/>
			<point x="472" y="667" type="curve" smooth="yes"/>
			<point x="420" y="601"/>
			<point x="336" y="565"/>
			<point x="262" y="530" type="curve" smooth="yes"/>
			<point x="151" y="477"/>
			<point x="-16" y="379"/>
			<point x="-16" y="194" type="curve" smooth="yes"/>
			<point x="-16" y="63"/>
			<point x="72" y="-23"/>
			<point x="206" y="-23" type="curve" smooth="yes"/>
			<point x="375" y="-23"/>
			<point x="532" y="126"/>
			<point x="532" y="286" type="curve" smooth="yes"/>
			<point x="532" y="376"/>
			<point x="478" y="435"/>
			<point x="393" y="435" type="curve" smooth="yes"/>
			<point x="286" y="435"/>
			<point x="188" y="344"/>
			<point x="188" y="245" type="curve" smooth="yes"/>
			<point x="188" y="179"/>
			<point x="221" y="130"/>
			<point x="268" y="130" type="curve" smooth="yes"/>
			<point x="279" y="130"/>
			<point x="293" y="132"/>
			<point x="303" y="140" type="curve"/>
			<point x="305" y="144"/>
			<point x="303" y="146"/>
			<point x="299" y="146" type="curve"/>
			<point x="289" y="138"/>
			<point x="277" y="138"/>
			<point x="277" y="138" type="curve"/>
			<point x="237" y="138"/>
			<point x="208" y="184"/>
			<point x="208" y="247" type="curve" smooth="yes"/>
			<point x="208" y="342"/>
			<point x="292" y="425"/>
			<point x="388" y="425" type="curve" smooth="yes"/>
			<point x="463" y="425"/>
			<point x="511" y="372"/>
			<point x="511" y="288" type="curve" smooth="yes"/>
			<point x="511" y="131"/>
			<point x="366" y="-15"/>
			<point x="208" y="-15" type="curve" smooth="yes"/>
			<point x="84" y="-15"/>
			<point x="3" y="67"/>
			<point x="3" y="194" type="curve" smooth="yes"/>
			<point x="3" y="314"/>
			<point x="92" y="440"/>
			<point x="268" y="521" type="curve" smooth="yes"/>
			<point x="448" y="605"/>
			<point x="515" y="673"/>
			<point x="515" y="736" type="curve" smooth="yes"/>
			<point x="515" y="759"/>
			<point x="506" y="778"/>
		</contour>
	</outline>
</glyph>
<glyph name="quotesingle" format="2">
	<advance width="201"/>
	<unicode hex="0027"/>
	<outline>
		<contour>
			<point x="229" y="858" type="curve"/>
			<point x="152" y="679" type="line"/>
			<point x="159" y="679" type="line"/>
			<point x="259" y="848" type="line" smooth="yes"/>
			<point x="262" y="854"/>
			<point x="264" y="859"/>
			<point x="264" y="863" type="curve" smooth="yes"/>
			<point x="264" y="872"/>
			<point x="258" y="876"/>
			<point x="252" y="876" type="curve" smooth="yes"/>
			<point x="244" y="876"/>
			<point x="235" y="870"/>
		</contour>
	</outline>
</glyph>
<glyph name="parenleft" format="2">
	<advance width="467"/>
	<unicode hex="0028"/>
	<outline>
		<contour>
			<point x="721" y="889" type="curve"/>
			<point x="716" y="896" type="line"/>
			<point x="504" y="825"/>
			<point x="289" y="622"/>
			<point x="178" y="377" type="curve"/>
			<point x="124" y="254"/>
			<point x="94" y="119"/>
			<point x="94" y="-16" type="curve" smooth="yes"/>
			<point x="94" y="-128"/>
			<point x="116" y="-239"/>
			<point x="161" y="-343" type="curve"/>
			<point x="168" y="-339" type="line"/>
			<point x="128" y="-239"/>
			<point x="110" y="-138"/>
			<point x="110" y="-39" type="curve" smooth="yes"/>
			<point x="110" y="104"/>
			<point x="147" y="247"/>
			<point x="204" y="372" type="curve" smooth="yes"/>
			<point x="314" y="612"/>
			<point x="512" y="819"/>
		</contour>
	</outline>
</glyph>
<glyph name="parenright" format="2">
	<advance width="600"/>
	<unicode hex="0029"/>
	<outline>
		<contour>
			<point x="-224" y="-381" type="curve"/>
			<point x="-220" y="-388" type="line"/>
			<point x="-8" y="-317"/>
			<point x="207" y="-114"/>
			<point x="318" y="132" type="curve" smooth="yes"/>
			<point x="372" y="253"/>
			<point x="402" y="391"/>
			<point x="402" y="524" type="curve"/>
			<point x="402" y="635"/>
			<point x="381" y="748"/>
			<point x="336" y="851" type="curve"/>
			<point x="328" y="847" type="line"/>
			<point x="368" y="747"/>
			<point x="386" y="646"/>
			<point x="386" y="547" type="curve" smooth="yes"/>
			<point x="386" y="404"/>
			<point x="349" y="262"/>
			<point x="293" y="136" type="curve"/>
			<point x="182" y="-104"/>
			<point x="-16" y="-311"/>
		</contour>
	</outline>
</glyph>
<glyph name="asterisk" format="2">
	<advance width="390"/>
	<unicode hex="002A"/>
	<outline>
		<contour>
			<point x="188" y="477" type="curve" smooth="yes"/>
			<point x="272" y="565" type="line"/>
			<point x="315" y="477" type="line" smooth="yes"/>
			<point x="317" y="473"/>
			<point x="321" y="471"/>
			<point x="325" y="471" type="curve" smooth="yes"/>
			<point x="332" y="471"/>
			<point x="340" y="478"/>
			<point x="340" y="485" type="curve" smooth="yes"/>
			<point x="340" y="487"/>
			<point x="339" y="490"/>
			<point x="337" y="492" type="curve" smooth="yes"/>
			<point x="284" y="566" type="line"/>
			<point x="385" y="558" type="line" smooth="yes"/>
			<point x="396" y="557"/>
			<point x="402" y="565"/>
			<point x="402" y="572" type="curve" smooth="yes"/>
			<point x="402" y="579"/>
			<point x="397" y="585"/>
			<point x="389" y="585" type="curve"/>
			<point x="289" y="577" type="line"/>
			<point x="380" y="653" type="line"/>
			<point x="383" y="657"/>
			<point x="385" y="660"/>
			<point x="385" y="664" type="curve" smooth="yes"/>
			<point x="385" y="670"/>
			<point x="380" y="673"/>
			<point x="374" y="674" type="curve"/>
			<point x="370" y="673"/>
			<point x="365" y="672"/>
			<point x="361" y="668" type="curve" smooth="yes"/>
			<point x="276" y="578" type="line"/>
			<point x="233" y="668" type="line" smooth="yes"/>
			<point x="231" y="671"/>
			<point x="228" y="673"/>
			<point x="225" y="673" type="curve" smooth="yes"/>
			<point x="219" y="673"/>
			<point x="209" y="666"/>
			<point x="209" y="659" type="curve" smooth="yes"/>
			<point x="209" y="656"/>
			<point x="210" y="655"/>
			<point x="212" y="653" type="curve" smooth="yes"/>
			<point x="263" y="577" type="line"/>
			<point x="162" y="586" type="line"/>
			<point x="153" y="586"/>
			<point x="147" y="577"/>
			<point x="147" y="569" type="curve" smooth="yes"/>
			<point x="147" y="564"/>
			<point x="151" y="558"/>
			<point x="159" y="559" type="curve" smooth="yes"/>
			<point x="259" y="566" type="line"/>
			<point x="169" y="493" type="line" smooth="yes"/>
			<point x="165" y="489"/>
			<point x="163" y="485"/>
			<point x="163" y="482" type="curve" smooth="yes"/>
			<point x="163" y="476"/>
			<point x="168" y="471"/>
			<point x="175" y="471" type="curve" smooth="yes"/>
			<point x="179" y="471"/>
			<point x="184" y="473"/>
		</contour>
	</outline>
</glyph>
<glyph name="comma" format="2">
	<advance width="216"/>
	<unicode hex="002C"/>
	<outline>
		<contour>
			<point x="40" y="44" type="curve" smooth="yes"/>
			<point x="24" y="44"/>
			<point x="9" y="30"/>
			<point x="9" y="15" type="curve" smooth="yes"/>
			<point x="9" y="5"/>
			<point x="15" y="-3"/>
			<point x="25" y="-3" type="curve" smooth="yes"/>
			<point x="28" y="-3"/>
			<point x="31" y="-3"/>
			<point x="33" y="-2" type="curve"/>
			<point x="34" y="-4"/>
			<point x="33" y="-6"/>
			<point x="32" y="-8" type="curve" smooth="yes"/>
			<point x="27" y="-30"/>
			<point x="-36" y="-96"/>
			<point x="-55" y="-110" type="curve"/>
			<point x="-56" y="-114"/>
			<point x="-54" y="-117"/>
			<point x="-51" y="-118" type="curve"/>
			<point x="-11" y="-88"/>
			<point x="58" y="-10"/>
			<point x="58" y="21" type="curve" smooth="yes"/>
			<point x="58" y="36"/>
			<point x="50" y="44"/>
		</contour>
	</outline>
</glyph>
<glyph name="period" format="2">
	<advance width="229"/>
	<unicode hex="002E"/>
	<outline>
		<contour>
			<point x="8" y="19" type="curve" smooth="yes"/>
			<point x="5" y="8"/>
			<point x="10" y="-3"/>
			<point x="23" y="-3" type="curve" smooth="yes"/>
			<point x="35" y="-3"/>
			<point x="48" y="6"/>
			<point x="53" y="19" type="curve" smooth="yes"/>
			<point x="57" y="32"/>
			<point x="50" y="42"/>
			<point x="39" y="42" type="curve" smooth="yes"/>
			<point x="24" y="42"/>
			<point x="12" y="32"/>
		</contour>
	</outline>
</glyph>
<glyph name="slash" format="2">
	<advance width="418"/>
	<unicode hex="002F"/>
	<guideline y="339"/>
	<outline>
		<contour>
			<point x="10" y="-120" type="curve"/>
			<point x="26" y="-120" type="line"/>
			<point x="26" y="-120"/>
			<point x="140" y="112"/>
			<point x="255" y="336" type="curve" smooth="yes"/>
			<point x="368" y="556"/>
			<point x="478" y="773"/>
			<point x="478" y="773" type="curve"/>
			<point x="464" y="774" type="line"/>
			<point x="464" y="774"/>
			<point x="359" y="560"/>
			<point x="247" y="340" type="curve" smooth="yes"/>
			<point x="132" y="115"/>
			<point x="10" y="-120"/>
		</contour>
	</outline>
</glyph>
<glyph name="zero" format="2">
	<advance width="533"/>
	<unicode hex="0030"/>
	<outline>
		<contour>
			<point x="47" y="328" type="curve" smooth="yes"/>
			<point x="25" y="273"/>
			<point x="12" y="215"/>
			<point x="10" y="161" type="curve" smooth="yes"/>
			<point x="7" y="51"/>
			<point x="58" y="-27"/>
			<point x="157" y="-27" type="curve" smooth="yes"/>
			<point x="288" y="-27"/>
			<point x="469" y="131"/>
			<point x="547" y="317" type="curve" smooth="yes"/>
			<point x="570" y="371"/>
			<point x="584" y="430"/>
			<point x="585" y="483" type="curve" smooth="yes"/>
			<point x="589" y="595"/>
			<point x="531" y="672"/>
			<point x="436" y="672" type="curve" smooth="yes"/>
			<point x="301" y="672"/>
			<point x="126" y="519"/>
		</contour>
		<contour>
			<point x="435" y="664" type="curve" smooth="yes"/>
			<point x="521" y="664"/>
			<point x="567" y="592"/>
			<point x="563" y="487" type="curve" smooth="yes"/>
			<point x="562" y="436"/>
			<point x="548" y="380"/>
			<point x="526" y="325" type="curve" smooth="yes"/>
			<point x="449" y="136"/>
			<point x="285" y="-18"/>
			<point x="159" y="-18" type="curve" smooth="yes"/>
			<point x="72" y="-18"/>
			<point x="27" y="53"/>
			<point x="31" y="158" type="curve" smooth="yes"/>
			<point x="32" y="210"/>
			<point x="46" y="267"/>
			<point x="68" y="321" type="curve" smooth="yes"/>
			<point x="144" y="510"/>
			<point x="310" y="664"/>
		</contour>
	</outline>
</glyph>
<glyph name="one" format="2">
	<advance width="305"/>
	<unicode hex="0031"/>
	<outline>
		<contour>
			<point x="101" y="227" type="curve"/>
			<point x="89" y="241"/>
			<point x="88" y="254"/>
			<point x="88" y="266" type="curve" smooth="yes"/>
			<point x="88" y="399"/>
			<point x="227" y="497"/>
			<point x="324" y="562" type="curve"/>
			<point x="232" y="429"/>
			<point x="118" y="207"/>
			<point x="41" y="1" type="curve"/>
			<point x="63" y="1" type="line"/>
			<point x="144" y="216"/>
			<point x="257" y="445"/>
			<point x="344" y="574" type="curve"/>
			<point x="379" y="596" type="line" smooth="yes"/>
			<point x="409" y="614"/>
			<point x="442" y="637"/>
			<point x="459" y="651" type="curve" smooth="yes"/>
			<point x="468" y="658"/>
			<point x="473" y="666"/>
			<point x="473" y="673" type="curve" smooth="yes"/>
			<point x="473" y="682"/>
			<point x="465" y="688"/>
			<point x="454" y="688" type="curve" smooth="yes"/>
			<point x="427" y="688"/>
			<point x="384" y="646"/>
			<point x="336" y="579" type="curve"/>
			<point x="234" y="515"/>
			<point x="78" y="420"/>
			<point x="78" y="279" type="curve" smooth="yes"/>
			<point x="78" y="263"/>
			<point x="80" y="239"/>
			<point x="96" y="223" type="curve"/>
			<point x="99" y="222"/>
			<point x="100" y="223"/>
		</contour>
		<contour>
			<point x="447" y="675" type="curve" smooth="yes"/>
			<point x="453" y="675"/>
			<point x="456" y="672"/>
			<point x="456" y="668" type="curve" smooth="yes"/>
			<point x="456" y="663"/>
			<point x="453" y="658"/>
			<point x="447" y="653" type="curve" smooth="yes"/>
			<point x="430" y="639"/>
			<point x="404" y="622"/>
			<point x="375" y="603" type="curve" smooth="yes"/>
			<point x="355" y="590" type="line"/>
			<point x="392" y="643"/>
			<point x="425" y="675"/>
		</contour>
	</outline>
</glyph>
<glyph name="two" format="2">
	<advance width="527"/>
	<unicode hex="0032"/>
	<outline>
		<contour>
			<point x="-31" y="-2" type="curve"/>
			<point x="-12" y="-2" type="line"/>
			<point x="-7" y="11"/>
			<point x="7" y="33"/>
			<point x="14" y="40" type="curve" smooth="yes"/>
			<point x="65" y="90"/>
			<point x="142" y="144"/>
			<point x="222" y="201" type="curve" smooth="yes"/>
			<point x="383" y="315"/>
			<point x="556" y="438"/>
			<point x="556" y="561" type="curve" smooth="yes"/>
			<point x="556" y="642"/>
			<point x="492" y="684"/>
			<point x="419" y="684" type="curve" smooth="yes"/>
			<point x="301" y="684"/>
			<point x="162" y="566"/>
			<point x="162" y="432" type="curve" smooth="yes"/>
			<point x="162" y="409"/>
			<point x="175" y="368"/>
			<point x="203" y="366" type="curve"/>
			<point x="209" y="367"/>
			<point x="210" y="371"/>
			<point x="207" y="374" type="curve"/>
			<point x="180" y="377"/>
			<point x="175" y="406"/>
			<point x="175" y="426" type="curve" smooth="yes"/>
			<point x="175" y="555"/>
			<point x="305" y="676"/>
			<point x="419" y="676" type="curve" smooth="yes"/>
			<point x="483" y="676"/>
			<point x="540" y="646"/>
			<point x="540" y="571" type="curve" smooth="yes"/>
			<point x="540" y="462"/>
			<point x="379" y="342"/>
			<point x="226" y="227" type="curve" smooth="yes"/>
			<point x="146" y="167"/>
			<point x="60" y="105"/>
			<point x="4" y="40" type="curve"/>
			<point x="-9" y="27"/>
			<point x="-21" y="14"/>
		</contour>
		<contour>
			<point x="14" y="48" type="curve"/>
			<point x="5" y="40" type="line"/>
			<point x="80" y="40"/>
			<point x="137" y="-25"/>
			<point x="241" y="-25" type="curve" smooth="yes"/>
			<point x="325" y="-25"/>
			<point x="434" y="14"/>
			<point x="434" y="113" type="curve" smooth="yes"/>
			<point x="434" y="116"/>
			<point x="434" y="120"/>
			<point x="434" y="123" type="curve"/>
			<point x="432" y="128"/>
			<point x="428" y="129"/>
			<point x="425" y="125" type="curve"/>
			<point x="426" y="120"/>
			<point x="427" y="115"/>
			<point x="427" y="112" type="curve" smooth="yes"/>
			<point x="427" y="31"/>
			<point x="335" y="-11"/>
			<point x="266" y="-11" type="curve" smooth="yes"/>
			<point x="176" y="-11"/>
			<point x="96" y="48"/>
		</contour>
	</outline>
</glyph>
<glyph name="three" format="2">
	<advance width="406"/>
	<unicode hex="0033"/>
	<outline>
		<contour>
			<point x="190" y="331" type="curve" smooth="yes"/>
			<point x="215" y="331"/>
			<point x="238" y="325"/>
			<point x="258" y="315" type="curve"/>
			<point x="240" y="308"/>
			<point x="213" y="304"/>
			<point x="194" y="304" type="curve" smooth="yes"/>
			<point x="166" y="304"/>
			<point x="154" y="311"/>
			<point x="154" y="319" type="curve" smooth="yes"/>
			<point x="154" y="325"/>
			<point x="170" y="331"/>
		</contour>
		<contour>
			<point x="-21" y="-186" type="curve" smooth="yes"/>
			<point x="-98" y="-186"/>
			<point x="-161" y="-161"/>
			<point x="-161" y="-104" type="curve" smooth="yes"/>
			<point x="-161" y="-97"/>
			<point x="-159" y="-89"/>
			<point x="-148" y="-78" type="curve"/>
			<point x="-149" y="-74"/>
			<point x="-152" y="-72"/>
			<point x="-156" y="-74" type="curve"/>
			<point x="-171" y="-92"/>
			<point x="-174" y="-98"/>
			<point x="-174" y="-116" type="curve"/>
			<point x="-174" y="-159"/>
			<point x="-98" y="-196"/>
			<point x="-18" y="-196" type="curve" smooth="yes"/>
			<point x="157" y="-196"/>
			<point x="362" y="-31"/>
			<point x="362" y="138" type="curve" smooth="yes"/>
			<point x="362" y="212"/>
			<point x="328" y="277"/>
			<point x="279" y="311" type="curve"/>
			<point x="372" y="349"/>
			<point x="483" y="461"/>
			<point x="483" y="567" type="curve" smooth="yes"/>
			<point x="483" y="646"/>
			<point x="422" y="684"/>
			<point x="347" y="684" type="curve" smooth="yes"/>
			<point x="247" y="684"/>
			<point x="110" y="585"/>
			<point x="110" y="478" type="curve" smooth="yes"/>
			<point x="110" y="454"/>
			<point x="121" y="420"/>
			<point x="147" y="418" type="curve"/>
			<point x="152" y="420"/>
			<point x="153" y="423"/>
			<point x="151" y="426" type="curve"/>
			<point x="128" y="430"/>
			<point x="123" y="450"/>
			<point x="123" y="470" type="curve" smooth="yes"/>
			<point x="123" y="575"/>
			<point x="247" y="676"/>
			<point x="347" y="676" type="curve" smooth="yes"/>
			<point x="412" y="676"/>
			<point x="463" y="643"/>
			<point x="463" y="572" type="curve" smooth="yes"/>
			<point x="463" y="470"/>
			<point x="360" y="355"/>
			<point x="269" y="318" type="curve"/>
			<point x="244" y="332"/>
			<point x="216" y="340"/>
			<point x="186" y="340" type="curve" smooth="yes"/>
			<point x="165" y="340"/>
			<point x="135" y="331"/>
			<point x="135" y="318" type="curve" smooth="yes"/>
			<point x="135" y="306"/>
			<point x="159" y="295"/>
			<point x="194" y="295" type="curve" smooth="yes"/>
			<point x="217" y="295"/>
			<point x="247" y="300"/>
			<point x="269" y="309" type="curve"/>
			<point x="312" y="278"/>
			<point x="340" y="220"/>
			<point x="340" y="151" type="curve" smooth="yes"/>
			<point x="340" y="4"/>
			<point x="174" y="-186"/>
		</contour>
	</outline>
</glyph>
<glyph name="four" format="2">
	<advance width="504"/>
	<unicode hex="0034"/>
	<outline>
		<contour>
			<point x="311" y="847" type="curve"/>
			<point x="309" y="838" type="line"/>
			<point x="361" y="826"/>
			<point x="373" y="759"/>
			<point x="373" y="715" type="curve" smooth="yes"/>
			<point x="373" y="494"/>
			<point x="133" y="183"/>
			<point x="-30" y="43" type="curve"/>
			<point x="-55" y="40"/>
			<point x="-70" y="24"/>
			<point x="-70" y="13" type="curve" smooth="yes"/>
			<point x="-70" y="9"/>
			<point x="-69" y="6"/>
			<point x="-67" y="2" type="curve"/>
			<point x="-51" y="1" type="line"/>
			<point x="-49" y="12"/>
			<point x="-43" y="21"/>
			<point x="-32" y="30" type="curve"/>
			<point x="-28" y="32"/>
			<point x="-22" y="33"/>
			<point x="-14" y="33" type="curve" smooth="yes"/>
			<point x="72" y="33"/>
			<point x="134" y="-12"/>
			<point x="227" y="-20" type="curve"/>
			<point x="205" y="-72"/>
			<point x="185" y="-124"/>
			<point x="167" y="-173" type="curve"/>
			<point x="190" y="-173" type="line"/>
			<point x="208" y="-125"/>
			<point x="228" y="-73"/>
			<point x="249" y="-21" type="curve"/>
			<point x="254" y="-22"/>
			<point x="261" y="-22"/>
			<point x="267" y="-22" type="curve" smooth="yes"/>
			<point x="315" y="-22"/>
			<point x="368" y="-12"/>
			<point x="405" y="14" type="curve" smooth="yes"/>
			<point x="444" y="41"/>
			<point x="458" y="79"/>
			<point x="457" y="126" type="curve"/>
			<point x="454" y="130"/>
			<point x="451" y="130"/>
			<point x="449" y="126" type="curve"/>
			<point x="451" y="84"/>
			<point x="427" y="48"/>
			<point x="394" y="25" type="curve" smooth="yes"/>
			<point x="358" y="0"/>
			<point x="311" y="-14"/>
			<point x="267" y="-14" type="curve" smooth="yes"/>
			<point x="262" y="-14"/>
			<point x="256" y="-13"/>
			<point x="251" y="-13" type="curve"/>
			<point x="354" y="244"/>
			<point x="482" y="532"/>
			<point x="563" y="615" type="curve"/>
			<point x="556" y="618" type="line"/>
			<point x="470" y="528"/>
			<point x="334" y="242"/>
			<point x="229" y="-12" type="curve"/>
			<point x="134" y="-4"/>
			<point x="74" y="41"/>
			<point x="-18" y="43" type="curve"/>
			<point x="146" y="183"/>
			<point x="389" y="483"/>
			<point x="389" y="701" type="curve" smooth="yes"/>
			<point x="389" y="752"/>
			<point x="368" y="834"/>
		</contour>
	</outline>
</glyph>
<glyph name="five" format="2">
	<advance width="395"/>
	<unicode hex="0035"/>
	<outline>
		<contour>
			<point x="250" y="649" type="curve" smooth="yes"/>
			<point x="244" y="645"/>
			<point x="242" y="647"/>
			<point x="243" y="655" type="curve" smooth="yes"/>
			<point x="245" y="668"/>
			<point x="246" y="680"/>
			<point x="247" y="691" type="curve"/>
			<point x="239" y="691" type="line"/>
			<point x="234" y="610"/>
			<point x="188" y="468"/>
			<point x="136" y="410" type="curve" smooth="yes"/>
			<point x="130" y="404"/>
			<point x="123" y="396"/>
			<point x="122" y="392" type="curve"/>
			<point x="122" y="387" type="line"/>
			<point x="134" y="392" type="line"/>
			<point x="139" y="399"/>
			<point x="164" y="407"/>
			<point x="191" y="407" type="curve" smooth="yes"/>
			<point x="294" y="407"/>
			<point x="348" y="317"/>
			<point x="348" y="217" type="curve" smooth="yes"/>
			<point x="348" y="31"/>
			<point x="172" y="-186"/>
			<point x="-21" y="-186" type="curve" smooth="yes"/>
			<point x="-98" y="-186"/>
			<point x="-161" y="-161"/>
			<point x="-161" y="-104" type="curve" smooth="yes"/>
			<point x="-161" y="-97"/>
			<point x="-159" y="-89"/>
			<point x="-148" y="-78" type="curve"/>
			<point x="-148" y="-75"/>
			<point x="-152" y="-73"/>
			<point x="-156" y="-74" type="curve"/>
			<point x="-171" y="-92"/>
			<point x="-174" y="-98"/>
			<point x="-174" y="-116" type="curve"/>
			<point x="-174" y="-159"/>
			<point x="-98" y="-196"/>
			<point x="-18" y="-196" type="curve" smooth="yes"/>
			<point x="176" y="-196"/>
			<point x="369" y="8"/>
			<point x="369" y="200" type="curve" smooth="yes"/>
			<point x="369" y="313"/>
			<point x="304" y="418"/>
			<point x="188" y="418" type="curve" smooth="yes"/>
			<point x="177" y="418"/>
			<point x="164" y="417"/>
			<point x="153" y="416" type="curve"/>
			<point x="191" y="465"/>
			<point x="223" y="556"/>
			<point x="238" y="627" type="curve"/>
			<point x="245" y="638"/>
			<point x="260" y="647"/>
			<point x="275" y="647" type="curve" smooth="yes"/>
			<point x="309" y="647"/>
			<point x="348" y="621"/>
			<point x="384" y="621" type="curve" smooth="yes"/>
			<point x="408" y="621"/>
			<point x="451" y="630"/>
			<point x="462" y="665" type="curve"/>
			<point x="456" y="671" type="line"/>
			<point x="444" y="643"/>
			<point x="422" y="639"/>
			<point x="400" y="639" type="curve" smooth="yes"/>
			<point x="365" y="639"/>
			<point x="328" y="663"/>
			<point x="293" y="663" type="curve" smooth="yes"/>
			<point x="277" y="663"/>
			<point x="262" y="657"/>
		</contour>
	</outline>
</glyph>
<glyph name="six" format="2">
	<advance width="518"/>
	<unicode hex="0036"/>
	<outline>
		<contour>
			<point x="735" y="835" type="curve"/>
			<point x="724" y="839"/>
			<point x="712" y="840"/>
			<point x="699" y="840" type="curve" smooth="yes"/>
			<point x="635" y="840"/>
			<point x="537" y="805"/>
			<point x="451" y="751" type="curve" smooth="yes"/>
			<point x="245" y="621"/>
			<point x="28" y="383"/>
			<point x="28" y="147" type="curve" smooth="yes"/>
			<point x="28" y="65"/>
			<point x="54" y="-22"/>
			<point x="175" y="-22" type="curve" smooth="yes"/>
			<point x="326" y="-22"/>
			<point x="505" y="165"/>
			<point x="505" y="322" type="curve" smooth="yes"/>
			<point x="505" y="406"/>
			<point x="455" y="462"/>
			<point x="385" y="462" type="curve" smooth="yes"/>
			<point x="251" y="462"/>
			<point x="142" y="332"/>
			<point x="122" y="207" type="curve"/>
			<point x="124" y="205"/>
			<point x="128" y="205"/>
			<point x="130" y="207" type="curve"/>
			<point x="149" y="326"/>
			<point x="255" y="452"/>
			<point x="381" y="452" type="curve" smooth="yes"/>
			<point x="441" y="452"/>
			<point x="485" y="413"/>
			<point x="485" y="341" type="curve" smooth="yes"/>
			<point x="485" y="177"/>
			<point x="319" y="-13"/>
			<point x="175" y="-13" type="curve" smooth="yes"/>
			<point x="72" y="-13"/>
			<point x="50" y="65"/>
			<point x="50" y="139" type="curve" smooth="yes"/>
			<point x="50" y="378"/>
			<point x="270" y="622"/>
			<point x="455" y="744" type="curve" smooth="yes"/>
			<point x="526" y="791"/>
			<point x="625" y="831"/>
			<point x="699" y="831" type="curve" smooth="yes"/>
			<point x="711" y="831"/>
			<point x="723" y="830"/>
			<point x="735" y="828" type="curve"/>
			<point x="738" y="830"/>
			<point x="738" y="833"/>
		</contour>
	</outline>
</glyph>
<glyph name="seven" format="2">
	<advance width="393"/>
	<unicode hex="0037"/>
	<outline>
		<contour>
			<point x="63" y="-107" type="curve"/>
			<point x="63" y="129"/>
			<point x="353" y="479"/>
			<point x="552" y="616" type="curve" smooth="yes"/>
			<point x="568" y="627"/>
			<point x="580" y="646"/>
			<point x="590" y="661" type="curve"/>
			<point x="570" y="661" type="line"/>
			<point x="566" y="650"/>
			<point x="554" y="625"/>
			<point x="545" y="620" type="curve" smooth="yes"/>
			<point x="336" y="491"/>
			<point x="54" y="155"/>
			<point x="54" y="-96" type="curve"/>
			<point x="56" y="-105"/>
			<point x="59" y="-109"/>
		</contour>
		<contour>
			<point x="542" y="611" type="curve"/>
			<point x="554" y="620" type="line"/>
			<point x="482" y="620"/>
			<point x="428" y="684"/>
			<point x="329" y="684" type="curve" smooth="yes"/>
			<point x="251" y="684"/>
			<point x="151" y="646"/>
			<point x="151" y="547" type="curve" smooth="yes"/>
			<point x="151" y="544"/>
			<point x="151" y="539"/>
			<point x="151" y="536" type="curve"/>
			<point x="153" y="531"/>
			<point x="158" y="531"/>
			<point x="160" y="534" type="curve"/>
			<point x="159" y="540"/>
			<point x="159" y="544"/>
			<point x="159" y="548" type="curve" smooth="yes"/>
			<point x="159" y="629"/>
			<point x="242" y="670"/>
			<point x="304" y="670" type="curve" smooth="yes"/>
			<point x="393" y="670"/>
			<point x="467" y="611"/>
		</contour>
	</outline>
</glyph>
<glyph name="eight" format="2">
	<advance width="441"/>
	<unicode hex="0038"/>
	<outline>
		<contour>
			<point x="338" y="819" type="curve"/>
			<point x="369" y="849"/>
			<point x="404" y="864"/>
			<point x="443" y="864" type="curve" smooth="yes"/>
			<point x="503" y="864"/>
			<point x="538" y="829"/>
			<point x="538" y="765" type="curve" smooth="yes"/>
			<point x="538" y="651"/>
			<point x="408" y="564"/>
			<point x="302" y="495" type="curve" smooth="yes"/>
			<point x="149" y="393"/>
			<point x="-26" y="289"/>
			<point x="-26" y="112" type="curve" smooth="yes"/>
			<point x="-26" y="22"/>
			<point x="36" y="-30"/>
			<point x="127" y="-30" type="curve" smooth="yes"/>
			<point x="274" y="-30"/>
			<point x="403" y="99"/>
			<point x="403" y="242" type="curve" smooth="yes"/>
			<point x="403" y="379"/>
			<point x="321" y="496"/>
			<point x="321" y="636" type="curve" smooth="yes"/>
			<point x="321" y="718"/>
			<point x="356" y="773"/>
			<point x="416" y="786" type="curve"/>
			<point x="421" y="789"/>
			<point x="422" y="792"/>
			<point x="418" y="795" type="curve"/>
			<point x="346" y="779"/>
			<point x="304" y="716"/>
			<point x="304" y="627" type="curve" smooth="yes"/>
			<point x="304" y="489"/>
			<point x="382" y="366"/>
			<point x="382" y="230" type="curve" smooth="yes"/>
			<point x="382" y="96"/>
			<point x="262" y="-21"/>
			<point x="127" y="-21" type="curve" smooth="yes"/>
			<point x="44" y="-21"/>
			<point x="-11" y="23"/>
			<point x="-11" y="107" type="curve" smooth="yes"/>
			<point x="-11" y="280"/>
			<point x="158" y="389"/>
			<point x="312" y="490" type="curve" smooth="yes"/>
			<point x="418" y="560"/>
			<point x="555" y="651"/>
			<point x="555" y="766" type="curve" smooth="yes"/>
			<point x="555" y="833"/>
			<point x="516" y="873"/>
			<point x="446" y="873" type="curve" smooth="yes"/>
			<point x="404" y="873"/>
			<point x="367" y="857"/>
			<point x="335" y="828" type="curve"/>
			<point x="333" y="824"/>
			<point x="335" y="820"/>
		</contour>
	</outline>
</glyph>
<glyph name="nine" format="2">
	<advance width="498"/>
	<unicode hex="0039"/>
	<outline>
		<contour>
			<point x="-144" y="-182" type="curve"/>
			<point x="-133" y="-186"/>
			<point x="-121" y="-187"/>
			<point x="-108" y="-187" type="curve" smooth="yes"/>
			<point x="-44" y="-187"/>
			<point x="54" y="-151"/>
			<point x="139" y="-98" type="curve" smooth="yes"/>
			<point x="345" y="32"/>
			<point x="563" y="270"/>
			<point x="563" y="506" type="curve" smooth="yes"/>
			<point x="563" y="588"/>
			<point x="536" y="675"/>
			<point x="415" y="675" type="curve" smooth="yes"/>
			<point x="264" y="675"/>
			<point x="85" y="488"/>
			<point x="85" y="331" type="curve" smooth="yes"/>
			<point x="85" y="247"/>
			<point x="136" y="192"/>
			<point x="206" y="192" type="curve" smooth="yes"/>
			<point x="339" y="192"/>
			<point x="449" y="321"/>
			<point x="469" y="447" type="curve"/>
			<point x="467" y="451"/>
			<point x="464" y="451"/>
			<point x="461" y="447" type="curve"/>
			<point x="442" y="327"/>
			<point x="336" y="201"/>
			<point x="210" y="201" type="curve" smooth="yes"/>
			<point x="149" y="201"/>
			<point x="106" y="240"/>
			<point x="106" y="312" type="curve" smooth="yes"/>
			<point x="106" y="476"/>
			<point x="272" y="666"/>
			<point x="415" y="666" type="curve" smooth="yes"/>
			<point x="518" y="666"/>
			<point x="541" y="588"/>
			<point x="541" y="514" type="curve" smooth="yes"/>
			<point x="541" y="275"/>
			<point x="321" y="31"/>
			<point x="136" y="-91" type="curve" smooth="yes"/>
			<point x="64" y="-138"/>
			<point x="-35" y="-178"/>
			<point x="-108" y="-178" type="curve" smooth="yes"/>
			<point x="-120" y="-178"/>
			<point x="-132" y="-177"/>
			<point x="-144" y="-174" type="curve"/>
			<point x="-147" y="-176"/>
			<point x="-147" y="-180"/>
		</contour>
	</outline>
</glyph>
<glyph name="colon" format="2">
	<advance width="305"/>
	<unicode hex="003A"/>
	<outline>
		<contour>
			<point x="8" y="22" type="curve" smooth="yes"/>
			<point x="3" y="10"/>
			<point x="12" y="-3"/>
			<point x="25" y="-3" type="curve" smooth="yes"/>
			<point x="38" y="-3"/>
			<point x="51" y="7"/>
			<point x="57" y="21" type="curve"/>
			<point x="61" y="33"/>
			<point x="54" y="46"/>
			<point x="41" y="46" type="curve" smooth="yes"/>
			<point x="25" y="46"/>
			<point x="13" y="36"/>
		</contour>
		<contour>
			<point x="166" y="419" type="curve" smooth="yes"/>
			<point x="163" y="406"/>
			<point x="170" y="395"/>
			<point x="183" y="395" type="curve" smooth="yes"/>
			<point x="196" y="395"/>
			<point x="210" y="404"/>
			<point x="215" y="418" type="curve" smooth="yes"/>
			<point x="220" y="431"/>
			<point x="212" y="444"/>
			<point x="199" y="444" type="curve" smooth="yes"/>
			<point x="183" y="444"/>
			<point x="170" y="434"/>
		</contour>
	</outline>
</glyph>
<glyph name="semicolon" format="2">
	<advance width="305"/>
	<unicode hex="003B"/>
	<outline>
		<contour>
			<point x="40" y="44" type="curve" smooth="yes"/>
			<point x="24" y="44"/>
			<point x="9" y="30"/>
			<point x="9" y="15" type="curve" smooth="yes"/>
			<point x="9" y="5"/>
			<point x="15" y="-3"/>
			<point x="25" y="-3" type="curve" smooth="yes"/>
			<point x="28" y="-3"/>
			<point x="31" y="-3"/>
			<point x="33" y="-2" type="curve"/>
			<point x="34" y="-4"/>
			<point x="33" y="-6"/>
			<point x="32" y="-8" type="curve" smooth="yes"/>
			<point x="27" y="-30"/>
			<point x="-36" y="-96"/>
			<point x="-55" y="-110" type="curve"/>
			<point x="-57" y="-114"/>
			<point x="-55" y="-117"/>
			<point x="-51" y="-118" type="curve"/>
			<point x="-11" y="-88"/>
			<point x="58" y="-10"/>
			<point x="58" y="21" type="curve" smooth="yes"/>
			<point x="58" y="36"/>
			<point x="50" y="44"/>
		</contour>
		<contour>
			<point x="164" y="412" type="curve" smooth="yes"/>
			<point x="164" y="402"/>
			<point x="170" y="395"/>
			<point x="182" y="395" type="curve" smooth="yes"/>
			<point x="198" y="395"/>
			<point x="215" y="409"/>
			<point x="215" y="425" type="curve" smooth="yes"/>
			<point x="215" y="436"/>
			<point x="208" y="444"/>
			<point x="198" y="444" type="curve" smooth="yes"/>
			<point x="181" y="444"/>
			<point x="164" y="430"/>
		</contour>
	</outline>
</glyph>
<glyph name="less" format="2">
	<advance width="367"/>
	<unicode hex="003C"/>
	<outline>
		<contour>
			<point x="337" y="498" type="line"/>
			<point x="112" y="307" type="line"/>
			<point x="193" y="78" type="line"/>
			<point x="201" y="83" type="line"/>
			<point x="133" y="304" type="line"/>
			<point x="338" y="488" type="line"/>
		</contour>
	</outline>
</glyph>
<glyph name="equal" format="2">
	<advance width="584"/>
	<unicode hex="003D"/>
	<outline>
		<contour>
			<point x="152" y="371" type="curve"/>
			<point x="152" y="362" type="line"/>
			<point x="152" y="362"/>
			<point x="483" y="362"/>
			<point x="483" y="362" type="curve"/>
			<point x="483" y="371" type="line"/>
			<point x="483" y="371"/>
			<point x="152" y="371"/>
		</contour>
		<contour>
			<point x="105" y="267" type="curve"/>
			<point x="105" y="257" type="line"/>
			<point x="105" y="257"/>
			<point x="435" y="257"/>
			<point x="435" y="257" type="curve"/>
			<point x="435" y="267" type="line"/>
			<point x="435" y="267"/>
			<point x="105" y="267"/>
		</contour>
	</outline>
</glyph>
<glyph name="question" format="2">
	<advance width="507"/>
	<unicode hex="003F"/>
	<outline>
		<contour>
			<point x="64" y="123" type="curve"/>
			<point x="81" y="123" type="line"/>
			<point x="105" y="372"/>
			<point x="552" y="485"/>
			<point x="552" y="717" type="curve" smooth="yes"/>
			<point x="552" y="809"/>
			<point x="477" y="878"/>
			<point x="375" y="878" type="curve" smooth="yes"/>
			<point x="255" y="878"/>
			<point x="150" y="784"/>
			<point x="150" y="678" type="curve" smooth="yes"/>
			<point x="150" y="619"/>
			<point x="181" y="572"/>
			<point x="222" y="572" type="curve" smooth="yes"/>
			<point x="230" y="572"/>
			<point x="238" y="573"/>
			<point x="244" y="576" type="curve" smooth="yes"/>
			<point x="247" y="578"/>
			<point x="248" y="582"/>
			<point x="246" y="585" type="curve"/>
			<point x="237" y="581"/>
			<point x="228" y="581"/>
			<point x="225" y="581" type="curve" smooth="yes"/>
			<point x="191" y="581"/>
			<point x="168" y="613"/>
			<point x="168" y="660" type="curve" smooth="yes"/>
			<point x="168" y="772"/>
			<point x="266" y="870"/>
			<point x="377" y="870" type="curve" smooth="yes"/>
			<point x="468" y="870"/>
			<point x="531" y="810"/>
			<point x="531" y="723" type="curve" smooth="yes"/>
			<point x="531" y="482"/>
			<point x="87" y="366"/>
		</contour>
		<contour>
			<point x="8" y="22" type="curve" smooth="yes"/>
			<point x="7" y="20"/>
			<point x="7" y="17"/>
			<point x="7" y="15" type="curve" smooth="yes"/>
			<point x="7" y="5"/>
			<point x="13" y="-3"/>
			<point x="25" y="-3" type="curve" smooth="yes"/>
			<point x="38" y="-3"/>
			<point x="51" y="7"/>
			<point x="57" y="21" type="curve" smooth="yes"/>
			<point x="58" y="23"/>
			<point x="58" y="26"/>
			<point x="58" y="28" type="curve" smooth="yes"/>
			<point x="58" y="39"/>
			<point x="51" y="46"/>
			<point x="41" y="46" type="curve" smooth="yes"/>
			<point x="25" y="46"/>
			<point x="13" y="36"/>
		</contour>
	</outline>
</glyph>
<glyph name="at" format="2">
	<advance width="720"/>
	<unicode hex="0040"/>
	<outline>
		<contour>
			<point x="-16" y="162" type="curve" smooth="yes"/>
			<point x="-16" y="-33"/>
			<point x="78" y="-126"/>
			<point x="250" y="-126" type="curve" smooth="yes"/>
			<point x="405" y="-126"/>
			<point x="602" y="-59"/>
			<point x="727" y="278" type="curve"/>
			<point x="727" y="282"/>
			<point x="724" y="285"/>
			<point x="720" y="282" type="curve"/>
			<point x="596" y="-51"/>
			<point x="403" y="-118"/>
			<point x="250" y="-118" type="curve" smooth="yes"/>
			<point x="84" y="-118"/>
			<point x="-8" y="-26"/>
			<point x="-8" y="162" type="curve" smooth="yes"/>
			<point x="-8" y="386"/>
			<point x="201" y="741"/>
			<point x="463" y="741" type="curve" smooth="yes"/>
			<point x="609" y="741"/>
			<point x="676" y="630"/>
			<point x="676" y="489" type="curve" smooth="yes"/>
			<point x="676" y="368"/>
			<point x="571" y="101"/>
			<point x="435" y="101" type="curve" smooth="yes"/>
			<point x="396" y="101"/>
			<point x="376" y="132"/>
			<point x="376" y="171" type="curve" smooth="yes"/>
			<point x="376" y="217"/>
			<point x="393" y="271"/>
			<point x="411" y="309" type="curve" smooth="yes"/>
			<point x="518" y="532" type="line"/>
			<point x="493" y="532" type="line"/>
			<point x="392" y="311" type="line" smooth="yes"/>
			<point x="339" y="197"/>
			<point x="270" y="108"/>
			<point x="218" y="108" type="curve" smooth="yes"/>
			<point x="194" y="108"/>
			<point x="183" y="130"/>
			<point x="183" y="168" type="curve" smooth="yes"/>
			<point x="183" y="219"/>
			<point x="196" y="271"/>
			<point x="215" y="317" type="curve" smooth="yes"/>
			<point x="266" y="436"/>
			<point x="350" y="533"/>
			<point x="402" y="533" type="curve" smooth="yes"/>
			<point x="432" y="533"/>
			<point x="443" y="514"/>
			<point x="440" y="491" type="curve"/>
			<point x="438" y="461"/>
			<point x="421" y="427"/>
			<point x="399" y="407" type="curve"/>
			<point x="397" y="404"/>
			<point x="399" y="402"/>
			<point x="402" y="400" type="curve"/>
			<point x="426" y="423"/>
			<point x="449" y="459"/>
			<point x="450" y="491" type="curve"/>
			<point x="453" y="518"/>
			<point x="438" y="541"/>
			<point x="402" y="541" type="curve" smooth="yes"/>
			<point x="342" y="541"/>
			<point x="247" y="449"/>
			<point x="198" y="327" type="curve" smooth="yes"/>
			<point x="180" y="282"/>
			<point x="163" y="233"/>
			<point x="163" y="184" type="curve" smooth="yes"/>
			<point x="163" y="134"/>
			<point x="186" y="96"/>
			<point x="216" y="96" type="curve" smooth="yes"/>
			<point x="268" y="96"/>
			<point x="341" y="179"/>
			<point x="383" y="271" type="curve"/>
			<point x="380" y="273" type="line"/>
			<point x="369" y="242"/>
			<point x="362" y="208"/>
			<point x="362" y="178" type="curve" smooth="yes"/>
			<point x="362" y="132"/>
			<point x="386" y="92"/>
			<point x="435" y="92" type="curve" smooth="yes"/>
			<point x="575" y="92"/>
			<point x="685" y="364"/>
			<point x="685" y="489" type="curve" smooth="yes"/>
			<point x="685" y="634"/>
			<point x="615" y="748"/>
			<point x="463" y="748" type="curve" smooth="yes"/>
			<point x="240" y="748"/>
			<point x="54" y="497"/>
			<point x="0" y="282" type="curve" smooth="yes"/>
			<point x="-11" y="240"/>
			<point x="-16" y="199"/>
		</contour>
	</outline>
</glyph>
<glyph name="A" format="2">
	<advance width="1022"/>
	<unicode hex="0041"/>
	<anchor x="1142" y="998" name="top"/>
	<outline>
		<contour>
			<point x="892.893" y="338.073" type="curve" smooth="yes"/>
			<point x="735.793" y="0.011" type="line"/>
			<point x="761.645" y="0.011" type="line"/>
			<point x="1068.884" y="667.187" type="line" smooth="yes"/>
			<point x="1098.713" y="730.822"/>
			<point x="1151.411" y="844.172"/>
			<point x="1184.223" y="865.052" type="curve" smooth="yes"/>
			<point x="1198.143" y="874.001"/>
			<point x="1207.092" y="885.933"/>
			<point x="1207.092" y="893.887" type="curve" smooth="yes"/>
			<point x="1207.092" y="911.785"/>
			<point x="1190.189" y="942.608"/>
			<point x="1139.479" y="942.608" type="curve" smooth="yes"/>
			<point x="1096.724" y="942.608"/>
			<point x="1028.118" y="918.745"/>
			<point x="964.482" y="858.092" type="curve" smooth="yes"/>
			<point x="874.001" y="771.588"/>
			<point x="794.457" y="647.301"/>
			<point x="711.93" y="516.053" type="curve" smooth="yes"/>
			<point x="671.164" y="449.435"/>
			<point x="626.42" y="380.828"/>
			<point x="580.683" y="314.21" type="curve" smooth="yes"/>
			<point x="475.287" y="164.071"/>
			<point x="316.199" y="-18.88"/>
			<point x="134.242" y="-18.88" type="curve" smooth="yes"/>
			<point x="63.647" y="-18.88"/>
			<point x="-8.937" y="7.966"/>
			<point x="-8.937" y="90.493" type="curve" smooth="yes"/>
			<point x="-8.937" y="128.276"/>
			<point x="9.954" y="159.099"/>
			<point x="40.778" y="174.014" type="curve"/>
			<point x="42.766" y="177.991"/>
			<point x="41.772" y="179.98"/>
			<point x="35.806" y="179.98" type="curve"/>
			<point x="-2.972" y="161.088"/>
			<point x="-24.846" y="129.27"/>
			<point x="-24.846" y="85.521" type="curve" smooth="yes"/>
			<point x="-24.846" y="-9.932"/>
			<point x="76.573" y="-28.823"/>
			<point x="151.145" y="-28.823" type="curve" smooth="yes"/>
			<point x="353.982" y="-28.823"/>
			<point x="481.253" y="134.242"/>
			<point x="593.609" y="308.244" type="curve" smooth="yes"/>
			<point x="632.386" y="369.891"/>
			<point x="670.17" y="430.543"/>
			<point x="705.964" y="488.213" type="curve" smooth="yes"/>
			<point x="796.446" y="632.386"/>
			<point x="877.978" y="761.645"/>
			<point x="976.414" y="851.132" type="curve"/>
			<point x="1027.123" y="899.853"/>
			<point x="1084.793" y="925.705"/>
			<point x="1131.525" y="925.705" type="curve" smooth="yes"/>
			<point x="1171.297" y="925.705"/>
			<point x="1199.137" y="907.807"/>
			<point x="1199.137" y="893.887" type="curve" smooth="yes"/>
			<point x="1199.137" y="887.921"/>
			<point x="1192.177" y="879.967"/>
			<point x="1180.246" y="873.007" type="curve" smooth="yes"/>
			<point x="1144.451" y="852.127"/>
			<point x="1073.855" y="732.811"/>
			<point x="1045.021" y="669.175" type="curve" smooth="yes"/>
			<point x="906.813" y="366.908" type="line"/>
			<point x="903.83" y="361.937"/>
			<point x="897.864" y="357.959"/>
			<point x="891.899" y="357.959" type="curve" smooth="yes"/>
			<point x="508.099" y="357.959" type="line"/>
			<point x="508.099" y="349.011" type="line"/>
			<point x="888.916" y="349.011" type="line" smooth="yes"/>
			<point x="894.881" y="349.011"/>
			<point x="896.87" y="346.028"/>
		</contour>
		<contour>
			<point x="862.07" y="925.705" type="curve"/>
			<point x="836.218" y="859.087"/>
			<point x="791.474" y="830.252"/>
			<point x="713.919" y="830.252" type="curve" smooth="yes"/>
			<point x="614.489" y="830.252"/>
			<point x="529.973" y="874.995"/>
			<point x="417.617" y="874.995" type="curve" smooth="yes"/>
			<point x="192.906" y="874.995"/>
			<point x="1.006" y="696.021"/>
			<point x="1.006" y="487.218" type="curve" smooth="yes"/>
			<point x="1.006" y="349.011"/>
			<point x="97.453" y="245.604"/>
			<point x="226.712" y="245.604" type="curve" smooth="yes"/>
			<point x="377.845" y="245.604"/>
			<point x="520.03" y="383.811"/>
			<point x="520.03" y="529.973" type="curve" smooth="yes"/>
			<point x="520.03" y="623.438"/>
			<point x="461.367" y="688.067"/>
			<point x="376.851" y="688.067" type="curve" smooth="yes"/>
			<point x="278.415" y="688.067"/>
			<point x="183.957" y="600.569"/>
			<point x="183.957" y="510.087" type="curve" smooth="yes"/>
			<point x="183.957" y="488.213"/>
			<point x="188.928" y="471.31"/>
			<point x="205.832" y="450.429" type="curve"/>
			<point x="210.803" y="449.435"/>
			<point x="212.792" y="450.429"/>
			<point x="214.78" y="454.407" type="curve"/>
			<point x="203.843" y="471.31"/>
			<point x="198.871" y="488.213"/>
			<point x="198.871" y="508.099" type="curve" smooth="yes"/>
			<point x="198.871" y="596.591"/>
			<point x="282.393" y="678.124"/>
			<point x="373.868" y="678.124" type="curve" smooth="yes"/>
			<point x="450.429" y="678.124"/>
			<point x="499.15" y="621.449"/>
			<point x="499.15" y="532.956" type="curve" smooth="yes"/>
			<point x="499.15" y="385.8"/>
			<point x="369.891" y="254.552"/>
			<point x="226.712" y="254.552" type="curve" smooth="yes"/>
			<point x="106.402" y="254.552"/>
			<point x="19.897" y="344.039"/>
			<point x="19.897" y="470.315" type="curve" smooth="yes"/>
			<point x="19.897" y="680.113"/>
			<point x="209.809" y="864.058"/>
			<point x="426.566" y="864.058" type="curve" smooth="yes"/>
			<point x="531.962" y="864.058"/>
			<point x="611.506" y="821.303"/>
			<point x="707.953" y="821.303" type="curve" smooth="yes"/>
			<point x="790.48" y="821.303"/>
			<point x="842.184" y="851.132"/>
			<point x="873.007" y="916.756" type="curve"/>
			<point x="873.007" y="924.71"/>
			<point x="869.03" y="926.699"/>
		</contour>
	</outline>
</glyph>
<glyph name="B" format="2">
	<advance width="863"/>
	<unicode hex="0042"/>
	<outline>
		<contour>
			<point x="629" y="934" type="curve" smooth="yes"/>
			<point x="364" y="934"/>
			<point x="43" y="680"/>
			<point x="43" y="393" type="curve" smooth="yes"/>
			<point x="43" y="266"/>
			<point x="109" y="126"/>
			<point x="275" y="126" type="curve" smooth="yes"/>
			<point x="435" y="126"/>
			<point x="597" y="266"/>
			<point x="597" y="432" type="curve" smooth="yes"/>
			<point x="597" y="529"/>
			<point x="533" y="604"/>
			<point x="438" y="604" type="curve" smooth="yes"/>
			<point x="326" y="604"/>
			<point x="221" y="511"/>
			<point x="221" y="412" type="curve" smooth="yes"/>
			<point x="221" y="378"/>
			<point x="232" y="340"/>
			<point x="269" y="326" type="curve"/>
			<point x="275" y="325"/>
			<point x="279" y="327"/>
			<point x="281" y="331" type="curve"/>
			<point x="248" y="339"/>
			<point x="236" y="371"/>
			<point x="236" y="399" type="curve" smooth="yes"/>
			<point x="236" y="505"/>
			<point x="329" y="594"/>
			<point x="438" y="594" type="curve" smooth="yes"/>
			<point x="531" y="594"/>
			<point x="579" y="526"/>
			<point x="579" y="435" type="curve" smooth="yes"/>
			<point x="579" y="276"/>
			<point x="435" y="135"/>
			<point x="276" y="135" type="curve" smooth="yes"/>
			<point x="118" y="135"/>
			<point x="59" y="262"/>
			<point x="59" y="376" type="curve" smooth="yes"/>
			<point x="59" y="658"/>
			<point x="379" y="924"/>
			<point x="635" y="924" type="curve" smooth="yes"/>
			<point x="782" y="924"/>
			<point x="887" y="837"/>
			<point x="887" y="718" type="curve" smooth="yes"/>
			<point x="887" y="593"/>
			<point x="778" y="462"/>
			<point x="649" y="462" type="curve"/>
			<point x="643" y="455" type="line"/>
			<point x="643" y="455"/>
			<point x="655" y="450"/>
			<point x="661" y="448" type="curve" smooth="yes"/>
			<point x="692" y="439"/>
			<point x="764" y="403"/>
			<point x="764" y="305" type="curve" smooth="yes"/>
			<point x="764" y="130"/>
			<point x="569" y="-41"/>
			<point x="368" y="-41" type="curve" smooth="yes"/>
			<point x="195" y="-41"/>
			<point x="111" y="82"/>
			<point x="-26" y="82" type="curve" smooth="yes"/>
			<point x="-62" y="82"/>
			<point x="-82" y="65"/>
			<point x="-82" y="50" type="curve" smooth="yes"/>
			<point x="-82" y="5"/>
			<point x="30" y="3"/>
			<point x="54" y="3" type="curve" smooth="yes"/>
			<point x="325" y="3"/>
			<point x="449" y="269"/>
			<point x="552" y="510" type="curve" smooth="yes"/>
			<point x="635" y="709"/>
			<point x="777" y="964"/>
			<point x="937" y="964" type="curve"/>
			<point x="937" y="977" type="line"/>
			<point x="786" y="977"/>
			<point x="615" y="715"/>
			<point x="524" y="512" type="curve" smooth="yes"/>
			<point x="420" y="280"/>
			<point x="314" y="12"/>
			<point x="54" y="12" type="curve" smooth="yes"/>
			<point x="33" y="12"/>
			<point x="-58" y="13"/>
			<point x="-58" y="49" type="curve" smooth="yes"/>
			<point x="-58" y="60"/>
			<point x="-45" y="72"/>
			<point x="-19" y="72" type="curve" smooth="yes"/>
			<point x="81" y="72"/>
			<point x="192" y="-48"/>
			<point x="372" y="-48" type="curve" smooth="yes"/>
			<point x="587" y="-48"/>
			<point x="784" y="115"/>
			<point x="784" y="293" type="curve" smooth="yes"/>
			<point x="784" y="383"/>
			<point x="727" y="427"/>
			<point x="687" y="448" type="curve" smooth="yes"/>
			<point x="682" y="450"/>
			<point x="680" y="452"/>
			<point x="679" y="452" type="curve"/>
			<point x="680" y="453"/>
			<point x="682" y="454"/>
			<point x="688" y="455" type="curve" smooth="yes"/>
			<point x="807" y="476"/>
			<point x="908" y="592"/>
			<point x="908" y="713" type="curve" smooth="yes"/>
			<point x="908" y="839"/>
			<point x="790" y="934"/>
		</contour>
	</outline>
</glyph>
<glyph name="D" format="2">
	<advance width="1104"/>
	<unicode hex="0044"/>
	<anchor x="936" y="998" name="top"/>
	<outline>
		<contour>
			<point x="682.181" y="955.534" type="curve" smooth="yes"/>
			<point x="339.148" y="955.534"/>
			<point x="14.011" y="688.067"/>
			<point x="14.011" y="401.709" type="curve" smooth="yes"/>
			<point x="14.011" y="285.376"/>
			<point x="74.664" y="157.111"/>
			<point x="226.792" y="157.111" type="curve" smooth="yes"/>
			<point x="373.948" y="157.111"/>
			<point x="522.099" y="285.376"/>
			<point x="522.099" y="438.498" type="curve" smooth="yes"/>
			<point x="522.099" y="526.99"/>
			<point x="464.429" y="595.597"/>
			<point x="375.937" y="595.597" type="curve" smooth="yes"/>
			<point x="274.518" y="595.597"/>
			<point x="177.077" y="510.087"/>
			<point x="177.077" y="419.606" type="curve" smooth="yes"/>
			<point x="177.077" y="387.788"/>
			<point x="187.02" y="352.988"/>
			<point x="220.826" y="340.062" type="curve" smooth="yes"/>
			<point x="225.797" y="338.073"/>
			<point x="227.786" y="341.056"/>
			<point x="228.78" y="346.028" type="curve"/>
			<point x="200.94" y="353.982"/>
			<point x="190.997" y="382.817"/>
			<point x="190.997" y="407.674" type="curve" smooth="yes"/>
			<point x="190.997" y="505.116"/>
			<point x="276.507" y="586.648"/>
			<point x="375.937" y="586.648" type="curve" smooth="yes"/>
			<point x="461.446" y="586.648"/>
			<point x="505.196" y="524.008"/>
			<point x="505.196" y="440.486" type="curve" smooth="yes"/>
			<point x="505.196" y="294.324"/>
			<point x="373.948" y="166.06"/>
			<point x="227.786" y="166.06" type="curve" smooth="yes"/>
			<point x="85.601" y="166.06"/>
			<point x="31.909" y="280.404"/>
			<point x="31.909" y="383.811" type="curve" smooth="yes"/>
			<point x="31.909" y="665.198"/>
			<point x="322.244" y="944.596"/>
			<point x="684.17" y="944.596" type="curve" smooth="yes"/>
			<point x="898.938" y="944.596"/>
			<point x="1061.009" y="797.44"/>
			<point x="1061.009" y="579.688" type="curve" smooth="yes"/>
			<point x="1061.009" y="286.37"/>
			<point x="801.497" y="-40.755"/>
			<point x="513.15" y="-40.755" type="curve" smooth="yes"/>
			<point x="329.205" y="-40.755"/>
			<point x="239.718" y="75.578"/>
			<point x="107.476" y="75.578" type="curve" smooth="yes"/>
			<point x="66.709" y="75.578"/>
			<point x="38.869" y="63.647"/>
			<point x="38.869" y="47.738" type="curve" smooth="yes"/>
			<point x="38.869" y="23.875"/>
			<point x="102.504" y="2.994"/>
			<point x="175.088" y="2.994" type="curve" smooth="yes"/>
			<point x="476.361" y="2.994"/>
			<point x="573.802" y="202.849"/>
			<point x="692.124" y="510.087" type="curve" smooth="yes"/>
			<point x="768.685" y="707.953"/>
			<point x="900.927" y="964.482"/>
			<point x="1060.015" y="964.482" type="curve"/>
			<point x="1060.015" y="977.408" type="line"/>
			<point x="908.881" y="977.408"/>
			<point x="746.811" y="715.907"/>
			<point x="665.278" y="512.076" type="curve" smooth="yes"/>
			<point x="545.962" y="214.78"/>
			<point x="463.435" y="11.943"/>
			<point x="175.088" y="11.943" type="curve" smooth="yes"/>
			<point x="112.447" y="11.943"/>
			<point x="62.732" y="27.852"/>
			<point x="62.732" y="47.738" type="curve" smooth="yes"/>
			<point x="62.732" y="58.675"/>
			<point x="82.618" y="66.63"/>
			<point x="113.441" y="66.63" type="curve" smooth="yes"/>
			<point x="227.786" y="66.63"/>
			<point x="323.239" y="-48.709"/>
			<point x="517.127" y="-48.709" type="curve" smooth="yes"/>
			<point x="817.406" y="-48.709"/>
			<point x="1081.89" y="274.438"/>
			<point x="1081.89" y="565.768" type="curve" smooth="yes"/>
			<point x="1081.89" y="795.451"/>
			<point x="907.887" y="955.534"/>
		</contour>
	</outline>
</glyph>
<glyph name="E" format="2">
	<advance width="672"/>
	<unicode hex="0045"/>
	<anchor x="630" y="998" name="top"/>
	<outline>
		<contour>
			<point x="598.58" y="914.767" type="curve" smooth="yes"/>
			<point x="699.999" y="914.767"/>
			<point x="777.554" y="850.138"/>
			<point x="777.554" y="766.617" type="curve" smooth="yes"/>
			<point x="777.554" y="711.93"/>
			<point x="747.725" y="663.21"/>
			<point x="710.936" y="654.261" type="curve"/>
			<point x="708.947" y="649.289"/>
			<point x="709.942" y="645.312"/>
			<point x="714.913" y="644.318" type="curve"/>
			<point x="759.657" y="656.249"/>
			<point x="795.451" y="709.942"/>
			<point x="795.451" y="764.628" type="curve" smooth="yes"/>
			<point x="795.451" y="850.138"/>
			<point x="701.987" y="923.716"/>
			<point x="592.614" y="923.716" type="curve" smooth="yes"/>
			<point x="408.669" y="923.716"/>
			<point x="321.17" y="792.469"/>
			<point x="321.17" y="670.17" type="curve" smooth="yes"/>
			<point x="321.17" y="565.768"/>
			<point x="388.783" y="467.332"/>
			<point x="524.008" y="467.332" type="curve" smooth="yes"/>
			<point x="556.819" y="467.332"/>
			<point x="582.671" y="481.253"/>
			<point x="582.671" y="500.144" type="curve" smooth="yes"/>
			<point x="582.671" y="533.951"/>
			<point x="511.082" y="562.785"/>
			<point x="428.555" y="562.785" type="curve" smooth="yes"/>
			<point x="183.957" y="562.785"/>
			<point x="-21.863" y="381.823"/>
			<point x="-21.863" y="168.048" type="curve" smooth="yes"/>
			<point x="-21.863" y="10.949"/>
			<point x="83.533" y="-93.453"/>
			<point x="244.609" y="-93.453" type="curve" smooth="yes"/>
			<point x="433.526" y="-93.453"/>
			<point x="604.546" y="57.681"/>
			<point x="604.546" y="223.729" type="curve" smooth="yes"/>
			<point x="604.546" y="324.153"/>
			<point x="538.922" y="394.749"/>
			<point x="446.452" y="394.749" type="curve" smooth="yes"/>
			<point x="335.091" y="394.749"/>
			<point x="235.661" y="295.319"/>
			<point x="235.661" y="180.974" type="curve" smooth="yes"/>
			<point x="235.661" y="153.134"/>
			<point x="244.609" y="125.293"/>
			<point x="264.495" y="103.419" type="curve"/>
			<point x="270.461" y="101.43"/>
			<point x="273.444" y="102.424"/>
			<point x="274.438" y="107.396" type="curve"/>
			<point x="260.518" y="123.305"/>
			<point x="250.575" y="152.139"/>
			<point x="250.575" y="176.997" type="curve" smooth="yes"/>
			<point x="250.575" y="289.353"/>
			<point x="340.062" y="384.806"/>
			<point x="443.469" y="384.806" type="curve" smooth="yes"/>
			<point x="527.985" y="384.806"/>
			<point x="581.677" y="322.165"/>
			<point x="581.677" y="224.723" type="curve" smooth="yes"/>
			<point x="581.677" y="57.681"/>
			<point x="426.566" y="-84.504"/>
			<point x="242.621" y="-84.504" type="curve" smooth="yes"/>
			<point x="92.481" y="-84.504"/>
			<point x="-0.983" y="4.983"/>
			<point x="-0.983" y="149.156" type="curve" smooth="yes"/>
			<point x="-0.983" y="362.931"/>
			<point x="200.86" y="554.831"/>
			<point x="427.56" y="554.831" type="curve" smooth="yes"/>
			<point x="499.15" y="554.831"/>
			<point x="559.802" y="529.973"/>
			<point x="559.802" y="502.133" type="curve" smooth="yes"/>
			<point x="559.802" y="488.213"/>
			<point x="539.916" y="478.27"/>
			<point x="511.082" y="478.27" type="curve" smooth="yes"/>
			<point x="401.709" y="478.27"/>
			<point x="343.045" y="567.757"/>
			<point x="343.045" y="665.198" type="curve" smooth="yes"/>
			<point x="343.045" y="784.514"/>
			<point x="425.572" y="914.767"/>
		</contour>
	</outline>
</glyph>
<glyph name="F" format="2">
	<advance width="802"/>
	<unicode hex="0046"/>
	<outline>
		<contour>
			<point x="194" y="457" type="curve"/>
			<point x="185" y="471"/>
			<point x="179" y="488"/>
			<point x="179" y="508" type="curve" smooth="yes"/>
			<point x="179" y="589"/>
			<point x="261" y="665"/>
			<point x="350" y="665" type="curve" smooth="yes"/>
			<point x="429" y="665"/>
			<point x="481" y="609"/>
			<point x="481" y="524" type="curve" smooth="yes"/>
			<point x="481" y="380"/>
			<point x="351" y="252"/>
			<point x="207" y="252" type="curve" smooth="yes"/>
			<point x="90" y="252"/>
			<point x="10" y="340"/>
			<point x="10" y="470" type="curve" smooth="yes"/>
			<point x="10" y="726"/>
			<point x="283" y="948"/>
			<point x="596" y="948" type="curve" smooth="yes"/>
			<point x="853" y="948"/>
			<point x="1034" y="789"/>
			<point x="1284" y="789" type="curve" smooth="yes"/>
			<point x="1359" y="789"/>
			<point x="1410" y="804"/>
			<point x="1452" y="835" type="curve"/>
			<point x="1454" y="840"/>
			<point x="1453" y="842"/>
			<point x="1449" y="843" type="curve"/>
			<point x="1406" y="812"/>
			<point x="1356" y="797"/>
			<point x="1283" y="797" type="curve" smooth="yes"/>
			<point x="1031" y="797"/>
			<point x="853" y="958"/>
			<point x="585" y="958" type="curve" smooth="yes"/>
			<point x="265" y="958"/>
			<point x="-3" y="741"/>
			<point x="-3" y="483" type="curve" smooth="yes"/>
			<point x="-3" y="344"/>
			<point x="85" y="243"/>
			<point x="207" y="243" type="curve" smooth="yes"/>
			<point x="356" y="243"/>
			<point x="497" y="378"/>
			<point x="497" y="521" type="curve" smooth="yes"/>
			<point x="497" y="610"/>
			<point x="439" y="673"/>
			<point x="354" y="673" type="curve" smooth="yes"/>
			<point x="259" y="673"/>
			<point x="165" y="593"/>
			<point x="165" y="513" type="curve" smooth="yes"/>
			<point x="165" y="491"/>
			<point x="172" y="474"/>
			<point x="185" y="454" type="curve"/>
			<point x="190" y="451"/>
			<point x="193" y="452"/>
		</contour>
		<contour>
			<point x="652" y="468" type="curve"/>
			<point x="655" y="477"/>
			<point x="662" y="480"/>
			<point x="670" y="480" type="curve" smooth="yes"/>
			<point x="797" y="480" type="line"/>
			<point x="797" y="488" type="line"/>
			<point x="672" y="488" type="line" smooth="yes"/>
			<point x="665" y="488"/>
			<point x="664" y="492"/>
			<point x="667" y="498" type="curve" smooth="yes"/>
			<point x="732" y="627"/>
			<point x="815" y="756"/>
			<point x="922" y="781" type="curve"/>
			<point x="922" y="799" type="line"/>
			<point x="813" y="762"/>
			<point x="723" y="633"/>
			<point x="650" y="500" type="curve" smooth="yes"/>
			<point x="645" y="492"/>
			<point x="639" y="488"/>
			<point x="630" y="488" type="curve" smooth="yes"/>
			<point x="549" y="488" type="line"/>
			<point x="549" y="480" type="line"/>
			<point x="628" y="480" type="line" smooth="yes"/>
			<point x="637" y="480"/>
			<point x="638" y="477"/>
			<point x="634" y="471" type="curve"/>
			<point x="600" y="406"/>
			<point x="570" y="342"/>
			<point x="540" y="285" type="curve" smooth="yes"/>
			<point x="476" y="158"/>
			<point x="328" y="-47"/>
			<point x="158" y="-47" type="curve" smooth="yes"/>
			<point x="74" y="-47"/>
			<point x="20" y="-6"/>
			<point x="19" y="58" type="curve" smooth="yes"/>
			<point x="19" y="98"/>
			<point x="41" y="131"/>
			<point x="77" y="147" type="curve"/>
			<point x="71" y="153" type="line"/>
			<point x="33" y="134"/>
			<point x="10" y="101"/>
			<point x="10" y="58" type="curve" smooth="yes"/>
			<point x="11" y="-15"/>
			<point x="70" y="-57"/>
			<point x="172" y="-57" type="curve" smooth="yes"/>
			<point x="387" y="-57"/>
			<point x="504" y="158"/>
			<point x="587" y="331" type="curve" smooth="yes"/>
			<point x="606" y="371"/>
			<point x="628" y="420"/>
		</contour>
	</outline>
</glyph>
<glyph name="G" format="2">
	<advance width="698"/>
	<unicode hex="0047"/>
	<outline>
		<contour>
			<point x="751" y="811" type="curve" smooth="yes"/>
			<point x="751" y="660"/>
			<point x="514" y="484"/>
			<point x="310" y="484" type="curve" smooth="yes"/>
			<point x="220" y="484"/>
			<point x="156" y="511"/>
			<point x="113" y="556" type="curve"/>
			<point x="216" y="741"/>
			<point x="409" y="910"/>
			<point x="605" y="910" type="curve" smooth="yes"/>
			<point x="696" y="910"/>
			<point x="751" y="872"/>
		</contour>
		<contour>
			<point x="54" y="-367" type="curve" smooth="yes"/>
			<point x="-73" y="-367"/>
			<point x="-179" y="-276"/>
			<point x="-179" y="-165" type="curve" smooth="yes"/>
			<point x="-179" y="-58"/>
			<point x="-101" y="27"/>
			<point x="-3" y="27" type="curve" smooth="yes"/>
			<point x="18" y="27"/>
			<point x="39" y="21"/>
			<point x="57" y="12" type="curve"/>
			<point x="60" y="21" type="line"/>
			<point x="41" y="30"/>
			<point x="20" y="34"/>
			<point x="-3" y="34" type="curve" smooth="yes"/>
			<point x="-107" y="34"/>
			<point x="-198" y="-48"/>
			<point x="-198" y="-163" type="curve" smooth="yes"/>
			<point x="-198" y="-282"/>
			<point x="-75" y="-376"/>
			<point x="56" y="-376" type="curve" smooth="yes"/>
			<point x="192" y="-376"/>
			<point x="307" y="-311"/>
			<point x="380" y="-207" type="curve"/>
			<point x="465" y="-81"/>
			<point x="493" y="50"/>
			<point x="520" y="176" type="curve" smooth="yes"/>
			<point x="542" y="278"/>
			<point x="564" y="377"/>
			<point x="617" y="469" type="curve" smooth="yes"/>
			<point x="647" y="520"/>
			<point x="668" y="545"/>
			<point x="680" y="545" type="curve" smooth="yes"/>
			<point x="686" y="545"/>
			<point x="686" y="533"/>
			<point x="686" y="530" type="curve" smooth="yes"/>
			<point x="686" y="505"/>
			<point x="674" y="466"/>
			<point x="654" y="423" type="curve" smooth="yes"/>
			<point x="587" y="274"/>
			<point x="415" y="56"/>
			<point x="235" y="56" type="curve" smooth="yes"/>
			<point x="107" y="56"/>
			<point x="34" y="165"/>
			<point x="34" y="292" type="curve" smooth="yes"/>
			<point x="34" y="369"/>
			<point x="60" y="459"/>
			<point x="106" y="544" type="curve"/>
			<point x="153" y="502"/>
			<point x="219" y="476"/>
			<point x="311" y="476" type="curve" smooth="yes"/>
			<point x="526" y="476"/>
			<point x="769" y="650"/>
			<point x="769" y="803" type="curve" smooth="yes"/>
			<point x="769" y="873"/>
			<point x="705" y="916"/>
			<point x="601" y="916" type="curve" smooth="yes"/>
			<point x="393" y="916"/>
			<point x="198" y="746"/>
			<point x="97" y="574" type="curve"/>
			<point x="70" y="610"/>
			<point x="55" y="653"/>
			<point x="55" y="703" type="curve" smooth="yes"/>
			<point x="55" y="805"/>
			<point x="122" y="899"/>
			<point x="223" y="899" type="curve" smooth="yes"/>
			<point x="257" y="899"/>
			<point x="280" y="890"/>
			<point x="292" y="873" type="curve"/>
			<point x="301" y="873" type="line"/>
			<point x="285" y="895"/>
			<point x="256" y="907"/>
			<point x="219" y="907" type="curve" smooth="yes"/>
			<point x="115" y="907"/>
			<point x="36" y="813"/>
			<point x="36" y="706" type="curve" smooth="yes"/>
			<point x="36" y="649"/>
			<point x="56" y="600"/>
			<point x="89" y="563" type="curve"/>
			<point x="40" y="476"/>
			<point x="14" y="386"/>
			<point x="14" y="307" type="curve" smooth="yes"/>
			<point x="14" y="175"/>
			<point x="81" y="45"/>
			<point x="230" y="45" type="curve" smooth="yes"/>
			<point x="418" y="45"/>
			<point x="589" y="263"/>
			<point x="661" y="415" type="curve" smooth="yes"/>
			<point x="685" y="467"/>
			<point x="700" y="511"/>
			<point x="700" y="541" type="curve" smooth="yes"/>
			<point x="700" y="558"/>
			<point x="695" y="565"/>
			<point x="686" y="565" type="curve" smooth="yes"/>
			<point x="669" y="565"/>
			<point x="638" y="532"/>
			<point x="606" y="473" type="curve" smooth="yes"/>
			<point x="558" y="380"/>
			<point x="535" y="285"/>
			<point x="511" y="190" type="curve" smooth="yes"/>
			<point x="479" y="62"/>
			<point x="449" y="-67"/>
			<point x="360" y="-194" type="curve" smooth="yes"/>
			<point x="289" y="-296"/>
			<point x="184" y="-367"/>
		</contour>
	</outline>
</glyph>
<glyph name="H" format="2">
	<advance width="945"/>
	<unicode hex="0048"/>
	<outline>
		<contour>
			<point x="337" y="411" type="line"/>
			<point x="399" y="411" type="line" smooth="yes"/>
			<point x="405" y="411"/>
			<point x="405" y="409"/>
			<point x="403" y="404" type="curve"/>
			<point x="351" y="308" type="line" smooth="yes"/>
			<point x="289" y="190"/>
			<point x="155" y="-9"/>
			<point x="-3" y="-9" type="curve" smooth="yes"/>
			<point x="-43" y="-9"/>
			<point x="-114" y="17"/>
			<point x="-114" y="84" type="curve" smooth="yes"/>
			<point x="-114" y="98"/>
			<point x="-111" y="112"/>
			<point x="-104" y="130" type="curve"/>
			<point x="-108" y="133" type="line"/>
			<point x="-117" y="112"/>
			<point x="-122" y="91"/>
			<point x="-122" y="76" type="curve" smooth="yes"/>
			<point x="-122" y="3"/>
			<point x="-45" y="-20"/>
			<point x="1" y="-20" type="curve" smooth="yes"/>
			<point x="191" y="-20"/>
			<point x="307" y="161"/>
			<point x="385" y="315" type="curve"/>
			<point x="427" y="402" type="line" smooth="yes"/>
			<point x="430" y="409"/>
			<point x="434" y="411"/>
			<point x="441" y="411" type="curve" smooth="yes"/>
			<point x="807" y="411" type="line" smooth="yes"/>
			<point x="813" y="411"/>
			<point x="813" y="409"/>
			<point x="811" y="404" type="curve" smooth="yes"/>
			<point x="781" y="339"/>
			<point x="753" y="274"/>
			<point x="729" y="209" type="curve" smooth="yes"/>
			<point x="700" y="132"/>
			<point x="672" y="41"/>
			<point x="672" y="-34" type="curve" smooth="yes"/>
			<point x="672" y="-134"/>
			<point x="720" y="-193"/>
			<point x="798" y="-193" type="curve" smooth="yes"/>
			<point x="853" y="-193"/>
			<point x="901" y="-152"/>
			<point x="901" y="-106" type="curve" smooth="yes"/>
			<point x="901" y="-84"/>
			<point x="888" y="-63"/>
			<point x="870" y="-56" type="curve"/>
			<point x="868" y="-62" type="line"/>
			<point x="882" y="-69"/>
			<point x="890" y="-83"/>
			<point x="890" y="-98" type="curve" smooth="yes"/>
			<point x="890" y="-144"/>
			<point x="847" y="-185"/>
			<point x="799" y="-185" type="curve" smooth="yes"/>
			<point x="733" y="-185"/>
			<point x="691" y="-130"/>
			<point x="691" y="-39" type="curve" smooth="yes"/>
			<point x="691" y="30"/>
			<point x="716" y="118"/>
			<point x="747" y="195" type="curve" smooth="yes"/>
			<point x="775" y="263"/>
			<point x="805" y="333"/>
			<point x="836" y="402" type="curve" smooth="yes"/>
			<point x="839" y="408"/>
			<point x="843" y="411"/>
			<point x="850" y="411" type="curve" smooth="yes"/>
			<point x="913" y="411" type="line"/>
			<point x="913" y="419" type="line"/>
			<point x="851" y="419" type="line" smooth="yes"/>
			<point x="845" y="419"/>
			<point x="845" y="421"/>
			<point x="847" y="426" type="curve" smooth="yes"/>
			<point x="983" y="708"/>
			<point x="1153" y="953"/>
			<point x="1319" y="953" type="curve" smooth="yes"/>
			<point x="1364" y="953"/>
			<point x="1410" y="932"/>
			<point x="1418" y="890" type="curve"/>
			<point x="1423" y="890" type="line"/>
			<point x="1425" y="897"/>
			<point x="1426" y="903"/>
			<point x="1426" y="908" type="curve" smooth="yes"/>
			<point x="1426" y="946"/>
			<point x="1370" y="962"/>
			<point x="1326" y="962" type="curve" smooth="yes"/>
			<point x="1147" y="962"/>
			<point x="963" y="714"/>
			<point x="823" y="428" type="curve" smooth="yes"/>
			<point x="820" y="422"/>
			<point x="816" y="419"/>
			<point x="809" y="419" type="curve" smooth="yes"/>
			<point x="443" y="419" type="line" smooth="yes"/>
			<point x="437" y="419"/>
			<point x="437" y="421"/>
			<point x="439" y="426" type="curve" smooth="yes"/>
			<point x="495" y="542"/>
			<point x="589" y="730"/>
			<point x="684" y="789" type="curve" smooth="yes"/>
			<point x="715" y="808"/>
			<point x="769" y="821"/>
			<point x="769" y="855" type="curve" smooth="yes"/>
			<point x="769" y="932"/>
			<point x="588" y="974"/>
			<point x="457" y="974" type="curve" smooth="yes"/>
			<point x="216" y="974"/>
			<point x="-50" y="833"/>
			<point x="-50" y="593" type="curve" smooth="yes"/>
			<point x="-50" y="495"/>
			<point x="8" y="385"/>
			<point x="135" y="385" type="curve" smooth="yes"/>
			<point x="263" y="385"/>
			<point x="389" y="497"/>
			<point x="389" y="630" type="curve" smooth="yes"/>
			<point x="389" y="715"/>
			<point x="327" y="759"/>
			<point x="258" y="759" type="curve" smooth="yes"/>
			<point x="170" y="759"/>
			<point x="87" y="687"/>
			<point x="87" y="614" type="curve" smooth="yes"/>
			<point x="87" y="593"/>
			<point x="95" y="575"/>
			<point x="105" y="555" type="curve"/>
			<point x="109" y="554"/>
			<point x="111" y="554"/>
			<point x="113" y="559" type="curve"/>
			<point x="105" y="576"/>
			<point x="101" y="594"/>
			<point x="101" y="611" type="curve" smooth="yes"/>
			<point x="101" y="682"/>
			<point x="173" y="750"/>
			<point x="257" y="750" type="curve" smooth="yes"/>
			<point x="316" y="750"/>
			<point x="370" y="713"/>
			<point x="370" y="631" type="curve" smooth="yes"/>
			<point x="370" y="502"/>
			<point x="259" y="392"/>
			<point x="144" y="392" type="curve" smooth="yes"/>
			<point x="17" y="392"/>
			<point x="-34" y="487"/>
			<point x="-34" y="575" type="curve" smooth="yes"/>
			<point x="-34" y="767"/>
			<point x="166" y="965"/>
			<point x="457" y="965" type="curve" smooth="yes"/>
			<point x="594" y="965"/>
			<point x="754" y="921"/>
			<point x="754" y="855" type="curve" smooth="yes"/>
			<point x="754" y="827"/>
			<point x="707" y="812"/>
			<point x="681" y="797" type="curve" smooth="yes"/>
			<point x="562" y="726"/>
			<point x="478" y="543"/>
			<point x="415" y="428" type="curve" smooth="yes"/>
			<point x="412" y="423"/>
			<point x="408" y="419"/>
			<point x="401" y="419" type="curve" smooth="yes"/>
			<point x="341" y="419" type="line"/>
		</contour>
	</outline>
</glyph>
<glyph name="I" format="2">
	<advance width="568"/>
	<unicode hex="0049"/>
	<anchor x="673" y="998" name="top"/>
	<outline>
		<contour>
			<point x="-25.846" y="-47.715" type="curve" smooth="yes"/>
			<point x="150.145" y="-47.715"/>
			<point x="243.609" y="93.476"/>
			<point x="327.13" y="237.649" type="curve"/>
			<point x="449.429" y="252.564"/>
			<point x="556.814" y="359.948"/>
			<point x="556.814" y="488.213" type="curve" smooth="yes"/>
			<point x="556.814" y="532.956"/>
			<point x="544.882" y="572.728"/>
			<point x="512.07" y="603.552" type="curve"/>
			<point x="558.802" y="681.107"/>
			<point x="611.5" y="747.725"/>
			<point x="675.135" y="768.605" type="curve" smooth="yes"/>
			<point x="707.947" y="779.543"/>
			<point x="764.622" y="806.389"/>
			<point x="764.622" y="848.149" type="curve"/>
			<point x="764.622" y="896.87"/>
			<point x="676.13" y="934.653"/>
			<point x="564.768" y="934.653" type="curve" smooth="yes"/>
			<point x="289.347" y="934.653"/>
			<point x="80.544" y="685.084"/>
			<point x="80.544" y="481.253" type="curve" smooth="yes"/>
			<point x="80.544" y="354.977"/>
			<point x="157.105" y="235.661"/>
			<point x="293.324" y="235.661" type="curve" smooth="yes"/>
			<point x="296.307" y="235.661" type="line"/>
			<point x="219.746" y="109.384"/>
			<point x="106.396" y="-37.772"/>
			<point x="-38.772" y="-37.772" type="curve" smooth="yes"/>
			<point x="-107.379" y="-37.772"/>
			<point x="-174.991" y="-1.977"/>
			<point x="-174.991" y="73.59" type="curve" smooth="yes"/>
			<point x="-174.991" y="111.373"/>
			<point x="-158.088" y="139.213"/>
			<point x="-127.265" y="155.122" type="curve"/>
			<point x="-125.276" y="159.099"/>
			<point x="-126.27" y="161.088"/>
			<point x="-132.236" y="161.088" type="curve"/>
			<point x="-171.014" y="142.196"/>
			<point x="-189.906" y="110.379"/>
			<point x="-189.906" y="68.618" type="curve" smooth="yes"/>
			<point x="-189.906" y="-20.869"/>
			<point x="-98.43" y="-47.715"/>
		</contour>
		<contour>
			<point x="573.717" y="925.705" type="curve" smooth="yes"/>
			<point x="671.158" y="925.705"/>
			<point x="745.731" y="889.91"/>
			<point x="746.725" y="844.172" type="curve"/>
			<point x="746.725" y="810.366"/>
			<point x="702.976" y="791.474"/>
			<point x="673.147" y="779.543" type="curve"/>
			<point x="608.517" y="755.679"/>
			<point x="552.837" y="689.061"/>
			<point x="501.133" y="611.506" type="curve"/>
			<point x="475.281" y="633.381"/>
			<point x="441.475" y="643.324"/>
			<point x="406.674" y="643.324" type="curve" smooth="yes"/>
			<point x="312.216" y="643.324"/>
			<point x="231.678" y="567.757"/>
			<point x="232.672" y="489.207" type="curve"/>
			<point x="232.672" y="467.332"/>
			<point x="240.626" y="449.435"/>
			<point x="256.535" y="434.521" type="curve"/>
			<point x="261.507" y="433.526"/>
			<point x="264.49" y="435.515"/>
			<point x="265.484" y="438.498" type="curve"/>
			<point x="250.569" y="452.418"/>
			<point x="245.598" y="469.321"/>
			<point x="245.598" y="486.224" type="curve"/>
			<point x="245.598" y="560.797"/>
			<point x="318.182" y="634.375"/>
			<point x="406.674" y="634.375" type="curve" smooth="yes"/>
			<point x="439.486" y="634.375"/>
			<point x="472.298" y="623.438"/>
			<point x="495.167" y="600.569" type="curve"/>
			<point x="440.481" y="514.065"/>
			<point x="395.737" y="414.635"/>
			<point x="354.971" y="338.073" type="curve" smooth="yes"/>
			<point x="339.062" y="308.244"/>
			<point x="321.165" y="275.433"/>
			<point x="302.273" y="243.615" type="curve"/>
			<point x="296.307" y="243.615" type="line" smooth="yes"/>
			<point x="168.042" y="243.615"/>
			<point x="93.47" y="347.022"/>
			<point x="93.47" y="468.327" type="curve" smooth="yes"/>
			<point x="93.47" y="672.158"/>
			<point x="305.256" y="925.705"/>
		</contour>
		<contour>
			<point x="331.108" y="246.598" type="curve"/>
			<point x="378.834" y="334.096" type="line" smooth="yes"/>
			<point x="419.6" y="407.674"/>
			<point x="456.389" y="505.116"/>
			<point x="505.11" y="591.62" type="curve"/>
			<point x="531.956" y="563.78"/>
			<point x="540.905" y="525.996"/>
			<point x="540.905" y="488.213" type="curve"/>
			<point x="541.899" y="365.914"/>
			<point x="445.452" y="262.507"/>
		</contour>
	</outline>
</glyph>
<glyph name="J" format="2">
	<advance width="543"/>
	<unicode hex="004A"/>
	<outline>
		<contour>
			<point x="-159" y="-155" type="curve" smooth="yes"/>
			<point x="51" y="-155"/>
			<point x="179" y="52"/>
			<point x="265" y="225" type="curve" smooth="yes"/>
			<point x="267" y="229"/>
			<point x="269" y="233"/>
			<point x="270" y="236" type="curve"/>
			<point x="399" y="250"/>
			<point x="519" y="365"/>
			<point x="519" y="500" type="curve" smooth="yes"/>
			<point x="519" y="543"/>
			<point x="504" y="586"/>
			<point x="470" y="614" type="curve"/>
			<point x="522" y="690"/>
			<point x="583" y="748"/>
			<point x="651" y="768" type="curve" smooth="yes"/>
			<point x="688" y="779"/>
			<point x="745" y="808"/>
			<point x="744" y="851" type="curve" smooth="yes"/>
			<point x="744" y="907"/>
			<point x="651" y="934"/>
			<point x="550" y="934" type="curve" smooth="yes"/>
			<point x="269" y="934"/>
			<point x="44" y="675"/>
			<point x="44" y="469" type="curve" smooth="yes"/>
			<point x="44" y="348"/>
			<point x="108" y="238"/>
			<point x="240" y="235" type="curve"/>
			<point x="242" y="235"/>
			<point x="243" y="235"/>
			<point x="245" y="235" type="curve"/>
			<point x="234" y="216" type="line" smooth="yes"/>
			<point x="161" y="82"/>
			<point x="10" y="-145"/>
			<point x="-172" y="-145" type="curve" smooth="yes"/>
			<point x="-241" y="-145"/>
			<point x="-306" y="-111"/>
			<point x="-306" y="-34" type="curve" smooth="yes"/>
			<point x="-306" y="4"/>
			<point x="-287" y="33"/>
			<point x="-257" y="48" type="curve"/>
			<point x="-254" y="52"/>
			<point x="-256" y="54"/>
			<point x="-261" y="54" type="curve"/>
			<point x="-300" y="35"/>
			<point x="-322" y="2"/>
			<point x="-322" y="-39" type="curve" smooth="yes"/>
			<point x="-322" y="-128"/>
			<point x="-231" y="-155"/>
		</contour>
		<contour>
			<point x="559" y="925" type="curve" smooth="yes"/>
			<point x="656" y="925"/>
			<point x="727" y="897"/>
			<point x="727" y="846" type="curve" smooth="yes"/>
			<point x="727" y="811"/>
			<point x="683" y="790"/>
			<point x="651" y="779" type="curve" smooth="yes"/>
			<point x="582" y="757"/>
			<point x="517" y="696"/>
			<point x="461" y="619" type="curve"/>
			<point x="436" y="635"/>
			<point x="406" y="644"/>
			<point x="377" y="644" type="curve" smooth="yes"/>
			<point x="282" y="644"/>
			<point x="193" y="567"/>
			<point x="194" y="488" type="curve"/>
			<point x="194" y="467"/>
			<point x="203" y="451"/>
			<point x="216" y="435" type="curve"/>
			<point x="221" y="433"/>
			<point x="224" y="434"/>
			<point x="224" y="439" type="curve"/>
			<point x="213" y="453"/>
			<point x="207" y="467"/>
			<point x="207" y="485" type="curve"/>
			<point x="206" y="560"/>
			<point x="287" y="634"/>
			<point x="376" y="634" type="curve" smooth="yes"/>
			<point x="403" y="634"/>
			<point x="431" y="627"/>
			<point x="454" y="611" type="curve"/>
			<point x="370" y="495"/>
			<point x="308" y="356"/>
			<point x="249" y="244" type="curve"/>
			<point x="245" y="244" type="line" smooth="yes"/>
			<point x="120" y="244"/>
			<point x="57" y="339"/>
			<point x="57" y="455" type="curve" smooth="yes"/>
			<point x="57" y="658"/>
			<point x="284" y="925"/>
		</contour>
		<contour>
			<point x="463" y="604" type="curve"/>
			<point x="491" y="579"/>
			<point x="503" y="539"/>
			<point x="503" y="501" type="curve" smooth="yes"/>
			<point x="503" y="371"/>
			<point x="394" y="261"/>
			<point x="274" y="245" type="curve"/>
			<point x="325" y="354"/>
			<point x="385" y="491"/>
		</contour>
	</outline>
</glyph>
<glyph name="K" format="2">
	<advance width="909"/>
	<unicode hex="004B"/>
	<outline>
		<contour>
			<point x="102" y="-19" type="curve" smooth="yes"/>
			<point x="292" y="-19"/>
			<point x="397" y="161"/>
			<point x="472" y="315" type="curve" smooth="yes"/>
			<point x="499" y="371"/>
			<point x="528" y="436"/>
			<point x="561" y="499" type="curve" smooth="yes"/>
			<point x="625" y="624"/>
			<point x="724" y="751"/>
			<point x="782" y="789" type="curve"/>
			<point x="812" y="807"/>
			<point x="866" y="821"/>
			<point x="866" y="854" type="curve" smooth="yes"/>
			<point x="866" y="933"/>
			<point x="657" y="974"/>
			<point x="545" y="974" type="curve" smooth="yes"/>
			<point x="247" y="974"/>
			<point x="1" y="772"/>
			<point x="1" y="526" type="curve" smooth="yes"/>
			<point x="1" y="413"/>
			<point x="70" y="311"/>
			<point x="191" y="311" type="curve" smooth="yes"/>
			<point x="318" y="311"/>
			<point x="441" y="422"/>
			<point x="440" y="555" type="curve"/>
			<point x="438" y="640"/>
			<point x="377" y="686"/>
			<point x="307" y="686" type="curve" smooth="yes"/>
			<point x="228" y="686"/>
			<point x="153" y="613"/>
			<point x="153" y="541" type="curve" smooth="yes"/>
			<point x="153" y="521"/>
			<point x="160" y="505"/>
			<point x="174" y="488" type="curve"/>
			<point x="178" y="487"/>
			<point x="181" y="488"/>
			<point x="181" y="492" type="curve"/>
			<point x="171" y="506"/>
			<point x="168" y="522"/>
			<point x="168" y="538" type="curve" smooth="yes"/>
			<point x="168" y="608"/>
			<point x="230" y="677"/>
			<point x="306" y="677" type="curve" smooth="yes"/>
			<point x="366" y="677"/>
			<point x="421" y="637"/>
			<point x="422" y="556" type="curve" smooth="yes"/>
			<point x="423" y="429"/>
			<point x="313" y="319"/>
			<point x="200" y="319" type="curve" smooth="yes"/>
			<point x="84" y="319"/>
			<point x="17" y="402"/>
			<point x="17" y="513" type="curve" smooth="yes"/>
			<point x="17" y="757"/>
			<point x="259" y="965"/>
			<point x="546" y="965" type="curve" smooth="yes"/>
			<point x="650" y="965"/>
			<point x="851" y="927"/>
			<point x="851" y="854" type="curve" smooth="yes"/>
			<point x="851" y="825"/>
			<point x="804" y="812"/>
			<point x="779" y="797" type="curve" smooth="yes"/>
			<point x="711" y="756"/>
			<point x="609" y="628"/>
			<point x="539" y="501" type="curve" smooth="yes"/>
			<point x="502" y="433"/>
			<point x="466" y="362"/>
			<point x="439" y="308" type="curve" smooth="yes"/>
			<point x="379" y="190"/>
			<point x="246" y="-9"/>
			<point x="88" y="-9" type="curve" smooth="yes"/>
			<point x="18" y="-9"/>
			<point x="-44" y="27"/>
			<point x="-44" y="104" type="curve" smooth="yes"/>
			<point x="-44" y="136"/>
			<point x="-29" y="162"/>
			<point x="-5" y="178" type="curve"/>
			<point x="-1" y="181"/>
			<point x="2" y="184"/>
			<point x="6" y="186" type="curve"/>
			<point x="7" y="188"/>
			<point x="6" y="190"/>
			<point x="1" y="190" type="curve"/>
			<point x="-37" y="172"/>
			<point x="-60" y="140"/>
			<point x="-60" y="99" type="curve" smooth="yes"/>
			<point x="-60" y="7"/>
			<point x="27" y="-19"/>
		</contour>
		<contour>
			<point x="615" y="375" type="curve"/>
			<point x="615" y="365" type="line"/>
			<point x="673" y="343"/>
			<point x="677" y="225"/>
			<point x="683" y="98" type="curve" smooth="yes"/>
			<point x="689" y="-30"/>
			<point x="695" y="-167"/>
			<point x="756" y="-229" type="curve"/>
			<point x="772" y="-244"/>
			<point x="797" y="-260"/>
			<point x="826" y="-260" type="curve" smooth="yes"/>
			<point x="845" y="-260"/>
			<point x="868" y="-253"/>
			<point x="891" y="-231" type="curve"/>
			<point x="886" y="-226" type="line"/>
			<point x="870" y="-243"/>
			<point x="848" y="-251"/>
			<point x="827" y="-251" type="curve" smooth="yes"/>
			<point x="803" y="-251"/>
			<point x="778" y="-241"/>
			<point x="761" y="-222" type="curve"/>
			<point x="709" y="-158"/>
			<point x="708" y="-16"/>
			<point x="706" y="90" type="curve" smooth="yes"/>
			<point x="705" y="204"/>
			<point x="698" y="316"/>
			<point x="634" y="364" type="curve"/>
			<point x="631" y="367"/>
			<point x="632" y="368"/>
			<point x="638" y="370" type="curve" smooth="yes"/>
			<point x="727" y="395"/>
			<point x="826" y="499"/>
			<point x="927" y="607" type="curve" smooth="yes"/>
			<point x="1054" y="740"/>
			<point x="1189" y="884"/>
			<point x="1321" y="884" type="curve" smooth="yes"/>
			<point x="1366" y="884"/>
			<point x="1408" y="862"/>
			<point x="1408" y="829" type="curve" smooth="yes"/>
			<point x="1408" y="825"/>
			<point x="1407" y="820"/>
			<point x="1406" y="814" type="curve"/>
			<point x="1415" y="812" type="line"/>
			<point x="1416" y="818"/>
			<point x="1417" y="823"/>
			<point x="1417" y="828" type="curve" smooth="yes"/>
			<point x="1417" y="867"/>
			<point x="1367" y="906"/>
			<point x="1310" y="906" type="curve" smooth="yes"/>
			<point x="1176" y="906"/>
			<point x="1030" y="729"/>
			<point x="922" y="614" type="curve" smooth="yes"/>
			<point x="816" y="502"/>
			<point x="709" y="388"/>
		</contour>
	</outline>
</glyph>
<glyph name="L" format="2">
	<advance width="676"/>
	<unicode hex="004C"/>
	<anchor x="818" y="998" name="top"/>
	<outline>
		<contour>
			<point x="648.352" y="-238.621" type="curve" smooth="yes"/>
			<point x="804.457" y="-238.621"/>
			<point x="898.916" y="-153.111"/>
			<point x="898.916" y="-81.521" type="curve" smooth="yes"/>
			<point x="898.916" y="-74.561"/>
			<point x="897.921" y="-66.607"/>
			<point x="895.933" y="-58.652" type="curve"/>
			<point x="892.95" y="-56.664"/>
			<point x="887.978" y="-58.652"/>
			<point x="887.978" y="-63.624" type="curve"/>
			<point x="888.973" y="-68.595"/>
			<point x="889.967" y="-74.561"/>
			<point x="889.967" y="-79.533" type="curve"/>
			<point x="888.973" y="-144.162"/>
			<point x="777.611" y="-218.735"/>
			<point x="624.489" y="-218.735" type="curve" smooth="yes"/>
			<point x="337.136" y="-218.735"/>
			<point x="202.906" y="105.407"/>
			<point x="-63.567" y="105.407" type="curve" smooth="yes"/>
			<point x="-112.288" y="105.407"/>
			<point x="-140.128" y="91.487"/>
			<point x="-140.128" y="69.612" type="curve" smooth="yes"/>
			<point x="-140.128" y="40.778"/>
			<point x="-94.39" y="19.897"/>
			<point x="-32.744" y="19.897" type="curve" smooth="yes"/>
			<point x="156.174" y="19.897"/>
			<point x="306.313" y="187.934"/>
			<point x="396.794" y="377.845" type="curve"/>
			<point x="468.384" y="529.973"/>
			<point x="624.489" y="940.619"/>
			<point x="777.611" y="940.619" type="curve" smooth="yes"/>
			<point x="824.343" y="940.619"/>
			<point x="841.246" y="896.87"/>
			<point x="841.246" y="856.104" type="curve" smooth="yes"/>
			<point x="841.246" y="613.495"/>
			<point x="524.065" y="255.547"/>
			<point x="269.524" y="255.547" type="curve" smooth="yes"/>
			<point x="124.356" y="255.547"/>
			<point x="1.063" y="356.965"/>
			<point x="1.063" y="508.099" type="curve" smooth="yes"/>
			<point x="1.063" y="647.301"/>
			<point x="109.441" y="748.719"/>
			<point x="224.78" y="748.719" type="curve" smooth="yes"/>
			<point x="308.301" y="748.719"/>
			<point x="364.977" y="692.044"/>
			<point x="365.971" y="627.415" type="curve" smooth="yes"/>
			<point x="365.971" y="571.734"/>
			<point x="326.199" y="501.139"/>
			<point x="259.581" y="501.139" type="curve" smooth="yes"/>
			<point x="248.643" y="501.139"/>
			<point x="206.883" y="503.127"/>
			<point x="188.985" y="544.888" type="curve"/>
			<point x="184.014" y="546.876"/>
			<point x="181.031" y="545.882"/>
			<point x="180.037" y="540.911" type="curve"/>
			<point x="200.917" y="499.15"/>
			<point x="237.706" y="493.184"/>
			<point x="262.564" y="493.184" type="curve" smooth="yes"/>
			<point x="338.13" y="493.184"/>
			<point x="380.885" y="566.762"/>
			<point x="379.891" y="626.42" type="curve" smooth="yes"/>
			<point x="378.897" y="700.993"/>
			<point x="314.267" y="756.674"/>
			<point x="223.786" y="756.674" type="curve" smooth="yes"/>
			<point x="100.493" y="756.674"/>
			<point x="-19.818" y="655.255"/>
			<point x="-19.818" y="510.087" type="curve" smooth="yes"/>
			<point x="-19.818" y="349.011"/>
			<point x="127.339" y="246.598"/>
			<point x="277.478" y="246.598" type="curve" smooth="yes"/>
			<point x="531.025" y="246.598"/>
			<point x="856.161" y="594.603"/>
			<point x="856.161" y="842.184" type="curve" smooth="yes"/>
			<point x="856.161" y="887.921"/>
			<point x="834.286" y="948.574"/>
			<point x="778.605" y="948.574" type="curve" smooth="yes"/>
			<point x="597.643" y="948.574"/>
			<point x="444.521" y="536.933"/>
			<point x="357.022" y="350.999" type="curve" smooth="yes"/>
			<point x="273.501" y="174.014"/>
			<point x="140.265" y="29.84"/>
			<point x="-32.744" y="29.84" type="curve" smooth="yes"/>
			<point x="-84.447" y="29.84"/>
			<point x="-120.242" y="43.761"/>
			<point x="-120.242" y="65.635" type="curve" smooth="yes"/>
			<point x="-120.242" y="82.538"/>
			<point x="-96.379" y="93.476"/>
			<point x="-58.595" y="93.476" type="curve" smooth="yes"/>
			<point x="161.145" y="93.476"/>
			<point x="358.016" y="-238.621"/>
		</contour>
	</outline>
</glyph>
<glyph name="M" format="2">
	<advance width="1236"/>
	<unicode hex="004D"/>
	<outline>
		<contour>
			<point x="828" y="925" type="curve"/>
			<point x="802" y="859"/>
			<point x="757" y="830"/>
			<point x="680" y="830" type="curve" smooth="yes"/>
			<point x="581" y="830"/>
			<point x="496" y="875"/>
			<point x="384" y="875" type="curve" smooth="yes"/>
			<point x="159" y="875"/>
			<point x="-33" y="696"/>
			<point x="-33" y="487" type="curve" smooth="yes"/>
			<point x="-33" y="349"/>
			<point x="63" y="245"/>
			<point x="193" y="245" type="curve" smooth="yes"/>
			<point x="344" y="245"/>
			<point x="486" y="384"/>
			<point x="486" y="530" type="curve" smooth="yes"/>
			<point x="486" y="623"/>
			<point x="427" y="688"/>
			<point x="343" y="688" type="curve" smooth="yes"/>
			<point x="244" y="688"/>
			<point x="150" y="600"/>
			<point x="150" y="510" type="curve" smooth="yes"/>
			<point x="150" y="484"/>
			<point x="155" y="464"/>
			<point x="177" y="441" type="curve"/>
			<point x="181" y="439"/>
			<point x="184" y="439"/>
			<point x="185" y="444" type="curve"/>
			<point x="169" y="463"/>
			<point x="165" y="485"/>
			<point x="165" y="508" type="curve" smooth="yes"/>
			<point x="165" y="596"/>
			<point x="248" y="678"/>
			<point x="340" y="678" type="curve" smooth="yes"/>
			<point x="416" y="678"/>
			<point x="465" y="621"/>
			<point x="465" y="533" type="curve" smooth="yes"/>
			<point x="465" y="386"/>
			<point x="336" y="254"/>
			<point x="193" y="254" type="curve" smooth="yes"/>
			<point x="72" y="254"/>
			<point x="-14" y="344"/>
			<point x="-14" y="470" type="curve" smooth="yes"/>
			<point x="-14" y="680"/>
			<point x="176" y="864"/>
			<point x="393" y="864" type="curve" smooth="yes"/>
			<point x="498" y="864"/>
			<point x="577" y="821"/>
			<point x="674" y="821" type="curve" smooth="yes"/>
			<point x="756" y="821"/>
			<point x="808" y="851"/>
			<point x="838" y="916" type="curve"/>
			<point x="839" y="923"/>
			<point x="835" y="928"/>
		</contour>
		<contour>
			<point x="45" y="-49" type="curve" smooth="yes"/>
			<point x="-36" y="-49"/>
			<point x="-86" y="-6"/>
			<point x="-86" y="60" type="curve" smooth="yes"/>
			<point x="-86" y="98"/>
			<point x="-67" y="130"/>
			<point x="-37" y="144" type="curve"/>
			<point x="-34" y="148"/>
			<point x="-36" y="150"/>
			<point x="-41" y="150" type="curve"/>
			<point x="-79" y="131"/>
			<point x="-102" y="99"/>
			<point x="-102" y="55" type="curve" smooth="yes"/>
			<point x="-102" y="-18"/>
			<point x="-43" y="-59"/>
			<point x="58" y="-59" type="curve" smooth="yes"/>
			<point x="287" y="-59"/>
			<point x="414" y="168"/>
			<point x="525" y="346" type="curve" smooth="yes"/>
			<point x="607" y="477"/>
			<point x="713" y="706"/>
			<point x="850" y="808" type="curve"/>
			<point x="812" y="730"/>
			<point x="805" y="601"/>
			<point x="805" y="501" type="curve" smooth="yes"/>
			<point x="805" y="437" type="line"/>
			<point x="726" y="345"/>
			<point x="538" y="110"/>
			<point x="538" y="-17" type="curve" smooth="yes"/>
			<point x="538" y="-74"/>
			<point x="566" y="-105"/>
			<point x="603" y="-105" type="curve" smooth="yes"/>
			<point x="684" y="-105"/>
			<point x="799" y="47"/>
			<point x="818" y="227" type="curve" smooth="yes"/>
			<point x="822" y="266"/>
			<point x="823" y="324"/>
			<point x="823" y="386" type="curve" smooth="yes"/>
			<point x="823" y="405"/>
			<point x="823" y="424"/>
			<point x="823" y="443" type="curve"/>
			<point x="1023" y="679"/>
			<point x="1287" y="909"/>
			<point x="1408" y="909" type="curve" smooth="yes"/>
			<point x="1415" y="909"/>
			<point x="1417" y="906"/>
			<point x="1417" y="903" type="curve" smooth="yes"/>
			<point x="1417" y="885"/>
			<point x="1377" y="845"/>
			<point x="1365" y="833" type="curve" smooth="yes"/>
			<point x="1185" y="653"/>
			<point x="946" y="248"/>
			<point x="946" y="-33" type="curve" smooth="yes"/>
			<point x="946" y="-120"/>
			<point x="983" y="-193"/>
			<point x="1072" y="-193" type="curve" smooth="yes"/>
			<point x="1162" y="-193"/>
			<point x="1189" y="-128"/>
			<point x="1189" y="-99" type="curve" smooth="yes"/>
			<point x="1189" y="-86"/>
			<point x="1184" y="-58"/>
			<point x="1159" y="-48" type="curve"/>
			<point x="1156" y="-49"/>
			<point x="1155" y="-51"/>
			<point x="1156" y="-54" type="curve"/>
			<point x="1172" y="-63"/>
			<point x="1178" y="-78"/>
			<point x="1178" y="-91" type="curve" smooth="yes"/>
			<point x="1178" y="-118"/>
			<point x="1154" y="-185"/>
			<point x="1072" y="-185" type="curve" smooth="yes"/>
			<point x="1002" y="-185"/>
			<point x="970" y="-119"/>
			<point x="970" y="-39" type="curve" smooth="yes"/>
			<point x="970" y="220"/>
			<point x="1203" y="659"/>
			<point x="1378" y="833" type="curve" smooth="yes"/>
			<point x="1395" y="850"/>
			<point x="1442" y="893"/>
			<point x="1442" y="912" type="curve" smooth="yes"/>
			<point x="1442" y="921"/>
			<point x="1436" y="925"/>
			<point x="1425" y="925" type="curve" smooth="yes"/>
			<point x="1295" y="925"/>
			<point x="1029" y="697"/>
			<point x="823" y="458" type="curve"/>
			<point x="822" y="497"/>
			<point x="822" y="531"/>
			<point x="822" y="568" type="curve" smooth="yes"/>
			<point x="822" y="661"/>
			<point x="835" y="762"/>
			<point x="869" y="821" type="curve"/>
			<point x="885" y="831"/>
			<point x="902" y="839"/>
			<point x="918" y="844" type="curve"/>
			<point x="947" y="855"/>
			<point x="962" y="869"/>
			<point x="962" y="878" type="curve" smooth="yes"/>
			<point x="962" y="886"/>
			<point x="957" y="890"/>
			<point x="947" y="890" type="curve" smooth="yes"/>
			<point x="907" y="890"/>
			<point x="879" y="858"/>
			<point x="859" y="826" type="curve"/>
			<point x="723" y="730"/>
			<point x="575" y="466"/>
			<point x="492" y="332" type="curve" smooth="yes"/>
			<point x="406" y="192"/>
			<point x="239" y="-49"/>
		</contour>
		<contour>
			<point x="933" y="879" type="curve" smooth="yes"/>
			<point x="936" y="879"/>
			<point x="937" y="878"/>
			<point x="938" y="875" type="curve"/>
			<point x="938" y="875"/>
			<point x="938" y="874"/>
			<point x="938" y="873" type="curve"/>
			<point x="938" y="870"/>
			<point x="930" y="862"/>
			<point x="919" y="857" type="curve" smooth="yes"/>
			<point x="907" y="852"/>
			<point x="893" y="845"/>
			<point x="880" y="838" type="curve"/>
			<point x="892" y="857"/>
			<point x="912" y="879"/>
		</contour>
		<contour>
			<point x="805" y="421" type="curve"/>
			<point x="804" y="359"/>
			<point x="801" y="292"/>
			<point x="800" y="281" type="curve" smooth="yes"/>
			<point x="788" y="83"/>
			<point x="675" y="-94"/>
			<point x="597" y="-94" type="curve" smooth="yes"/>
			<point x="570" y="-94"/>
			<point x="554" y="-75"/>
			<point x="554" y="-30" type="curve" smooth="yes"/>
			<point x="554" y="102"/>
			<point x="723" y="323"/>
		</contour>
	</outline>
</glyph>
<glyph name="N" format="2">
	<advance width="1064"/>
	<unicode hex="004E"/>
	<anchor x="1107" y="936" name="top"/>
	<outline>
		<contour>
			<point x="888.916" y="182.963" type="curve" smooth="yes"/>
			<point x="1028.118" y="520.03"/>
			<point x="1281.664" y="907.807"/>
			<point x="1476.547" y="907.807" type="curve" smooth="yes"/>
			<point x="1541.176" y="907.807"/>
			<point x="1565.04" y="877.978"/>
			<point x="1572.994" y="836.218" type="curve"/>
			<point x="1578.96" y="836.218" type="line"/>
			<point x="1580.948" y="843.178"/>
			<point x="1581.943" y="849.144"/>
			<point x="1581.943" y="854.115" type="curve"/>
			<point x="1580.948" y="892.893"/>
			<point x="1527.256" y="922.722"/>
			<point x="1457.655" y="922.722" type="curve" smooth="yes"/>
			<point x="1253.824" y="922.722"/>
			<point x="1008.232" y="503.127"/>
			<point x="880.961" y="188.928" type="curve" smooth="yes"/>
			<point x="858.092" y="131.259"/>
			<point x="838.206" y="75.578"/>
			<point x="825.28" y="30.835" type="curve" smooth="yes"/>
			<point x="820.309" y="13.932"/>
			<point x="815.337" y="-3.966"/>
			<point x="815.337" y="-14.903" type="curve" smooth="yes"/>
			<point x="815.337" y="-36.778"/>
			<point x="820.309" y="-45.726"/>
			<point x="832.241" y="-45.726" type="curve" smooth="yes"/>
			<point x="869.03" y="-45.726"/>
			<point x="899.853" y="27.852"/>
			<point x="899.853" y="120.322" type="curve" smooth="yes"/>
			<point x="899.853" y="308.244"/>
			<point x="786.503" y="477.275"/>
			<point x="784.514" y="665.198" type="curve"/>
			<point x="784.514" y="727.839"/>
			<point x="797.44" y="777.554"/>
			<point x="832.241" y="818.32" type="curve"/>
			<point x="847.155" y="829.258"/>
			<point x="865.052" y="838.206"/>
			<point x="881.956" y="845.166" type="curve" smooth="yes"/>
			<point x="898.859" y="852.127"/>
			<point x="925.705" y="868.035"/>
			<point x="925.705" y="880.961" type="curve"/>
			<point x="925.705" y="886.927"/>
			<point x="920.733" y="889.91"/>
			<point x="911.785" y="889.91" type="curve" smooth="yes"/>
			<point x="869.03" y="889.91"/>
			<point x="825.28" y="844.172"/>
			<point x="804.4" y="810.366" type="curve"/>
			<point x="688.067" y="704.97"/>
			<point x="615.483" y="476.281"/>
			<point x="552.842" y="348.016" type="curve" smooth="yes"/>
			<point x="473.298" y="185.946"/>
			<point x="331.113" y="-48.709"/>
			<point x="135.236" y="-48.709" type="curve" smooth="yes"/>
			<point x="55.692" y="-48.709"/>
			<point x="4.983" y="-4.96"/>
			<point x="3.989" y="60.664" type="curve"/>
			<point x="3.989" y="98.447"/>
			<point x="21.886" y="129.27"/>
			<point x="52.709" y="144.185" type="curve"/>
			<point x="54.698" y="148.162"/>
			<point x="53.704" y="150.151"/>
			<point x="47.738" y="150.151" type="curve"/>
			<point x="8.96" y="132.253"/>
			<point x="-11.92" y="99.441"/>
			<point x="-11.92" y="55.692" type="curve"/>
			<point x="-10.926" y="-17.886"/>
			<point x="46.744" y="-58.652"/>
			<point x="149.156" y="-58.652" type="curve" smooth="yes"/>
			<point x="377.845" y="-58.652"/>
			<point x="490.201" y="164.071"/>
			<point x="577.7" y="346.028" type="curve" smooth="yes"/>
			<point x="638.352" y="470.315"/>
			<point x="685.084" y="675.141"/>
			<point x="794.457" y="788.491" type="curve"/>
			<point x="774.571" y="746.731"/>
			<point x="768.605" y="697.016"/>
			<point x="768.605" y="647.301" type="curve" smooth="yes"/>
			<point x="768.605" y="459.378"/>
			<point x="875.99" y="287.364"/>
			<point x="875.99" y="100.436" type="curve" smooth="yes"/>
			<point x="875.99" y="40.778"/>
			<point x="853.121" y="-28.823"/>
			<point x="833.235" y="-28.823" type="curve" smooth="yes"/>
			<point x="828.263" y="-28.823"/>
			<point x="825.28" y="-22.858"/>
			<point x="825.28" y="-12.915" type="curve" smooth="yes"/>
			<point x="825.28" y="-3.966"/>
			<point x="828.263" y="9.954"/>
			<point x="833.235" y="27.852" type="curve" smooth="yes"/>
			<point x="847.155" y="75.578"/>
			<point x="874.001" y="147.168"/>
		</contour>
		<contour>
			<point x="898.859" y="877.978" type="curve" smooth="yes"/>
			<point x="901.842" y="877.978"/>
			<point x="904.824" y="876.984"/>
			<point x="904.824" y="874.001" type="curve"/>
			<point x="904.824" y="870.024"/>
			<point x="891.899" y="861.075"/>
			<point x="880.961" y="856.104" type="curve" smooth="yes"/>
			<point x="867.041" y="849.144"/>
			<point x="851.132" y="842.184"/>
			<point x="837.212" y="832.241" type="curve"/>
			<point x="851.132" y="852.127"/>
			<point x="874.001" y="877.978"/>
		</contour>
		<contour>
			<point x="812.355" y="916.756" type="curve"/>
			<point x="801.417" y="925.705" type="line"/>
			<point x="775.565" y="860.081"/>
			<point x="730.822" y="830.252"/>
			<point x="653.267" y="830.252" type="curve" smooth="yes"/>
			<point x="555.825" y="830.252"/>
			<point x="484.236" y="869.03"/>
			<point x="374.863" y="869.03" type="curve" smooth="yes"/>
			<point x="154.128" y="869.03"/>
			<point x="-34.789" y="693.039"/>
			<point x="-34.789" y="487.218" type="curve" smooth="yes"/>
			<point x="-34.789" y="349.011"/>
			<point x="61.658" y="245.604"/>
			<point x="190.917" y="245.604" type="curve" smooth="yes"/>
			<point x="342.051" y="245.604"/>
			<point x="484.236" y="383.811"/>
			<point x="484.236" y="529.973" type="curve" smooth="yes"/>
			<point x="484.236" y="623.438"/>
			<point x="425.572" y="688.067"/>
			<point x="341.056" y="688.067" type="curve" smooth="yes"/>
			<point x="242.621" y="688.067"/>
			<point x="148.162" y="600.569"/>
			<point x="148.162" y="510.087" type="curve" smooth="yes"/>
			<point x="148.162" y="488.213"/>
			<point x="154.128" y="473.298"/>
			<point x="170.037" y="450.429" type="curve"/>
			<point x="175.008" y="448.441"/>
			<point x="176.997" y="449.435"/>
			<point x="178.985" y="454.407" type="curve"/>
			<point x="169.042" y="472.304"/>
			<point x="163.077" y="489.207"/>
			<point x="163.077" y="508.099" type="curve" smooth="yes"/>
			<point x="163.077" y="596.591"/>
			<point x="246.598" y="678.124"/>
			<point x="338.073" y="678.124" type="curve" smooth="yes"/>
			<point x="414.635" y="678.124"/>
			<point x="463.355" y="621.449"/>
			<point x="463.355" y="532.956" type="curve" smooth="yes"/>
			<point x="463.355" y="385.8"/>
			<point x="334.096" y="254.552"/>
			<point x="190.917" y="254.552" type="curve" smooth="yes"/>
			<point x="70.607" y="254.552"/>
			<point x="-15.897" y="344.039"/>
			<point x="-15.897" y="470.315" type="curve" smooth="yes"/>
			<point x="-15.897" y="677.13"/>
			<point x="171.031" y="858.092"/>
			<point x="383.811" y="858.092" type="curve" smooth="yes"/>
			<point x="487.218" y="858.092"/>
			<point x="551.848" y="821.303"/>
			<point x="647.301" y="821.303" type="curve" smooth="yes"/>
			<point x="729.828" y="821.303"/>
			<point x="781.531" y="851.132"/>
		</contour>
	</outline>
</glyph>
<glyph name="O" format="2">
	<advance width="852"/>
	<unicode hex="004F"/>
	<anchor x="713" y="998" name="top"/>
	<outline>
		<contour>
			<point x="632.386" y="874.001" type="curve" smooth="yes"/>
			<point x="765.622" y="874.001"/>
			<point x="845.166" y="782.526"/>
			<point x="845.166" y="627.415" type="curve" smooth="yes"/>
			<point x="845.166" y="321.17"/>
			<point x="542.899" y="-26.835"/>
			<point x="277.421" y="-26.835" type="curve" smooth="yes"/>
			<point x="120.322" y="-26.835"/>
			<point x="15.92" y="93.476"/>
			<point x="15.92" y="274.438" type="curve" smooth="yes"/>
			<point x="15.92" y="588.637"/>
			<point x="333.102" y="936.642"/>
			<point x="618.466" y="936.642" type="curve"/>
			<point x="621.449" y="939.625"/>
			<point x="619.46" y="943.602"/>
			<point x="614.489" y="944.596" type="curve"/>
			<point x="311.227" y="944.596"/>
			<point x="0.011" y="611.506"/>
			<point x="0.011" y="288.358" type="curve" smooth="yes"/>
			<point x="0.011" y="91.487"/>
			<point x="114.356" y="-38.766"/>
			<point x="288.358" y="-38.766" type="curve" smooth="yes"/>
			<point x="565.768" y="-38.766"/>
			<point x="860.081" y="295.319"/>
			<point x="860.081" y="609.517" type="curve" smooth="yes"/>
			<point x="860.081" y="781.531"/>
			<point x="773.577" y="882.95"/>
			<point x="627.415" y="882.95" type="curve" smooth="yes"/>
			<point x="432.532" y="882.95"/>
			<point x="249.581" y="702.982"/>
			<point x="249.581" y="513.07" type="curve" smooth="yes"/>
			<point x="249.581" y="400.714"/>
			<point x="312.222" y="327.136"/>
			<point x="408.669" y="327.136" type="curve" smooth="yes"/>
			<point x="523.013" y="327.136"/>
			<point x="635.369" y="431.538"/>
			<point x="635.369" y="536.933" type="curve" smooth="yes"/>
			<point x="635.369" y="563.78"/>
			<point x="628.409" y="585.654"/>
			<point x="611.506" y="609.517" type="curve"/>
			<point x="606.534" y="610.512"/>
			<point x="603.552" y="607.529"/>
			<point x="603.552" y="603.552" type="curve"/>
			<point x="614.489" y="583.666"/>
			<point x="619.46" y="564.774"/>
			<point x="619.46" y="542.899" type="curve" smooth="yes"/>
			<point x="619.46" y="436.509"/>
			<point x="518.042" y="336.085"/>
			<point x="409.663" y="336.085" type="curve" smooth="yes"/>
			<point x="322.165" y="336.085"/>
			<point x="267.478" y="401.709"/>
			<point x="267.478" y="507.104" type="curve" smooth="yes"/>
			<point x="267.478" y="698.01"/>
			<point x="443.469" y="874.001"/>
		</contour>
	</outline>
</glyph>
<glyph name="P" format="2">
	<advance width="816"/>
	<unicode hex="0050"/>
	<outline>
		<contour>
			<point x="504" y="927" type="curve" smooth="yes"/>
			<point x="669" y="927"/>
			<point x="850" y="828"/>
			<point x="850" y="643" type="curve" smooth="yes"/>
			<point x="850" y="497"/>
			<point x="731" y="349"/>
			<point x="588" y="349" type="curve" smooth="yes"/>
			<point x="558" y="349"/>
			<point x="525" y="362"/>
			<point x="526" y="379" type="curve"/>
			<point x="526" y="384"/>
			<point x="520" y="383"/>
			<point x="519" y="379" type="curve"/>
			<point x="518" y="357"/>
			<point x="554" y="341"/>
			<point x="588" y="341" type="curve" smooth="yes"/>
			<point x="742" y="341"/>
			<point x="872" y="487"/>
			<point x="872" y="639" type="curve" smooth="yes"/>
			<point x="872" y="835"/>
			<point x="669" y="935"/>
			<point x="498" y="935" type="curve" smooth="yes"/>
			<point x="166" y="935"/>
			<point x="-86" y="674"/>
			<point x="-86" y="452" type="curve" smooth="yes"/>
			<point x="-86" y="310"/>
			<point x="2" y="208"/>
			<point x="121" y="208" type="curve" smooth="yes"/>
			<point x="268" y="208"/>
			<point x="408" y="343"/>
			<point x="408" y="485" type="curve" smooth="yes"/>
			<point x="408" y="573"/>
			<point x="350" y="638"/>
			<point x="268" y="638" type="curve" smooth="yes"/>
			<point x="174" y="638"/>
			<point x="87" y="558"/>
			<point x="87" y="474" type="curve" smooth="yes"/>
			<point x="87" y="451"/>
			<point x="93" y="428"/>
			<point x="107" y="403" type="curve"/>
			<point x="111" y="400"/>
			<point x="115" y="401"/>
			<point x="116" y="406" type="curve"/>
			<point x="107" y="424"/>
			<point x="101" y="447"/>
			<point x="101" y="469" type="curve" smooth="yes"/>
			<point x="101" y="554"/>
			<point x="179" y="629"/>
			<point x="265" y="629" type="curve" smooth="yes"/>
			<point x="340" y="629"/>
			<point x="391" y="571"/>
			<point x="391" y="487" type="curve" smooth="yes"/>
			<point x="391" y="345"/>
			<point x="262" y="216"/>
			<point x="120" y="216" type="curve" smooth="yes"/>
			<point x="7" y="216"/>
			<point x="-71" y="306"/>
			<point x="-71" y="437" type="curve" smooth="yes"/>
			<point x="-71" y="655"/>
			<point x="177" y="927"/>
		</contour>
		<contour>
			<point x="913" y="954" type="curve"/>
			<point x="913" y="967" type="line"/>
			<point x="743" y="967"/>
			<point x="506" y="473"/>
			<point x="429" y="318" type="curve" smooth="yes"/>
			<point x="364" y="191"/>
			<point x="229" y="-19"/>
			<point x="64" y="-19" type="curve" smooth="yes"/>
			<point x="-16" y="-19"/>
			<point x="-66" y="25"/>
			<point x="-67" y="91" type="curve"/>
			<point x="-67" y="129"/>
			<point x="-49" y="159"/>
			<point x="-19" y="174" type="curve"/>
			<point x="-16" y="178"/>
			<point x="-18" y="180"/>
			<point x="-23" y="180" type="curve"/>
			<point x="-62" y="162"/>
			<point x="-83" y="130"/>
			<point x="-83" y="86" type="curve" smooth="yes"/>
			<point x="-83" y="13"/>
			<point x="-24" y="-29"/>
			<point x="78" y="-29" type="curve" smooth="yes"/>
			<point x="271" y="-29"/>
			<point x="388" y="180"/>
			<point x="463" y="339" type="curve"/>
			<point x="551" y="521"/>
			<point x="650" y="735"/>
			<point x="782" y="882" type="curve" smooth="yes"/>
			<point x="818" y="923"/>
			<point x="863" y="954"/>
		</contour>
	</outline>
</glyph>
<glyph name="Q" format="2">
	<advance width="917"/>
	<unicode hex="0051"/>
	<outline>
		<contour>
			<point x="750" y="-237" type="curve" smooth="yes"/>
			<point x="621" y="-237"/>
			<point x="480" y="-179"/>
			<point x="307" y="-52" type="curve"/>
			<point x="584" y="-40"/>
			<point x="872" y="258"/>
			<point x="872" y="567" type="curve" smooth="yes"/>
			<point x="872" y="784"/>
			<point x="738" y="934"/>
			<point x="545" y="934" type="curve" smooth="yes"/>
			<point x="290" y="934"/>
			<point x="45" y="706"/>
			<point x="45" y="465" type="curve" smooth="yes"/>
			<point x="45" y="304"/>
			<point x="150" y="190"/>
			<point x="298" y="190" type="curve" smooth="yes"/>
			<point x="476" y="190"/>
			<point x="641" y="345"/>
			<point x="641" y="513" type="curve" smooth="yes"/>
			<point x="641" y="613"/>
			<point x="582" y="681"/>
			<point x="494" y="681" type="curve" smooth="yes"/>
			<point x="395" y="681"/>
			<point x="304" y="595"/>
			<point x="304" y="504" type="curve" smooth="yes"/>
			<point x="304" y="475"/>
			<point x="313" y="451"/>
			<point x="332" y="428" type="curve"/>
			<point x="337" y="428"/>
			<point x="339" y="430"/>
			<point x="338" y="434" type="curve"/>
			<point x="325" y="452"/>
			<point x="319" y="476"/>
			<point x="319" y="501" type="curve" smooth="yes"/>
			<point x="319" y="591"/>
			<point x="400" y="673"/>
			<point x="490" y="673" type="curve" smooth="yes"/>
			<point x="571" y="673"/>
			<point x="623" y="610"/>
			<point x="623" y="515" type="curve" smooth="yes"/>
			<point x="623" y="348"/>
			<point x="470" y="198"/>
			<point x="299" y="198" type="curve" smooth="yes"/>
			<point x="159" y="198"/>
			<point x="60" y="305"/>
			<point x="60" y="455" type="curve" smooth="yes"/>
			<point x="60" y="690"/>
			<point x="304" y="920"/>
			<point x="552" y="920" type="curve" smooth="yes"/>
			<point x="732" y="920"/>
			<point x="850" y="788"/>
			<point x="850" y="586" type="curve" smooth="yes"/>
			<point x="850" y="283"/>
			<point x="572" y="-36"/>
			<point x="296" y="-44" type="curve"/>
			<point x="200" y="14"/>
			<point x="79" y="114"/>
			<point x="-38" y="114" type="curve" smooth="yes"/>
			<point x="-78" y="114"/>
			<point x="-102" y="102"/>
			<point x="-102" y="81" type="curve" smooth="yes"/>
			<point x="-102" y="11"/>
			<point x="84" y="-52"/>
			<point x="289" y="-52" type="curve"/>
			<point x="289" y="-52"/>
			<point x="291" y="-52"/>
			<point x="291" y="-52" type="curve"/>
			<point x="493" y="-193"/>
			<point x="641" y="-257"/>
			<point x="771" y="-257" type="curve" smooth="yes"/>
			<point x="915" y="-257"/>
			<point x="1039" y="-170"/>
			<point x="1039" y="-76" type="curve" smooth="yes"/>
			<point x="1039" y="-67"/>
			<point x="1038" y="-57"/>
			<point x="1035" y="-47" type="curve"/>
			<point x="1031" y="-47"/>
			<point x="1029" y="-47"/>
			<point x="1027" y="-51" type="curve"/>
			<point x="1029" y="-58"/>
			<point x="1030" y="-65"/>
			<point x="1030" y="-72" type="curve" smooth="yes"/>
			<point x="1030" y="-156"/>
			<point x="897" y="-237"/>
		</contour>
		<contour>
			<point x="-45" y="97" type="curve" smooth="yes"/>
			<point x="38" y="97"/>
			<point x="166" y="27"/>
			<point x="279" y="-44" type="curve"/>
			<point x="86" y="-43"/>
			<point x="-89" y="16"/>
			<point x="-89" y="78" type="curve" smooth="yes"/>
			<point x="-89" y="90"/>
			<point x="-73" y="97"/>
		</contour>
	</outline>
</glyph>
<glyph name="R" format="2">
	<advance width="856"/>
	<unicode hex="0052"/>
	<anchor x="793" y="998" name="top"/>
	<outline>
		<contour>
			<point x="62.624" y="-30.812" type="curve" smooth="yes"/>
			<point x="-16.92" y="-30.812"/>
			<point x="-68.624" y="12.937"/>
			<point x="-69.618" y="78.561" type="curve"/>
			<point x="-69.618" y="116.345"/>
			<point x="-51.721" y="147.168"/>
			<point x="-20.897" y="162.082" type="curve"/>
			<point x="-18.909" y="166.06"/>
			<point x="-19.903" y="168.048"/>
			<point x="-25.869" y="168.048" type="curve"/>
			<point x="-64.647" y="150.151"/>
			<point x="-85.527" y="117.339"/>
			<point x="-85.527" y="73.59" type="curve"/>
			<point x="-84.533" y="0.011"/>
			<point x="-25.869" y="-40.755"/>
			<point x="76.544" y="-40.755" type="curve" smooth="yes"/>
			<point x="273.415" y="-40.755"/>
			<point x="388.754" y="147.168"/>
			<point x="469.293" y="307.25" type="curve"/>
			<point x="551.819" y="474.293"/>
			<point x="654.232" y="699.004"/>
			<point x="765.594" y="840.195" type="curve"/>
			<point x="828.235" y="785.508"/>
			<point x="866.018" y="707.953"/>
			<point x="866.018" y="624.432" type="curve" smooth="yes"/>
			<point x="866.018" y="472.304"/>
			<point x="737.754" y="316.199"/>
			<point x="578.666" y="316.199" type="curve"/>
			<point x="576.677" y="307.25" type="line"/>
			<point x="693.01" y="267.478"/>
			<point x="604.517" y="-131.236"/>
			<point x="724.828" y="-250.552" type="curve" smooth="yes"/>
			<point x="741.731" y="-266.461"/>
			<point x="766.588" y="-281.376"/>
			<point x="795.423" y="-281.376" type="curve" smooth="yes"/>
			<point x="815.309" y="-281.376"/>
			<point x="837.184" y="-274.415"/>
			<point x="860.052" y="-252.541" type="curve"/>
			<point x="861.047" y="-247.569"/>
			<point x="859.058" y="-246.575"/>
			<point x="855.081" y="-246.575" type="curve"/>
			<point x="839.172" y="-263.478"/>
			<point x="817.298" y="-272.427"/>
			<point x="796.417" y="-272.427" type="curve" smooth="yes"/>
			<point x="772.554" y="-272.427"/>
			<point x="747.697" y="-262.484"/>
			<point x="730.793" y="-242.598" type="curve" smooth="yes"/>
			<point x="673.124" y="-175.98"/>
			<point x="677.101" y="-38.766"/>
			<point x="671.135" y="68.618" type="curve" smooth="yes"/>
			<point x="665.17" y="166.06"/>
			<point x="662.187" y="260.518"/>
			<point x="601.534" y="303.273" type="curve" smooth="yes"/>
			<point x="599.546" y="305.262"/>
			<point x="601.534" y="307.25"/>
			<point x="604.517" y="308.244" type="curve"/>
			<point x="760.622" y="322.165"/>
			<point x="889.881" y="469.321"/>
			<point x="889.881" y="620.455" type="curve" smooth="yes"/>
			<point x="889.881" y="712.925"/>
			<point x="843.149" y="793.463"/>
			<point x="773.548" y="851.132" type="curve"/>
			<point x="813.32" y="898.859"/>
			<point x="878.944" y="955.534"/>
			<point x="937.608" y="955.534" type="curve"/>
			<point x="937.608" y="968.46" type="line"/>
			<point x="884.91" y="968.46"/>
			<point x="824.258" y="923.716"/>
			<point x="765.594" y="855.109" type="curve"/>
			<point x="698.976" y="903.83"/>
			<point x="610.483" y="935.648"/>
			<point x="506.082" y="935.648" type="curve" smooth="yes"/>
			<point x="180.946" y="935.648"/>
			<point x="-74.59" y="671.164"/>
			<point x="-74.59" y="444.464" type="curve" smooth="yes"/>
			<point x="-74.59" y="319.182"/>
			<point x="-1.011" y="194.894"/>
			<point x="138.191" y="194.894" type="curve" smooth="yes"/>
			<point x="284.353" y="194.894"/>
			<point x="421.566" y="328.13"/>
			<point x="421.566" y="469.321" type="curve" smooth="yes"/>
			<point x="421.566" y="552.842"/>
			<point x="369.863" y="624.432"/>
			<point x="280.376" y="624.432" type="curve" smooth="yes"/>
			<point x="186.911" y="624.432"/>
			<point x="101.402" y="545.882"/>
			<point x="101.402" y="462.361" type="curve" smooth="yes"/>
			<point x="101.402" y="438.498"/>
			<point x="107.367" y="415.629"/>
			<point x="121.288" y="389.777" type="curve"/>
			<point x="125.265" y="387.788"/>
			<point x="129.242" y="388.783"/>
			<point x="130.236" y="393.754" type="curve"/>
			<point x="120.293" y="412.646"/>
			<point x="115.322" y="434.521"/>
			<point x="115.322" y="457.389" type="curve" smooth="yes"/>
			<point x="115.322" y="540.911"/>
			<point x="191.883" y="616.477"/>
			<point x="277.393" y="616.477" type="curve" smooth="yes"/>
			<point x="360.914" y="616.477"/>
			<point x="404.663" y="548.865"/>
			<point x="404.663" y="471.31" type="curve" smooth="yes"/>
			<point x="404.663" y="330.119"/>
			<point x="278.387" y="202.849"/>
			<point x="137.196" y="202.849" type="curve" smooth="yes"/>
			<point x="10.92" y="202.849"/>
			<point x="-56.692" y="312.222"/>
			<point x="-56.692" y="428.555" type="curve" smooth="yes"/>
			<point x="-56.692" y="651.278"/>
			<point x="192.877" y="926.699"/>
			<point x="512.047" y="926.699" type="curve" smooth="yes"/>
			<point x="615.455" y="926.699"/>
			<point x="697.982" y="893.887"/>
			<point x="758.634" y="845.166" type="curve"/>
			<point x="651.249" y="714.913"/>
			<point x="540.882" y="495.173"/>
			<point x="458.355" y="334.096" type="curve" smooth="yes"/>
			<point x="385.771" y="194.894"/>
			<point x="247.564" y="-30.812"/>
		</contour>
	</outline>
</glyph>
<glyph name="S" format="2">
	<advance width="765"/>
	<unicode hex="0053"/>
	<anchor x="865" y="998" name="top"/>
	<outline>
		<contour>
			<point x="386.794" y="837.212" type="curve"/>
			<point x="327.136" y="838.206"/>
			<point x="284.381" y="776.56"/>
			<point x="284.381" y="709.942" type="curve" smooth="yes"/>
			<point x="284.381" y="573.723"/>
			<point x="414.635" y="510.087"/>
			<point x="533.951" y="510.087" type="curve" smooth="yes"/>
			<point x="582.671" y="510.087"/>
			<point x="635.369" y="520.03"/>
			<point x="677.13" y="538.922" type="curve"/>
			<point x="670.17" y="424.578"/>
			<point x="661.221" y="304.267"/>
			<point x="620.455" y="206.826" type="curve" smooth="yes"/>
			<point x="552.842" y="46.744"/>
			<point x="408.669" y="-59.647"/>
			<point x="252.564" y="-59.647" type="curve" smooth="yes"/>
			<point x="96.459" y="-59.647"/>
			<point x="-22.858" y="50.721"/>
			<point x="-22.858" y="208.814" type="curve" smooth="yes"/>
			<point x="-22.858" y="360.942"/>
			<point x="101.43" y="497.161"/>
			<point x="241.626" y="497.161" type="curve" smooth="yes"/>
			<point x="332.108" y="497.161"/>
			<point x="413.64" y="437.503"/>
			<point x="413.64" y="341.056" type="curve" smooth="yes"/>
			<point x="413.64" y="255.547"/>
			<point x="342.051" y="174.014"/>
			<point x="265.49" y="174.014" type="curve" smooth="yes"/>
			<point x="217.763" y="174.014"/>
			<point x="177.991" y="206.826"/>
			<point x="176.997" y="245.604" type="curve"/>
			<point x="175.008" y="247.592"/>
			<point x="171.031" y="246.598"/>
			<point x="169.042" y="241.626" type="curve"/>
			<point x="171.031" y="196.883"/>
			<point x="215.775" y="163.077"/>
			<point x="270.461" y="163.077" type="curve" smooth="yes"/>
			<point x="355.971" y="163.077"/>
			<point x="432.532" y="246.598"/>
			<point x="432.532" y="337.079" type="curve" smooth="yes"/>
			<point x="432.532" y="444.464"/>
			<point x="341.056" y="506.11"/>
			<point x="241.626" y="506.11" type="curve" smooth="yes"/>
			<point x="88.504" y="506.11"/>
			<point x="-43.738" y="368.897"/>
			<point x="-43.738" y="212.792" type="curve" smooth="yes"/>
			<point x="-43.738" y="42.766"/>
			<point x="93.476" y="-68.595"/>
			<point x="256.541" y="-68.595" type="curve" smooth="yes"/>
			<point x="412.646" y="-68.595"/>
			<point x="565.768" y="31.829"/>
			<point x="644.318" y="193.9" type="curve" smooth="yes"/>
			<point x="688.067" y="284.381"/>
			<point x="692.044" y="383.811"/>
			<point x="693.039" y="485.23" type="curve"/>
			<point x="694.033" y="506.11"/>
			<point x="694.033" y="527.985"/>
			<point x="695.027" y="547.871" type="curve"/>
			<point x="810.366" y="606.534"/>
			<point x="899.853" y="739.771"/>
			<point x="899.853" y="850.138" type="curve" smooth="yes"/>
			<point x="899.853" y="903.83"/>
			<point x="877.978" y="938.631"/>
			<point x="845.166" y="938.631" type="curve" smooth="yes"/>
			<point x="810.366" y="938.631"/>
			<point x="771.588" y="907.807"/>
			<point x="742.754" y="856.104" type="curve" smooth="yes"/>
			<point x="706.959" y="792.469"/>
			<point x="689.061" y="710.936"/>
			<point x="678.124" y="552.842" type="curve"/>
			<point x="636.363" y="530.968"/>
			<point x="588.637" y="519.036"/>
			<point x="541.905" y="519.036" type="curve" smooth="yes"/>
			<point x="423.583" y="519.036"/>
			<point x="302.279" y="591.62"/>
			<point x="302.279" y="720.879" type="curve" smooth="yes"/>
			<point x="302.279" y="777.554"/>
			<point x="336.085" y="830.252"/>
			<point x="386.794" y="829.258" type="curve"/>
			<point x="388.783" y="832.241"/>
			<point x="387.788" y="835.223"/>
		</contour>
		<contour>
			<point x="752.697" y="846.161" type="curve" smooth="yes"/>
			<point x="781.531" y="897.864"/>
			<point x="817.326" y="930.676"/>
			<point x="847.155" y="930.676" type="curve" smooth="yes"/>
			<point x="870.024" y="930.676"/>
			<point x="884.938" y="904.824"/>
			<point x="884.938" y="862.07" type="curve" smooth="yes"/>
			<point x="884.938" y="750.708"/>
			<point x="802.412" y="621.449"/>
			<point x="695.027" y="562.785" type="curve"/>
			<point x="701.987" y="701.987"/>
			<point x="715.907" y="780.537"/>
		</contour>
	</outline>
</glyph>
<glyph name="T" format="2">
	<advance width="637"/>
	<unicode hex="0054"/>
	<anchor x="900" y="971" name="top"/>
	<outline>
		<contour>
			<point x="76.573" y="-57.658" type="curve" smooth="yes"/>
			<point x="293.33" y="-57.658"/>
			<point x="408.669" y="164.071"/>
			<point x="493.184" y="337.079" type="curve" smooth="yes"/>
			<point x="568.751" y="493.184"/>
			<point x="669.175" y="744.742"/>
			<point x="824.286" y="781.531" type="curve"/>
			<point x="824.286" y="798.434" type="line"/>
			<point x="663.21" y="745.736"/>
			<point x="540.911" y="480.258"/>
			<point x="459.378" y="316.199" type="curve"/>
			<point x="386.794" y="176.997"/>
			<point x="246.598" y="-47.715"/>
			<point x="62.652" y="-47.715" type="curve" smooth="yes"/>
			<point x="-22.858" y="-47.715"/>
			<point x="-76.55" y="-5.954"/>
			<point x="-76.55" y="60.664" type="curve" smooth="yes"/>
			<point x="-76.55" y="99.441"/>
			<point x="-55.669" y="130.265"/>
			<point x="-19.875" y="147.168" type="curve"/>
			<point x="-18.88" y="151.145"/>
			<point x="-20.869" y="153.134"/>
			<point x="-25.84" y="153.134" type="curve"/>
			<point x="-64.618" y="134.242"/>
			<point x="-85.498" y="102.424"/>
			<point x="-85.498" y="59.669" type="curve" smooth="yes"/>
			<point x="-85.498" y="-13.909"/>
			<point x="-25.84" y="-57.658"/>
		</contour>
		<contour>
			<point x="1175.274" y="797.44" type="curve" smooth="yes"/>
			<point x="924.71" y="797.44"/>
			<point x="744.742" y="959.511"/>
			<point x="477.275" y="959.511" type="curve" smooth="yes"/>
			<point x="180.974" y="959.511"/>
			<point x="-66.607" y="764.628"/>
			<point x="-66.607" y="532.956" type="curve" smooth="yes"/>
			<point x="-66.607" y="393.754"/>
			<point x="20.892" y="293.33"/>
			<point x="143.191" y="293.33" type="curve" smooth="yes"/>
			<point x="292.336" y="293.33"/>
			<point x="433.526" y="427.56"/>
			<point x="433.526" y="570.74" type="curve" smooth="yes"/>
			<point x="433.526" y="660.227"/>
			<point x="374.863" y="722.868"/>
			<point x="290.347" y="722.868" type="curve" smooth="yes"/>
			<point x="194.894" y="722.868"/>
			<point x="101.43" y="643.324"/>
			<point x="101.43" y="562.785" type="curve" smooth="yes"/>
			<point x="101.43" y="541.905"/>
			<point x="107.396" y="524.008"/>
			<point x="121.316" y="504.122" type="curve"/>
			<point x="126.288" y="500.144"/>
			<point x="130.265" y="502.133"/>
			<point x="130.265" y="507.104" type="curve"/>
			<point x="121.316" y="521.025"/>
			<point x="115.35" y="538.922"/>
			<point x="115.35" y="557.814" type="curve" smooth="yes"/>
			<point x="115.35" y="639.346"/>
			<point x="196.883" y="714.913"/>
			<point x="286.37" y="714.913" type="curve" smooth="yes"/>
			<point x="364.92" y="714.913"/>
			<point x="416.623" y="659.232"/>
			<point x="416.623" y="573.723" type="curve" smooth="yes"/>
			<point x="416.623" y="429.549"/>
			<point x="287.364" y="301.284"/>
			<point x="143.191" y="301.284" type="curve" smooth="yes"/>
			<point x="25.863" y="301.284"/>
			<point x="-53.681" y="389.777"/>
			<point x="-53.681" y="520.03" type="curve" smooth="yes"/>
			<point x="-53.681" y="748.719"/>
			<point x="198.871" y="948.574"/>
			<point x="488.213" y="948.574" type="curve" smooth="yes"/>
			<point x="744.742" y="948.574"/>
			<point x="926.699" y="789.486"/>
			<point x="1176.268" y="789.486" type="curve" smooth="yes"/>
			<point x="1251.835" y="789.486"/>
			<point x="1302.544" y="804.4"/>
			<point x="1345.299" y="836.218" type="curve"/>
			<point x="1346.294" y="840.195"/>
			<point x="1344.305" y="843.178"/>
			<point x="1341.322" y="843.178" type="curve"/>
			<point x="1298.567" y="812.355"/>
			<point x="1247.858" y="797.44"/>
		</contour>
	</outline>
</glyph>
<glyph name="U" format="2">
	<advance width="895"/>
	<unicode hex="0055"/>
	<anchor x="992" y="971" name="top"/>
	<outline>
		<contour>
			<point x="654.261" y="-58.652" type="curve" smooth="yes"/>
			<point x="654.261" y="11.943"/>
			<point x="679.118" y="100.436"/>
			<point x="709.942" y="177.991" type="curve" smooth="yes"/>
			<point x="853.121" y="539.916"/>
			<point x="1068.884" y="937.636"/>
			<point x="1283.653" y="937.636" type="curve" smooth="yes"/>
			<point x="1333.368" y="937.636"/>
			<point x="1372.145" y="914.767"/>
			<point x="1381.094" y="873.007" type="curve"/>
			<point x="1381.094" y="873.007"/>
			<point x="1384.077" y="873.007"/>
			<point x="1385.071" y="873.007" type="curve"/>
			<point x="1388.054" y="879.967"/>
			<point x="1389.049" y="884.938"/>
			<point x="1389.049" y="889.91" type="curve" smooth="yes"/>
			<point x="1389.049" y="927.693"/>
			<point x="1339.334" y="947.579"/>
			<point x="1290.613" y="947.579" type="curve" smooth="yes"/>
			<point x="1106.667" y="947.579"/>
			<point x="904.824" y="664.204"/>
			<point x="763.634" y="362.931" type="curve"/>
			<point x="699.999" y="243.615"/>
			<point x="523.013" y="2"/>
			<point x="402.703" y="2" type="curve" smooth="yes"/>
			<point x="338.073" y="2"/>
			<point x="315.205" y="46.744"/>
			<point x="315.205" y="98.447" type="curve" smooth="yes"/>
			<point x="315.205" y="194.894"/>
			<point x="385.8" y="336.085"/>
			<point x="479.264" y="503.127" type="curve" smooth="yes"/>
			<point x="539.916" y="611.506"/>
			<point x="646.306" y="738.776"/>
			<point x="720.879" y="789.486" type="curve"/>
			<point x="750.708" y="810.366"/>
			<point x="787.497" y="826.275"/>
			<point x="787.497" y="855.109" type="curve" smooth="yes"/>
			<point x="787.497" y="932.665"/>
			<point x="607.529" y="975.42"/>
			<point x="469.321" y="975.42" type="curve" smooth="yes"/>
			<point x="235.661" y="975.42"/>
			<point x="-30.812" y="834.229"/>
			<point x="-30.812" y="593.609" type="curve" smooth="yes"/>
			<point x="-30.812" y="495.173"/>
			<point x="26.858" y="384.806"/>
			<point x="154.128" y="384.806" type="curve" smooth="yes"/>
			<point x="282.393" y="384.806"/>
			<point x="407.674" y="497.161"/>
			<point x="407.674" y="630.398" type="curve" smooth="yes"/>
			<point x="407.674" y="715.907"/>
			<point x="346.028" y="759.657"/>
			<point x="277.421" y="759.657" type="curve" smooth="yes"/>
			<point x="189.923" y="759.657"/>
			<point x="106.402" y="687.073"/>
			<point x="106.402" y="614.489" type="curve" smooth="yes"/>
			<point x="106.402" y="593.609"/>
			<point x="113.362" y="573.723"/>
			<point x="124.299" y="555.825" type="curve"/>
			<point x="128.276" y="552.842"/>
			<point x="131.259" y="554.831"/>
			<point x="131.259" y="558.808" type="curve"/>
			<point x="123.305" y="575.711"/>
			<point x="120.322" y="594.603"/>
			<point x="120.322" y="611.506" type="curve" smooth="yes"/>
			<point x="120.322" y="682.101"/>
			<point x="191.911" y="750.708"/>
			<point x="276.427" y="750.708" type="curve" smooth="yes"/>
			<point x="336.085" y="750.708"/>
			<point x="389.777" y="713.919"/>
			<point x="389.777" y="631.392" type="curve" smooth="yes"/>
			<point x="389.777" y="502.133"/>
			<point x="278.415" y="392.76"/>
			<point x="163.077" y="392.76" type="curve" smooth="yes"/>
			<point x="35.806" y="392.76"/>
			<point x="-14.903" y="487.218"/>
			<point x="-14.903" y="575.711" type="curve" smooth="yes"/>
			<point x="-14.903" y="767.611"/>
			<point x="184.951" y="966.471"/>
			<point x="469.321" y="966.471" type="curve" smooth="yes"/>
			<point x="612.5" y="966.471"/>
			<point x="772.583" y="922.722"/>
			<point x="772.583" y="855.109" type="curve" smooth="yes"/>
			<point x="772.583" y="830.252"/>
			<point x="739.771" y="815.337"/>
			<point x="714.913" y="796.446" type="curve" smooth="yes"/>
			<point x="629.403" y="731.816"/>
			<point x="532.956" y="624.432"/>
			<point x="458.384" y="505.116" type="curve" smooth="yes"/>
			<point x="385.8" y="388.783"/>
			<point x="298.301" y="239.638"/>
			<point x="298.301" y="114.356" type="curve" smooth="yes"/>
			<point x="298.301" y="50.721"/>
			<point x="321.17" y="-7.943"/>
			<point x="396.737" y="-7.943" type="curve" smooth="yes"/>
			<point x="509.093" y="-7.943"/>
			<point x="653.267" y="171.031"/>
			<point x="737.782" y="301.284" type="curve"/>
			<point x="737.782" y="301.284"/>
			<point x="739.771" y="301.284"/>
			<point x="739.771" y="301.284" type="curve"/>
			<point x="723.862" y="266.484"/>
			<point x="706.959" y="227.706"/>
			<point x="692.044" y="190.917" type="curve" smooth="yes"/>
			<point x="661.221" y="111.373"/>
			<point x="635.369" y="22.88"/>
			<point x="635.369" y="-52.687" type="curve" smooth="yes"/>
			<point x="635.369" y="-137.202"/>
			<point x="671.164" y="-210.78"/>
			<point x="755.679" y="-210.78" type="curve" smooth="yes"/>
			<point x="840.195" y="-210.78"/>
			<point x="864.058" y="-150.128"/>
			<point x="864.058" y="-121.293" type="curve" smooth="yes"/>
			<point x="864.058" y="-110.356"/>
			<point x="857.098" y="-83.51"/>
			<point x="833.235" y="-74.561" type="curve"/>
			<point x="830.252" y="-74.561"/>
			<point x="828.263" y="-76.55"/>
			<point x="830.252" y="-79.533" type="curve"/>
			<point x="849.144" y="-88.481"/>
			<point x="853.121" y="-105.384"/>
			<point x="853.121" y="-114.333" type="curve" smooth="yes"/>
			<point x="853.121" y="-140.185"/>
			<point x="833.235" y="-202.826"/>
			<point x="755.679" y="-202.826" type="curve" smooth="yes"/>
			<point x="687.073" y="-202.826"/>
			<point x="654.261" y="-136.208"/>
		</contour>
	</outline>
</glyph>
<glyph name="V" format="2">
	<advance width="1013"/>
	<unicode hex="0056"/>
	<outline>
		<contour>
			<point x="881" y="868" type="curve"/>
			<point x="877" y="850" type="line"/>
			<point x="889" y="857"/>
			<point x="906" y="864"/>
			<point x="916" y="864" type="curve" smooth="yes"/>
			<point x="1004" y="864"/>
			<point x="1025" y="750"/>
			<point x="1025" y="683" type="curve" smooth="yes"/>
			<point x="1025" y="458"/>
			<point x="841" y="174"/>
			<point x="633" y="59" type="curve" smooth="yes"/>
			<point x="612" y="47"/>
			<point x="580" y="30"/>
			<point x="548" y="14" type="curve"/>
			<point x="655" y="138"/>
			<point x="741" y="359"/>
			<point x="741" y="552" type="curve" smooth="yes"/>
			<point x="741" y="778"/>
			<point x="636" y="946"/>
			<point x="412" y="946" type="curve" smooth="yes"/>
			<point x="172" y="946"/>
			<point x="-38" y="748"/>
			<point x="-38" y="521" type="curve" smooth="yes"/>
			<point x="-38" y="360"/>
			<point x="66" y="240"/>
			<point x="205" y="240" type="curve" smooth="yes"/>
			<point x="358" y="240"/>
			<point x="502" y="380"/>
			<point x="502" y="530" type="curve" smooth="yes"/>
			<point x="502" y="631"/>
			<point x="438" y="703"/>
			<point x="345" y="703" type="curve" smooth="yes"/>
			<point x="250" y="703"/>
			<point x="144" y="622"/>
			<point x="144" y="522" type="curve" smooth="yes"/>
			<point x="144" y="489"/>
			<point x="149" y="457"/>
			<point x="184" y="421" type="curve"/>
			<point x="187" y="419"/>
			<point x="190" y="421"/>
			<point x="190" y="425" type="curve"/>
			<point x="166" y="448"/>
			<point x="162" y="480"/>
			<point x="162" y="514" type="curve" smooth="yes"/>
			<point x="162" y="610"/>
			<point x="246" y="694"/>
			<point x="342" y="694" type="curve" smooth="yes"/>
			<point x="426" y="694"/>
			<point x="480" y="631"/>
			<point x="480" y="532" type="curve" smooth="yes"/>
			<point x="480" y="380"/>
			<point x="353" y="250"/>
			<point x="206" y="250" type="curve" smooth="yes"/>
			<point x="72" y="250"/>
			<point x="-18" y="353"/>
			<point x="-18" y="507" type="curve" smooth="yes"/>
			<point x="-18" y="740"/>
			<point x="183" y="937"/>
			<point x="417" y="937" type="curve" smooth="yes"/>
			<point x="628" y="937"/>
			<point x="718" y="780"/>
			<point x="718" y="560" type="curve" smooth="yes"/>
			<point x="718" y="352"/>
			<point x="636" y="121"/>
			<point x="526" y="3" type="curve"/>
			<point x="500" y="-8"/>
			<point x="435" y="-37"/>
			<point x="435" y="-57" type="curve" smooth="yes"/>
			<point x="435" y="-64"/>
			<point x="439" y="-67"/>
			<point x="447" y="-67" type="curve" smooth="yes"/>
			<point x="476" y="-67"/>
			<point x="517" y="-24"/>
			<point x="534" y="-3" type="curve"/>
			<point x="569" y="15"/>
			<point x="609" y="34"/>
			<point x="638" y="51" type="curve" smooth="yes"/>
			<point x="846" y="172"/>
			<point x="1044" y="432"/>
			<point x="1044" y="665" type="curve" smooth="yes"/>
			<point x="1044" y="744"/>
			<point x="1013" y="874"/>
			<point x="912" y="874" type="curve" smooth="yes"/>
			<point x="902" y="874"/>
			<point x="891" y="872"/>
		</contour>
		<contour>
			<point x="461" y="-55" type="curve" smooth="yes"/>
			<point x="458" y="-55"/>
			<point x="457" y="-53"/>
			<point x="457" y="-50" type="curve" smooth="yes"/>
			<point x="457" y="-38"/>
			<point x="501" y="-18"/>
			<point x="514" y="-11" type="curve"/>
			<point x="502" y="-25"/>
			<point x="473" y="-55"/>
		</contour>
	</outline>
</glyph>
<glyph name="W" format="2">
	<advance width="1332"/>
	<unicode hex="0057"/>
	<outline>
		<contour>
			<point x="909" y="8" type="curve"/>
			<point x="955" y="88"/>
			<point x="966" y="188"/>
			<point x="966" y="292" type="curve" smooth="yes"/>
			<point x="966" y="420"/>
			<point x="938" y="549"/>
			<point x="938" y="653" type="curve" smooth="yes"/>
			<point x="938" y="771"/>
			<point x="988" y="856"/>
			<point x="1057" y="856" type="curve" smooth="yes"/>
			<point x="1106" y="856"/>
			<point x="1137" y="814"/>
			<point x="1137" y="747" type="curve" smooth="yes"/>
			<point x="1137" y="483"/>
			<point x="756" y="126"/>
			<point x="512" y="14" type="curve"/>
			<point x="646" y="159"/>
			<point x="743" y="371"/>
			<point x="743" y="594" type="curve" smooth="yes"/>
			<point x="743" y="798"/>
			<point x="622" y="946"/>
			<point x="412" y="946" type="curve" smooth="yes"/>
			<point x="172" y="946"/>
			<point x="-38" y="748"/>
			<point x="-38" y="521" type="curve" smooth="yes"/>
			<point x="-38" y="360"/>
			<point x="66" y="240"/>
			<point x="205" y="240" type="curve" smooth="yes"/>
			<point x="358" y="240"/>
			<point x="502" y="380"/>
			<point x="502" y="530" type="curve" smooth="yes"/>
			<point x="502" y="631"/>
			<point x="438" y="703"/>
			<point x="345" y="703" type="curve" smooth="yes"/>
			<point x="250" y="703"/>
			<point x="144" y="622"/>
			<point x="144" y="522" type="curve" smooth="yes"/>
			<point x="144" y="489"/>
			<point x="147" y="461"/>
			<point x="182" y="424" type="curve"/>
			<point x="186" y="422"/>
			<point x="189" y="424"/>
			<point x="189" y="429" type="curve"/>
			<point x="165" y="452"/>
			<point x="162" y="480"/>
			<point x="162" y="514" type="curve" smooth="yes"/>
			<point x="162" y="610"/>
			<point x="246" y="694"/>
			<point x="342" y="694" type="curve" smooth="yes"/>
			<point x="426" y="694"/>
			<point x="480" y="631"/>
			<point x="480" y="532" type="curve" smooth="yes"/>
			<point x="480" y="380"/>
			<point x="353" y="250"/>
			<point x="206" y="250" type="curve" smooth="yes"/>
			<point x="72" y="250"/>
			<point x="-18" y="353"/>
			<point x="-18" y="507" type="curve" smooth="yes"/>
			<point x="-18" y="740"/>
			<point x="183" y="937"/>
			<point x="417" y="937" type="curve" smooth="yes"/>
			<point x="613" y="937"/>
			<point x="720" y="801"/>
			<point x="720" y="606" type="curve" smooth="yes"/>
			<point x="720" y="379"/>
			<point x="620" y="145"/>
			<point x="482" y="-1" type="curve"/>
			<point x="475" y="-5"/>
			<point x="462" y="-11"/>
			<point x="448" y="-17" type="curve" smooth="yes"/>
			<point x="415" y="-32"/>
			<point x="375" y="-49"/>
			<point x="375" y="-63" type="curve" smooth="yes"/>
			<point x="375" y="-70"/>
			<point x="379" y="-73"/>
			<point x="389" y="-73" type="curve" smooth="yes"/>
			<point x="427" y="-73"/>
			<point x="468" y="-35"/>
			<point x="491" y="-8" type="curve"/>
			<point x="742" y="105"/>
			<point x="1148" y="462"/>
			<point x="1148" y="739" type="curve" smooth="yes"/>
			<point x="1148" y="816"/>
			<point x="1112" y="866"/>
			<point x="1056" y="866" type="curve" smooth="yes"/>
			<point x="976" y="866"/>
			<point x="917" y="768"/>
			<point x="917" y="635" type="curve" smooth="yes"/>
			<point x="917" y="523"/>
			<point x="945" y="380"/>
			<point x="945" y="237" type="curve" smooth="yes"/>
			<point x="945" y="145"/>
			<point x="925" y="51"/>
			<point x="890" y="-4" type="curve"/>
			<point x="884" y="-8"/>
			<point x="873" y="-13"/>
			<point x="861" y="-19" type="curve" smooth="yes"/>
			<point x="831" y="-34"/>
			<point x="794" y="-50"/>
			<point x="794" y="-63" type="curve" smooth="yes"/>
			<point x="794" y="-70"/>
			<point x="798" y="-73"/>
			<point x="808" y="-73" type="curve" smooth="yes"/>
			<point x="846" y="-73"/>
			<point x="878" y="-41"/>
			<point x="898" y="-11" type="curve"/>
			<point x="1064" y="93"/>
			<point x="1196" y="331"/>
			<point x="1273" y="459" type="curve" smooth="yes"/>
			<point x="1365" y="612"/>
			<point x="1522" y="878"/>
			<point x="1730" y="878" type="curve" smooth="yes"/>
			<point x="1808" y="878"/>
			<point x="1857" y="827"/>
			<point x="1857" y="767" type="curve" smooth="yes"/>
			<point x="1857" y="749"/>
			<point x="1852" y="729"/>
			<point x="1842" y="708" type="curve"/>
			<point x="1842" y="704"/>
			<point x="1844" y="703"/>
			<point x="1847" y="705" type="curve"/>
			<point x="1862" y="730"/>
			<point x="1868" y="753"/>
			<point x="1868" y="773" type="curve" smooth="yes"/>
			<point x="1868" y="840"/>
			<point x="1803" y="887"/>
			<point x="1725" y="887" type="curve" smooth="yes"/>
			<point x="1491" y="887"/>
			<point x="1350" y="627"/>
			<point x="1242" y="443" type="curve" smooth="yes"/>
			<point x="1174" y="324"/>
			<point x="1062" y="106"/>
		</contour>
		<contour>
			<point x="403" y="-61" type="curve" smooth="yes"/>
			<point x="400" y="-61"/>
			<point x="397" y="-61"/>
			<point x="397" y="-58" type="curve" smooth="yes"/>
			<point x="397" y="-47"/>
			<point x="452" y="-26"/>
			<point x="469" y="-18" type="curve"/>
			<point x="454" y="-34"/>
			<point x="423" y="-61"/>
		</contour>
		<contour>
			<point x="822" y="-61" type="curve" smooth="yes"/>
			<point x="819" y="-61"/>
			<point x="816" y="-61"/>
			<point x="816" y="-58" type="curve" smooth="yes"/>
			<point x="816" y="-49"/>
			<point x="862" y="-30"/>
			<point x="880" y="-21" type="curve"/>
			<point x="865" y="-38"/>
			<point x="843" y="-61"/>
		</contour>
	</outline>
</glyph>
<glyph name="X" format="2">
	<advance width="935"/>
	<unicode hex="0058"/>
	<outline>
		<contour>
			<point x="673" y="393" type="curve" smooth="yes"/>
			<point x="670" y="386"/>
			<point x="665" y="382"/>
			<point x="657" y="382" type="curve" smooth="yes"/>
			<point x="529" y="382" type="line"/>
			<point x="529" y="374" type="line"/>
			<point x="655" y="374" type="line" smooth="yes"/>
			<point x="662" y="374"/>
			<point x="663" y="370"/>
			<point x="661" y="365" type="curve" smooth="yes"/>
			<point x="576" y="165"/>
			<point x="408" y="-38"/>
			<point x="190" y="-38" type="curve" smooth="yes"/>
			<point x="122" y="-38"/>
			<point x="32" y="-2"/>
			<point x="32" y="80" type="curve" smooth="yes"/>
			<point x="32" y="99"/>
			<point x="39" y="123"/>
			<point x="55" y="137" type="curve"/>
			<point x="55" y="140"/>
			<point x="53" y="143"/>
			<point x="50" y="142" type="curve"/>
			<point x="27" y="125"/>
			<point x="18" y="99"/>
			<point x="18" y="77" type="curve" smooth="yes"/>
			<point x="18" y="-10"/>
			<point x="122" y="-45"/>
			<point x="192" y="-45" type="curve" smooth="yes"/>
			<point x="399" y="-45"/>
			<point x="558" y="114"/>
			<point x="651" y="286" type="curve"/>
			<point x="642" y="244"/>
			<point x="638" y="202"/>
			<point x="638" y="160" type="curve" smooth="yes"/>
			<point x="638" y="-65"/>
			<point x="749" y="-224"/>
			<point x="907" y="-224" type="curve" smooth="yes"/>
			<point x="974" y="-224"/>
			<point x="1059" y="-191"/>
			<point x="1056" y="-135" type="curve"/>
			<point x="1054" y="-132"/>
			<point x="1050" y="-132"/>
			<point x="1047" y="-135" type="curve"/>
			<point x="1048" y="-138"/>
			<point x="1048" y="-140"/>
			<point x="1048" y="-142" type="curve" smooth="yes"/>
			<point x="1048" y="-180"/>
			<point x="981" y="-217"/>
			<point x="910" y="-217" type="curve" smooth="yes"/>
			<point x="763" y="-217"/>
			<point x="660" y="-63"/>
			<point x="660" y="154" type="curve" smooth="yes"/>
			<point x="660" y="226"/>
			<point x="672" y="297"/>
			<point x="693" y="363" type="curve" smooth="yes"/>
			<point x="695" y="370"/>
			<point x="700" y="374"/>
			<point x="708" y="374" type="curve" smooth="yes"/>
			<point x="859" y="374" type="line"/>
			<point x="859" y="382" type="line"/>
			<point x="709" y="382" type="line" smooth="yes"/>
			<point x="701" y="382"/>
			<point x="700" y="385"/>
			<point x="702" y="391" type="curve" smooth="yes"/>
			<point x="791" y="641"/>
			<point x="1014" y="908"/>
			<point x="1297" y="908" type="curve" smooth="yes"/>
			<point x="1376" y="908"/>
			<point x="1460" y="871"/>
			<point x="1461" y="788" type="curve" smooth="yes"/>
			<point x="1462" y="751"/>
			<point x="1444" y="704"/>
			<point x="1404" y="693" type="curve"/>
			<point x="1402" y="690"/>
			<point x="1403" y="687"/>
			<point x="1406" y="686" type="curve"/>
			<point x="1451" y="698"/>
			<point x="1478" y="749"/>
			<point x="1477" y="787" type="curve" smooth="yes"/>
			<point x="1476" y="879"/>
			<point x="1375" y="915"/>
			<point x="1297" y="915" type="curve" smooth="yes"/>
			<point x="1047" y="915"/>
			<point x="851" y="733"/>
			<point x="740" y="528" type="curve"/>
			<point x="746" y="557"/>
			<point x="749" y="586"/>
			<point x="748" y="616" type="curve" smooth="yes"/>
			<point x="746" y="789"/>
			<point x="654" y="935"/>
			<point x="451" y="935" type="curve" smooth="yes"/>
			<point x="195" y="935"/>
			<point x="-25" y="728"/>
			<point x="-25" y="477" type="curve" smooth="yes"/>
			<point x="-25" y="338"/>
			<point x="63" y="237"/>
			<point x="185" y="237" type="curve" smooth="yes"/>
			<point x="334" y="237"/>
			<point x="476" y="372"/>
			<point x="476" y="515" type="curve" smooth="yes"/>
			<point x="476" y="604"/>
			<point x="417" y="667"/>
			<point x="332" y="667" type="curve" smooth="yes"/>
			<point x="242" y="667"/>
			<point x="154" y="582"/>
			<point x="154" y="495" type="curve" smooth="yes"/>
			<point x="154" y="474"/>
			<point x="160" y="457"/>
			<point x="174" y="436" type="curve"/>
			<point x="179" y="432"/>
			<point x="184" y="434"/>
			<point x="183" y="440" type="curve"/>
			<point x="174" y="454"/>
			<point x="168" y="471"/>
			<point x="168" y="490" type="curve" smooth="yes"/>
			<point x="168" y="577"/>
			<point x="245" y="659"/>
			<point x="328" y="659" type="curve" smooth="yes"/>
			<point x="406" y="659"/>
			<point x="458" y="603"/>
			<point x="458" y="518" type="curve" smooth="yes"/>
			<point x="458" y="374"/>
			<point x="329" y="246"/>
			<point x="185" y="246" type="curve" smooth="yes"/>
			<point x="68" y="246"/>
			<point x="-12" y="334"/>
			<point x="-12" y="464" type="curve" smooth="yes"/>
			<point x="-12" y="712"/>
			<point x="200" y="925"/>
			<point x="441" y="925" type="curve" smooth="yes"/>
			<point x="619" y="925"/>
			<point x="721" y="800"/>
			<point x="724" y="639" type="curve" smooth="yes"/>
			<point x="725" y="558"/>
			<point x="703" y="467"/>
		</contour>
	</outline>
</glyph>
<glyph name="Y" format="2">
	<advance width="895"/>
	<unicode hex="0059"/>
	<anchor x="1010" y="971" name="top"/>
	<outline>
		<contour>
			<point x="241.626" y="36.801" type="curve"/>
			<point x="222.735" y="45.749"/>
			<point x="200.86" y="49.726"/>
			<point x="178.985" y="49.726" type="curve" smooth="yes"/>
			<point x="70.607" y="49.726"/>
			<point x="-22.858" y="-39.761"/>
			<point x="-22.858" y="-163.054" type="curve" smooth="yes"/>
			<point x="-22.858" y="-282.37"/>
			<point x="99.441" y="-375.834"/>
			<point x="230.689" y="-375.834" type="curve" smooth="yes"/>
			<point x="409.663" y="-375.834"/>
			<point x="547.871" y="-240.609"/>
			<point x="627.415" y="-83.51" type="curve" smooth="yes"/>
			<point x="702.982" y="69.612"/>
			<point x="736.788" y="256.541"/>
			<point x="812.355" y="433.526" type="curve" smooth="yes"/>
			<point x="858.092" y="538.922"/>
			<point x="918.745" y="640.341"/>
			<point x="1003.26" y="733.805" type="curve" smooth="yes"/>
			<point x="1107.662" y="849.144"/>
			<point x="1211.069" y="930.676"/>
			<point x="1326.408" y="930.676" type="curve" smooth="yes"/>
			<point x="1358.225" y="930.676"/>
			<point x="1418.878" y="912.779"/>
			<point x="1426.832" y="874.001" type="curve"/>
			<point x="1430.809" y="871.018"/>
			<point x="1433.792" y="873.007"/>
			<point x="1434.786" y="878.973" type="curve"/>
			<point x="1426.832" y="922.722"/>
			<point x="1362.202" y="938.631"/>
			<point x="1321.436" y="938.631" type="curve" smooth="yes"/>
			<point x="1196.154" y="938.631"/>
			<point x="1085.787" y="856.104"/>
			<point x="992.323" y="747.725" type="curve" smooth="yes"/>
			<point x="909.796" y="652.272"/>
			<point x="842.184" y="537.928"/>
			<point x="794.457" y="434.521" type="curve" smooth="yes"/>
			<point x="709.942" y="256.541"/>
			<point x="533.951" y="53.704"/>
			<point x="425.572" y="53.704" type="curve" smooth="yes"/>
			<point x="361.937" y="53.704"/>
			<point x="339.068" y="98.447"/>
			<point x="339.068" y="149.156" type="curve" smooth="yes"/>
			<point x="339.068" y="325.148"/>
			<point x="575.711" y="689.061"/>
			<point x="720.879" y="789.486" type="curve" smooth="yes"/>
			<point x="750.708" y="810.366"/>
			<point x="787.497" y="826.275"/>
			<point x="787.497" y="855.109" type="curve" smooth="yes"/>
			<point x="787.497" y="932.665"/>
			<point x="606.534" y="975.42"/>
			<point x="468.327" y="975.42" type="curve" smooth="yes"/>
			<point x="234.666" y="975.42"/>
			<point x="-31.806" y="834.229"/>
			<point x="-31.806" y="593.609" type="curve" smooth="yes"/>
			<point x="-31.806" y="495.173"/>
			<point x="25.863" y="386.794"/>
			<point x="153.134" y="384.806" type="curve"/>
			<point x="281.398" y="384.806"/>
			<point x="406.68" y="497.161"/>
			<point x="406.68" y="630.398" type="curve" smooth="yes"/>
			<point x="406.68" y="715.907"/>
			<point x="345.034" y="759.657"/>
			<point x="276.427" y="759.657" type="curve" smooth="yes"/>
			<point x="188.928" y="759.657"/>
			<point x="105.407" y="687.073"/>
			<point x="105.407" y="614.489" type="curve" smooth="yes"/>
			<point x="105.407" y="595.597"/>
			<point x="113.362" y="579.688"/>
			<point x="123.305" y="561.791" type="curve"/>
			<point x="126.288" y="559.802"/>
			<point x="130.265" y="560.797"/>
			<point x="130.265" y="564.774" type="curve"/>
			<point x="123.305" y="580.683"/>
			<point x="119.327" y="596.591"/>
			<point x="119.327" y="611.506" type="curve" smooth="yes"/>
			<point x="119.327" y="682.101"/>
			<point x="190.917" y="750.708"/>
			<point x="275.433" y="750.708" type="curve" smooth="yes"/>
			<point x="335.091" y="750.708"/>
			<point x="388.783" y="713.919"/>
			<point x="388.783" y="631.392" type="curve" smooth="yes"/>
			<point x="388.783" y="503.127"/>
			<point x="276.427" y="396.737"/>
			<point x="162.082" y="392.76" type="curve"/>
			<point x="35.806" y="393.754"/>
			<point x="-16.892" y="491.196"/>
			<point x="-16.892" y="581.677" type="curve" smooth="yes"/>
			<point x="-16.892" y="770.594"/>
			<point x="182.963" y="966.471"/>
			<point x="469.321" y="966.471" type="curve" smooth="yes"/>
			<point x="612.5" y="966.471"/>
			<point x="772.583" y="922.722"/>
			<point x="772.583" y="855.109" type="curve" smooth="yes"/>
			<point x="772.583" y="830.252"/>
			<point x="739.771" y="815.337"/>
			<point x="714.913" y="796.446" type="curve" smooth="yes"/>
			<point x="562.785" y="679.118"/>
			<point x="323.159" y="362.931"/>
			<point x="323.159" y="165.065" type="curve" smooth="yes"/>
			<point x="323.159" y="101.43"/>
			<point x="346.028" y="42.766"/>
			<point x="420.6" y="42.766" type="curve" smooth="yes"/>
			<point x="525.996" y="42.766"/>
			<point x="690.056" y="217.763"/>
			<point x="787.497" y="402.703" type="curve"/>
			<point x="789.486" y="402.703" type="line"/>
			<point x="716.902" y="229.695"/>
			<point x="668.181" y="49.726"/>
			<point x="593.609" y="-94.447" type="curve" smooth="yes"/>
			<point x="516.053" y="-240.609"/>
			<point x="392.76" y="-365.891"/>
			<point x="226.712" y="-365.891" type="curve" smooth="yes"/>
			<point x="99.441" y="-365.891"/>
			<point x="-3.966" y="-276.404"/>
			<point x="-3.966" y="-165.042" type="curve" smooth="yes"/>
			<point x="-3.966" y="-49.704"/>
			<point x="76.573" y="42.766"/>
			<point x="178.985" y="42.766" type="curve" smooth="yes"/>
			<point x="198.871" y="42.766"/>
			<point x="220.746" y="37.795"/>
			<point x="238.643" y="27.852" type="curve"/>
			<point x="243.615" y="27.852"/>
			<point x="245.604" y="32.823"/>
		</contour>
	</outline>
</glyph>
<glyph name="Z" format="2">
	<advance width="579"/>
	<unicode hex="005A"/>
	<anchor x="762" y="998" name="top"/>
	<outline>
		<contour>
			<point x="382.817" y="655.255" type="curve" smooth="yes"/>
			<point x="271.455" y="655.255"/>
			<point x="166.06" y="562.785"/>
			<point x="166.06" y="464.35" type="curve" smooth="yes"/>
			<point x="166.06" y="429.549"/>
			<point x="176.997" y="391.766"/>
			<point x="213.786" y="377.845" type="curve"/>
			<point x="219.752" y="375.857"/>
			<point x="221.74" y="379.834"/>
			<point x="220.746" y="384.806" type="curve"/>
			<point x="191.911" y="392.76"/>
			<point x="180.974" y="423.583"/>
			<point x="180.974" y="451.424" type="curve" smooth="yes"/>
			<point x="180.974" y="556.819"/>
			<point x="273.444" y="646.306"/>
			<point x="382.817" y="646.306" type="curve" smooth="yes"/>
			<point x="475.287" y="646.306"/>
			<point x="524.008" y="577.7"/>
			<point x="524.008" y="487.218" type="curve" smooth="yes"/>
			<point x="524.008" y="327.136"/>
			<point x="379.834" y="186.94"/>
			<point x="220.746" y="186.94" type="curve" smooth="yes"/>
			<point x="62.652" y="186.94"/>
			<point x="3.989" y="313.216"/>
			<point x="3.989" y="427.56" type="curve" smooth="yes"/>
			<point x="3.989" y="688.067"/>
			<point x="261.512" y="892.893"/>
			<point x="530.968" y="892.893" type="curve" smooth="yes"/>
			<point x="652.272" y="892.893"/>
			<point x="769.6" y="860.081"/>
			<point x="890.904" y="860.081" type="curve" smooth="yes"/>
			<point x="983.374" y="860.081"/>
			<point x="1037.066" y="884.938"/>
			<point x="1037.066" y="923.716" type="curve" smooth="yes"/>
			<point x="1037.066" y="946.585"/>
			<point x="1021.158" y="957.522"/>
			<point x="989.34" y="957.522" type="curve" smooth="yes"/>
			<point x="828.263" y="957.522"/>
			<point x="570.74" y="631.392"/>
			<point x="474.293" y="510.087" type="curve" smooth="yes"/>
			<point x="339.068" y="342.051"/>
			<point x="160.094" y="125.293"/>
			<point x="-3.966" y="45.749" type="curve"/>
			<point x="-36.778" y="54.698"/>
			<point x="-78.538" y="65.635"/>
			<point x="-123.282" y="65.635" type="curve" smooth="yes"/>
			<point x="-149.134" y="65.635"/>
			<point x="-161.065" y="56.687"/>
			<point x="-161.065" y="46.744" type="curve" smooth="yes"/>
			<point x="-161.065" y="34.812"/>
			<point x="-145.156" y="22.88"/>
			<point x="-114.333" y="22.88" type="curve" smooth="yes"/>
			<point x="-76.55" y="22.88"/>
			<point x="-41.749" y="25.863"/>
			<point x="-9.932" y="32.823" type="curve"/>
			<point x="203.843" y="-42.744"/>
			<point x="371.88" y="-238.621"/>
			<point x="612.5" y="-238.621" type="curve" smooth="yes"/>
			<point x="769.6" y="-238.621"/>
			<point x="866.047" y="-152.117"/>
			<point x="866.047" y="-81.521" type="curve" smooth="yes"/>
			<point x="866.047" y="-73.567"/>
			<point x="865.052" y="-65.612"/>
			<point x="862.07" y="-57.658" type="curve"/>
			<point x="858.092" y="-54.675"/>
			<point x="855.109" y="-56.664"/>
			<point x="854.115" y="-61.635" type="curve"/>
			<point x="856.104" y="-67.601"/>
			<point x="857.098" y="-73.567"/>
			<point x="857.098" y="-78.538" type="curve" smooth="yes"/>
			<point x="857.098" y="-144.162"/>
			<point x="742.754" y="-218.735"/>
			<point x="588.637" y="-218.735" type="curve" smooth="yes"/>
			<point x="350.999" y="-218.735"/>
			<point x="217.763" y="-34.789"/>
			<point x="14.926" y="40.778" type="curve"/>
			<point x="169.042" y="118.333"/>
			<point x="326.142" y="309.239"/>
			<point x="470.315" y="490.201" type="curve" smooth="yes"/>
			<point x="552.842" y="594.603"/>
			<point x="835.223" y="940.619"/>
			<point x="974.425" y="940.619" type="curve" smooth="yes"/>
			<point x="997.294" y="940.619"/>
			<point x="1011.215" y="931.671"/>
			<point x="1011.215" y="916.756" type="curve" smooth="yes"/>
			<point x="1011.215" y="887.921"/>
			<point x="964.482" y="869.03"/>
			<point x="888.916" y="869.03" type="curve" smooth="yes"/>
			<point x="764.628" y="869.03"/>
			<point x="643.324" y="904.824"/>
			<point x="519.036" y="904.824" type="curve" smooth="yes"/>
			<point x="252.564" y="904.824"/>
			<point x="-13.909" y="710.936"/>
			<point x="-13.909" y="446.452" type="curve" smooth="yes"/>
			<point x="-13.909" y="319.182"/>
			<point x="52.709" y="177.991"/>
			<point x="219.752" y="177.991" type="curve" smooth="yes"/>
			<point x="379.834" y="177.991"/>
			<point x="541.905" y="318.187"/>
			<point x="541.905" y="484.236" type="curve" smooth="yes"/>
			<point x="541.905" y="580.683"/>
			<point x="478.27" y="655.255"/>
		</contour>
		<contour>
			<point x="-114.333" y="32.823" type="curve" smooth="yes"/>
			<point x="-132.231" y="32.823"/>
			<point x="-140.185" y="37.795"/>
			<point x="-140.185" y="42.766" type="curve" smooth="yes"/>
			<point x="-140.185" y="47.738"/>
			<point x="-130.242" y="53.704"/>
			<point x="-114.333" y="53.704" type="curve" smooth="yes"/>
			<point x="-89.476" y="53.704"/>
			<point x="-63.624" y="48.732"/>
			<point x="-36.778" y="40.778" type="curve"/>
			<point x="-61.635" y="35.806"/>
			<point x="-87.487" y="32.823"/>
		</contour>
	</outline>
</glyph>
<glyph name="bracketleft" format="2">
	<advance width="405"/>
	<unicode hex="005B"/>
	<outline>
		<contour>
			<point x="427" y="894" type="line"/>
			<point x="-95" y="-293" type="line"/>
			<point x="57" y="-293" type="line"/>
			<point x="61" y="-285" type="line"/>
			<point x="-70" y="-285" type="line"/>
			<point x="446" y="886" type="line"/>
			<point x="576" y="886" type="line"/>
			<point x="580" y="894" type="line"/>
		</contour>
	</outline>
</glyph>
<glyph name="backslash" format="2">
	<advance width="554"/>
	<unicode hex="005C"/>
	<outline>
		<contour>
			<point x="343" y="-120" type="curve"/>
			<point x="358" y="-120" type="line"/>
			<point x="358" y="-120"/>
			<point x="310" y="113"/>
			<point x="267" y="338" type="curve" smooth="yes"/>
			<point x="226" y="556"/>
			<point x="187" y="773"/>
			<point x="187" y="773" type="curve"/>
			<point x="172" y="774" type="line"/>
			<point x="172" y="774"/>
			<point x="218" y="558"/>
			<point x="258" y="338" type="curve"/>
			<point x="301" y="113"/>
			<point x="343" y="-120"/>
		</contour>
	</outline>
</glyph>
<glyph name="bracketright" format="2">
	<advance width="405"/>
	<unicode hex="005D"/>
	<outline>
		<contour>
			<point x="-74" y="-293" type="line"/>
			<point x="449" y="894" type="line"/>
			<point x="297" y="894" type="line"/>
			<point x="293" y="886" type="line"/>
			<point x="423" y="886" type="line"/>
			<point x="-92" y="-285" type="line"/>
			<point x="-222" y="-285" type="line"/>
			<point x="-226" y="-293" type="line"/>
		</contour>
	</outline>
</glyph>
<glyph name="asciicircum" format="2">
	<advance width="602"/>
	<unicode hex="005E"/>
	<outline>
		<contour>
			<point x="76" y="212" type="curve"/>
			<point x="374" y="496" type="line"/>
			<point x="477" y="221" type="line"/>
			<point x="481" y="218"/>
			<point x="485" y="221"/>
			<point x="486" y="226" type="curve"/>
			<point x="392" y="533" type="line"/>
			<point x="71" y="219" type="line"/>
			<point x="71" y="214"/>
			<point x="72" y="211"/>
		</contour>
	</outline>
</glyph>
<glyph name="underscore" format="2">
	<advance width="363"/>
	<unicode hex="005F"/>
	<outline>
		<contour>
			<point x="-51" y="9" type="curve"/>
			<point x="-51" y="0" type="line"/>
			<point x="-51" y="0"/>
			<point x="235" y="0"/>
			<point x="235" y="0" type="curve"/>
			<point x="235" y="9" type="line"/>
			<point x="235" y="9"/>
			<point x="-51" y="9"/>
		</contour>
	</outline>
</glyph>
<glyph name="grave" format="2">
	<advance width="260"/>
	<unicode hex="0060"/>
	<anchor x="165" y="694" name="_top"/>
	<outline>
		<contour>
			<point x="106" y="829" type="curve"/>
			<point x="243" y="689" type="line"/>
			<point x="247" y="694" type="line"/>
			<point x="129" y="848" type="line"/>
			<point x="115" y="869"/>
			<point x="86" y="846"/>
		</contour>
	</outline>
</glyph>
<glyph name="a" format="2">
	<advance width="434"/>
	<unicode hex="0061"/>
	<anchor x="307" y="638" name="top"/>
	<outline>
		<contour>
			<point x="268.07" y="553.997" type="curve" smooth="yes"/>
			<point x="296.862" y="553.997"/>
			<point x="313.739" y="534.141"/>
			<point x="313.739" y="501.378" type="curve" smooth="yes"/>
			<point x="313.739" y="462.659"/>
			<point x="289.912" y="413.019"/>
			<point x="261.121" y="385.221" type="curve"/>
			<point x="259.135" y="382.242"/>
			<point x="260.128" y="378.271"/>
			<point x="263.106" y="376.286" type="curve"/>
			<point x="294.876" y="407.062"/>
			<point x="325.653" y="456.702"/>
			<point x="325.653" y="500.386" type="curve" smooth="yes"/>
			<point x="325.653" y="538.112"/>
			<point x="301.826" y="562.932"/>
			<point x="266.085" y="562.932" type="curve" smooth="yes"/>
			<point x="177.726" y="562.932"/>
			<point x="60.575" y="422.947"/>
			<point x="0.014" y="281.97" type="curve" smooth="yes"/>
			<point x="-26.791" y="218.43"/>
			<point x="-40.69" y="158.862"/>
			<point x="-40.69" y="105.251" type="curve" smooth="yes"/>
			<point x="-40.69" y="40.719"/>
			<point x="-16.863" y="0.014"/>
			<point x="22.849" y="0.014" type="curve" smooth="yes"/>
			<point x="97.309" y="0.014"/>
			<point x="172.762" y="96.316"/>
			<point x="218.43" y="187.654" type="curve"/>
			<point x="218.43" y="194.603" type="line"/>
			<point x="191.625" y="139.999"/>
			<point x="182.69" y="98.302"/>
			<point x="182.69" y="68.518" type="curve" smooth="yes"/>
			<point x="182.69" y="21.856"/>
			<point x="206.517" y="0.014"/>
			<point x="237.294" y="0.014" type="curve" smooth="yes"/>
			<point x="303.811" y="0.014"/>
			<point x="377.278" y="110.215"/>
			<point x="440.818" y="277.998" type="curve"/>
			<point x="440.818" y="281.97"/>
			<point x="438.832" y="284.948"/>
			<point x="433.868" y="281.97" type="curve"/>
			<point x="372.314" y="122.129"/>
			<point x="299.84" y="7.957"/>
			<point x="237.294" y="7.957" type="curve" smooth="yes"/>
			<point x="210.488" y="7.957"/>
			<point x="195.596" y="29.798"/>
			<point x="195.596" y="65.539" type="curve" smooth="yes"/>
			<point x="195.596" y="94.33"/>
			<point x="205.524" y="134.042"/>
			<point x="226.373" y="177.726" type="curve" smooth="yes"/>
			<point x="405.077" y="550.026" type="line"/>
			<point x="380.257" y="550.026" type="line"/>
			<point x="237.294" y="243.25" type="line" smooth="yes"/>
			<point x="185.668" y="131.064"/>
			<point x="103.266" y="9.942"/>
			<point x="24.834" y="9.942" type="curve" smooth="yes"/>
			<point x="-7.928" y="9.942"/>
			<point x="-22.82" y="40.719"/>
			<point x="-22.82" y="92.345" type="curve" smooth="yes"/>
			<point x="-22.82" y="145.956"/>
			<point x="-5.942" y="210.488"/>
			<point x="19.87" y="272.042" type="curve" smooth="yes"/>
			<point x="80.431" y="415.005"/>
			<point x="192.618" y="553.997"/>
		</contour>
	</outline>
</glyph>
<glyph name="b" format="2">
	<advance width="377"/>
	<unicode hex="0062"/>
	<outline>
		<contour>
			<point x="-15" y="0" type="curve" smooth="yes"/>
			<point x="67" y="-3"/>
			<point x="145" y="87"/>
			<point x="201" y="175" type="curve"/>
			<point x="213" y="169"/>
			<point x="228" y="166"/>
			<point x="245" y="166" type="curve" smooth="yes"/>
			<point x="301" y="166"/>
			<point x="350" y="208"/>
			<point x="384" y="278" type="curve"/>
			<point x="384" y="281"/>
			<point x="381" y="283"/>
			<point x="377" y="282" type="curve"/>
			<point x="346" y="217"/>
			<point x="300" y="174"/>
			<point x="247" y="174" type="curve" smooth="yes"/>
			<point x="231" y="174"/>
			<point x="218" y="177"/>
			<point x="207" y="183" type="curve"/>
			<point x="260" y="268"/>
			<point x="328" y="394"/>
			<point x="328" y="498" type="curve" smooth="yes"/>
			<point x="328" y="537"/>
			<point x="317" y="563"/>
			<point x="296" y="563" type="curve" smooth="yes"/>
			<point x="240" y="563"/>
			<point x="150" y="385"/>
			<point x="150" y="276" type="curve" smooth="yes"/>
			<point x="150" y="239"/>
			<point x="160" y="203"/>
			<point x="185" y="184" type="curve"/>
			<point x="119" y="73"/>
			<point x="50" y="7"/>
			<point x="-14" y="9" type="curve" smooth="yes"/>
			<point x="-38" y="10"/>
			<point x="-58" y="39"/>
			<point x="-58" y="81" type="curve" smooth="yes"/>
			<point x="-58" y="102"/>
			<point x="-53" y="126"/>
			<point x="-41" y="152" type="curve" smooth="yes"/>
			<point x="339" y="968" type="line"/>
			<point x="314" y="968" type="line"/>
			<point x="0" y="282" type="line"/>
			<point x="-54" y="163" type="line" smooth="yes"/>
			<point x="-66" y="135"/>
			<point x="-71" y="110"/>
			<point x="-71" y="88" type="curve" smooth="yes"/>
			<point x="-71" y="38"/>
			<point x="-47" y="1"/>
		</contour>
		<contour>
			<point x="160" y="273" type="curve" smooth="yes"/>
			<point x="160" y="377"/>
			<point x="246" y="554"/>
			<point x="296" y="554" type="curve" smooth="yes"/>
			<point x="309" y="554"/>
			<point x="316" y="537"/>
			<point x="316" y="513" type="curve" smooth="yes"/>
			<point x="316" y="422"/>
			<point x="236" y="270"/>
			<point x="189" y="193" type="curve"/>
			<point x="168" y="210"/>
			<point x="160" y="241"/>
		</contour>
	</outline>
</glyph>
<glyph name="c" format="2">
	<advance width="328"/>
	<unicode hex="0063"/>
	<anchor x="292" y="638" name="top"/>
	<outline>
		<contour>
			<point x="260.128" y="562.932" type="curve" smooth="yes"/>
			<point x="173.754" y="562.932"/>
			<point x="56.604" y="428.904"/>
			<point x="0.014" y="281.97" type="curve" smooth="yes"/>
			<point x="-21.827" y="227.366"/>
			<point x="-34.734" y="170.776"/>
			<point x="-34.734" y="118.158" type="curve" smooth="yes"/>
			<point x="-34.734" y="43.698"/>
			<point x="5.971" y="0.014"/>
			<point x="69.51" y="0.014" type="curve" smooth="yes"/>
			<point x="173.754" y="0.014"/>
			<point x="272.042" y="123.122"/>
			<point x="334.588" y="277.998" type="curve"/>
			<point x="334.588" y="281.97"/>
			<point x="331.61" y="282.962"/>
			<point x="327.638" y="281.97" type="curve"/>
			<point x="267.078" y="132.057"/>
			<point x="170.776" y="9.942"/>
			<point x="69.51" y="9.942" type="curve" smooth="yes"/>
			<point x="17.885" y="9.942"/>
			<point x="-16.863" y="47.669"/>
			<point x="-16.863" y="112.201" type="curve" smooth="yes"/>
			<point x="-16.863" y="281.97"/>
			<point x="148.934" y="553.997"/>
			<point x="263.106" y="553.997" type="curve" smooth="yes"/>
			<point x="292.89" y="553.997"/>
			<point x="308.775" y="532.155"/>
			<point x="308.775" y="505.35" type="curve" smooth="yes"/>
			<point x="308.775" y="437.839"/>
			<point x="259.135" y="339.552"/>
			<point x="198.574" y="339.552" type="curve" smooth="yes"/>
			<point x="174.747" y="339.552"/>
			<point x="166.805" y="357.422"/>
			<point x="166.805" y="377.278" type="curve" smooth="yes"/>
			<point x="166.805" y="397.134"/>
			<point x="175.74" y="421.954"/>
			<point x="184.675" y="434.861" type="curve"/>
			<point x="184.675" y="439.825"/>
			<point x="182.69" y="440.818"/>
			<point x="176.733" y="438.832" type="curve"/>
			<point x="162.834" y="422.947"/>
			<point x="153.898" y="398.127"/>
			<point x="153.898" y="376.286" type="curve" smooth="yes"/>
			<point x="153.898" y="352.458"/>
			<point x="165.812" y="331.61"/>
			<point x="198.574" y="331.61" type="curve" smooth="yes"/>
			<point x="262.114" y="331.61"/>
			<point x="324.66" y="426.918"/>
			<point x="324.66" y="493.436" type="curve" smooth="yes"/>
			<point x="324.66" y="528.184"/>
			<point x="302.818" y="562.932"/>
		</contour>
	</outline>
</glyph>
<glyph name="d" format="2">
	<advance width="437"/>
	<unicode hex="0064"/>
	<outline>
		<contour>
			<point x="268" y="554" type="curve" smooth="yes"/>
			<point x="297" y="554"/>
			<point x="314" y="534"/>
			<point x="314" y="501" type="curve" smooth="yes"/>
			<point x="314" y="462"/>
			<point x="290" y="413"/>
			<point x="261" y="385" type="curve"/>
			<point x="259" y="382"/>
			<point x="260" y="379"/>
			<point x="263" y="377" type="curve"/>
			<point x="295" y="406"/>
			<point x="326" y="456"/>
			<point x="326" y="500" type="curve" smooth="yes"/>
			<point x="326" y="538"/>
			<point x="302" y="563"/>
			<point x="266" y="563" type="curve" smooth="yes"/>
			<point x="177" y="563"/>
			<point x="62" y="426"/>
			<point x="0" y="282" type="curve" smooth="yes"/>
			<point x="-26" y="221"/>
			<point x="-42" y="162"/>
			<point x="-42" y="107" type="curve" smooth="yes"/>
			<point x="-42" y="43"/>
			<point x="-17" y="0"/>
			<point x="23" y="0" type="curve" smooth="yes"/>
			<point x="99" y="0"/>
			<point x="174" y="98"/>
			<point x="220" y="190" type="curve"/>
			<point x="217" y="193" type="line"/>
			<point x="191" y="140"/>
			<point x="182" y="99"/>
			<point x="182" y="69" type="curve" smooth="yes"/>
			<point x="182" y="22"/>
			<point x="206" y="0"/>
			<point x="238" y="0" type="curve" smooth="yes"/>
			<point x="305" y="0"/>
			<point x="379" y="111"/>
			<point x="444" y="278" type="curve"/>
			<point x="444" y="284"/>
			<point x="440" y="282"/>
			<point x="437" y="282" type="curve"/>
			<point x="374" y="122"/>
			<point x="301" y="8"/>
			<point x="238" y="8" type="curve" smooth="yes"/>
			<point x="211" y="8"/>
			<point x="196" y="31"/>
			<point x="196" y="66" type="curve" smooth="yes"/>
			<point x="196" y="95"/>
			<point x="206" y="134"/>
			<point x="227" y="177" type="curve" smooth="yes"/>
			<point x="595" y="968" type="line"/>
			<point x="569" y="968" type="line"/>
			<point x="237" y="244" type="line" smooth="yes"/>
			<point x="186" y="132"/>
			<point x="103" y="10"/>
			<point x="25" y="10" type="curve" smooth="yes"/>
			<point x="-7" y="10"/>
			<point x="-23" y="41"/>
			<point x="-23" y="93" type="curve" smooth="yes"/>
			<point x="-23" y="270"/>
			<point x="152" y="554"/>
		</contour>
	</outline>
</glyph>
<glyph name="e" format="2">
	<advance width="323"/>
	<unicode hex="0065"/>
	<anchor x="288" y="638" name="top"/>
	<outline>
		<contour>
			<point x="322.674" y="281.97" type="curve"/>
			<point x="263.106" y="131.064"/>
			<point x="168.79" y="9.942"/>
			<point x="69.51" y="9.942" type="curve" smooth="yes"/>
			<point x="17.885" y="9.942"/>
			<point x="-16.863" y="47.669"/>
			<point x="-16.863" y="112.201" type="curve" smooth="yes"/>
			<point x="-16.863" y="281.97"/>
			<point x="148.934" y="553.997"/>
			<point x="263.106" y="553.997" type="curve" smooth="yes"/>
			<point x="291.898" y="553.997"/>
			<point x="308.775" y="535.134"/>
			<point x="308.775" y="503.364" type="curve" smooth="yes"/>
			<point x="308.775" y="421.954"/>
			<point x="205.524" y="309.768"/>
			<point x="132.057" y="309.768" type="curve" smooth="yes"/>
			<point x="96.316" y="309.768"/>
			<point x="70.503" y="333.595"/>
			<point x="70.503" y="365.365" type="curve" smooth="yes"/>
			<point x="70.503" y="374.3"/>
			<point x="72.489" y="384.228"/>
			<point x="77.453" y="396.142" type="curve"/>
			<point x="73.482" y="397.134" type="line"/>
			<point x="68.518" y="392.17" type="line"/>
			<point x="63.554" y="382.242"/>
			<point x="61.568" y="372.314"/>
			<point x="61.568" y="362.386" type="curve" smooth="yes"/>
			<point x="61.568" y="327.638"/>
			<point x="92.345" y="300.833"/>
			<point x="134.042" y="300.833" type="curve" smooth="yes"/>
			<point x="220.416" y="300.833"/>
			<point x="322.674" y="415.005"/>
			<point x="322.674" y="496.414" type="curve" smooth="yes"/>
			<point x="322.674" y="536.126"/>
			<point x="297.854" y="562.932"/>
			<point x="260.128" y="562.932" type="curve" smooth="yes"/>
			<point x="173.754" y="562.932"/>
			<point x="56.604" y="429.897"/>
			<point x="0.014" y="282.962" type="curve" smooth="yes"/>
			<point x="-21.827" y="228.358"/>
			<point x="-34.734" y="170.776"/>
			<point x="-34.734" y="118.158" type="curve" smooth="yes"/>
			<point x="-34.734" y="43.698"/>
			<point x="5.971" y="0.014"/>
			<point x="69.51" y="0.014" type="curve" smooth="yes"/>
			<point x="171.769" y="0.014"/>
			<point x="267.078" y="122.129"/>
			<point x="329.624" y="277.998" type="curve"/>
			<point x="329.624" y="283.955"/>
			<point x="327.638" y="285.941"/>
		</contour>
	</outline>
</glyph>
<glyph name="f" format="2">
	<advance width="214"/>
	<unicode hex="0066"/>
	<outline>
		<contour>
			<point x="533" y="985" type="curve" smooth="yes"/>
			<point x="575" y="985"/>
			<point x="604" y="948"/>
			<point x="604" y="908" type="curve" smooth="yes"/>
			<point x="604" y="751"/>
			<point x="344" y="589"/>
			<point x="183" y="589" type="curve" smooth="yes"/>
			<point x="56" y="589"/>
			<point x="-73" y="663"/>
			<point x="-73" y="805" type="curve" smooth="yes"/>
			<point x="-73" y="917"/>
			<point x="5" y="1012"/>
			<point x="124" y="1012" type="curve" smooth="yes"/>
			<point x="183" y="1012"/>
			<point x="241" y="974"/>
			<point x="241" y="907" type="curve" smooth="yes"/>
			<point x="241" y="838"/>
			<point x="189" y="787"/>
			<point x="125" y="787" type="curve" smooth="yes"/>
			<point x="112" y="787"/>
			<point x="75" y="787"/>
			<point x="60" y="812" type="curve"/>
			<point x="56" y="814"/>
			<point x="53" y="813"/>
			<point x="51" y="808" type="curve"/>
			<point x="71" y="779"/>
			<point x="111" y="779"/>
			<point x="125" y="779" type="curve" smooth="yes"/>
			<point x="193" y="779"/>
			<point x="253" y="830"/>
			<point x="253" y="905" type="curve" smooth="yes"/>
			<point x="253" y="980"/>
			<point x="189" y="1020"/>
			<point x="124" y="1020" type="curve" smooth="yes"/>
			<point x="0" y="1020"/>
			<point x="-91" y="928"/>
			<point x="-91" y="808" type="curve" smooth="yes"/>
			<point x="-91" y="663"/>
			<point x="55" y="581"/>
			<point x="184" y="581" type="curve" smooth="yes"/>
			<point x="347" y="581"/>
			<point x="617" y="729"/>
			<point x="617" y="900" type="curve" smooth="yes"/>
			<point x="617" y="946"/>
			<point x="586" y="993"/>
			<point x="535" y="993" type="curve" smooth="yes"/>
			<point x="394" y="993"/>
			<point x="243" y="798"/>
			<point x="130" y="566" type="curve" smooth="yes"/>
			<point x="96" y="497" type="line" smooth="yes"/>
			<point x="93" y="490"/>
			<point x="90" y="488"/>
			<point x="83" y="488" type="curve" smooth="yes"/>
			<point x="15" y="488" type="line"/>
			<point x="15" y="480" type="line"/>
			<point x="81" y="480" type="line" smooth="yes"/>
			<point x="86" y="480"/>
			<point x="87" y="478"/>
			<point x="84" y="473" type="curve" smooth="yes"/>
			<point x="53" y="409"/>
			<point x="28" y="345"/>
			<point x="0" y="282" type="curve"/>
			<point x="-35" y="200" type="line" smooth="yes"/>
			<point x="-135" y="-35"/>
			<point x="-297" y="-431"/>
			<point x="-510" y="-431" type="curve" smooth="yes"/>
			<point x="-554" y="-431"/>
			<point x="-593" y="-411"/>
			<point x="-593" y="-362" type="curve" smooth="yes"/>
			<point x="-593" y="-336"/>
			<point x="-577" y="-304"/>
			<point x="-553" y="-301" type="curve"/>
			<point x="-559" y="-296" type="line"/>
			<point x="-583" y="-299"/>
			<point x="-607" y="-331"/>
			<point x="-607" y="-359" type="curve"/>
			<point x="-607" y="-422"/>
			<point x="-550" y="-440"/>
			<point x="-498" y="-440" type="curve" smooth="yes"/>
			<point x="-393" y="-440"/>
			<point x="-306" y="-361"/>
			<point x="-236" y="-258" type="curve" smooth="yes"/>
			<point x="-139" y="-118"/>
			<point x="-68" y="62"/>
			<point x="2" y="236" type="curve" smooth="yes"/>
			<point x="35" y="317"/>
			<point x="67" y="397"/>
			<point x="101" y="471" type="curve"/>
			<point x="103" y="477"/>
			<point x="107" y="480"/>
			<point x="114" y="480" type="curve" smooth="yes"/>
			<point x="252" y="480" type="line"/>
			<point x="252" y="488" type="line"/>
			<point x="116" y="488" type="line" smooth="yes"/>
			<point x="111" y="488"/>
			<point x="110" y="490"/>
			<point x="112" y="495" type="curve" smooth="yes"/>
			<point x="122" y="517"/>
			<point x="133" y="540"/>
			<point x="144" y="562" type="curve" smooth="yes"/>
			<point x="257" y="787"/>
			<point x="399" y="985"/>
		</contour>
	</outline>
</glyph>
<glyph name="h" format="2">
	<advance width="449"/>
	<unicode hex="0068"/>
	<outline>
		<contour>
			<point x="595" y="938" type="curve" smooth="yes"/>
			<point x="595" y="817"/>
			<point x="327" y="653"/>
			<point x="230" y="582" type="curve"/>
			<point x="253" y="646"/>
			<point x="287" y="741"/>
			<point x="334" y="823" type="curve" smooth="yes"/>
			<point x="397" y="935"/>
			<point x="467" y="993"/>
			<point x="533" y="993" type="curve" smooth="yes"/>
			<point x="572" y="993"/>
			<point x="595" y="972"/>
		</contour>
		<contour>
			<point x="311" y="292" type="curve" smooth="yes"/>
			<point x="366" y="367"/>
			<point x="417" y="441"/>
			<point x="417" y="511" type="curve" smooth="yes"/>
			<point x="417" y="554"/>
			<point x="393" y="582"/>
			<point x="358" y="582" type="curve" smooth="yes"/>
			<point x="306" y="582"/>
			<point x="235" y="510"/>
			<point x="168" y="420" type="curve" smooth="yes"/>
			<point x="99" y="328"/>
			<point x="23" y="207"/>
			<point x="-17" y="125" type="curve" smooth="yes"/>
			<point x="-20" y="119"/>
			<point x="-23" y="113"/>
			<point x="-26" y="106" type="curve" smooth="yes"/>
			<point x="-41" y="72"/>
			<point x="-56" y="31"/>
			<point x="-56" y="13" type="curve" smooth="yes"/>
			<point x="-56" y="5"/>
			<point x="-53" y="0"/>
			<point x="-46" y="0" type="curve" smooth="yes"/>
			<point x="-30" y="0"/>
			<point x="6" y="48"/>
			<point x="68" y="187" type="curve" smooth="yes"/>
			<point x="162" y="399" type="line" smooth="yes"/>
			<point x="178" y="436"/>
			<point x="191" y="476"/>
			<point x="204" y="512" type="curve"/>
			<point x="211" y="529"/>
			<point x="217" y="548"/>
			<point x="223" y="566" type="curve"/>
			<point x="333" y="652"/>
			<point x="602" y="779"/>
			<point x="602" y="935" type="curve" smooth="yes"/>
			<point x="602" y="978"/>
			<point x="575" y="1003"/>
			<point x="527" y="1003" type="curve" smooth="yes"/>
			<point x="442" y="1003"/>
			<point x="371" y="936"/>
			<point x="317" y="839" type="curve" smooth="yes"/>
			<point x="267" y="749"/>
			<point x="237" y="642"/>
			<point x="214" y="570" type="curve"/>
			<point x="137" y="508"/>
			<point x="63" y="426"/>
			<point x="0" y="282" type="curve"/>
			<point x="1" y="279"/>
			<point x="3" y="277"/>
			<point x="7" y="278" type="curve"/>
			<point x="66" y="414"/>
			<point x="134" y="493"/>
			<point x="209" y="554" type="curve"/>
			<point x="204" y="538"/>
			<point x="199" y="527"/>
			<point x="194" y="512" type="curve"/>
			<point x="180" y="477"/>
			<point x="167" y="441"/>
			<point x="151" y="408" type="curve"/>
			<point x="131" y="362"/>
			<point x="108" y="316"/>
			<point x="85" y="270" type="curve" smooth="yes"/>
			<point x="73" y="245"/>
			<point x="60" y="219"/>
			<point x="48" y="195" type="curve"/>
			<point x="31" y="157"/>
			<point x="16" y="127"/>
			<point x="4" y="103" type="curve" smooth="yes"/>
			<point x="2" y="100"/>
			<point x="1" y="97"/>
			<point x="0" y="95" type="curve" smooth="yes"/>
			<point x="-35" y="23"/>
			<point x="-41" y="9"/>
			<point x="-46" y="9" type="curve" smooth="yes"/>
			<point x="-56" y="9"/>
			<point x="-31" y="77"/>
			<point x="-11" y="118" type="curve" smooth="yes"/>
			<point x="25" y="194"/>
			<point x="84" y="283"/>
			<point x="131" y="352" type="curve" smooth="yes"/>
			<point x="141" y="367"/>
			<point x="153" y="385"/>
			<point x="165" y="402" type="curve" smooth="yes"/>
			<point x="225" y="487"/>
			<point x="302" y="573"/>
			<point x="358" y="573" type="curve" smooth="yes"/>
			<point x="386" y="573"/>
			<point x="405" y="552"/>
			<point x="405" y="520" type="curve" smooth="yes"/>
			<point x="405" y="464"/>
			<point x="363" y="402"/>
			<point x="315" y="337" type="curve" smooth="yes"/>
			<point x="306" y="325"/>
			<point x="297" y="313"/>
			<point x="288" y="300" type="curve" smooth="yes"/>
			<point x="241" y="234"/>
			<point x="197" y="159"/>
			<point x="197" y="82" type="curve" smooth="yes"/>
			<point x="197" y="37"/>
			<point x="221" y="0"/>
			<point x="251" y="0" type="curve" smooth="yes"/>
			<point x="318" y="0"/>
			<point x="391" y="111"/>
			<point x="456" y="278" type="curve"/>
			<point x="456" y="282"/>
			<point x="454" y="284"/>
			<point x="449" y="282" type="curve"/>
			<point x="387" y="122"/>
			<point x="314" y="8"/>
			<point x="251" y="8" type="curve" smooth="yes"/>
			<point x="226" y="8"/>
			<point x="209" y="35"/>
			<point x="209" y="73" type="curve" smooth="yes"/>
			<point x="209" y="153"/>
			<point x="261" y="225"/>
		</contour>
	</outline>
</glyph>
<glyph name="i" format="2">
	<advance width="179"/>
	<unicode hex="0069"/>
	<outline>
		<contour>
			<point x="0.014" y="281.97" type="line"/>
			<point x="-40.69" y="192.618" type="line" smooth="yes"/>
			<point x="-64.518" y="139.006"/>
			<point x="-74.446" y="99.294"/>
			<point x="-74.446" y="68.518" type="curve" smooth="yes"/>
			<point x="-74.446" y="20.863"/>
			<point x="-50.618" y="0.014"/>
			<point x="-19.842" y="0.014" type="curve" smooth="yes"/>
			<point x="47.669" y="0.014"/>
			<point x="121.136" y="111.208"/>
			<point x="185.668" y="277.998" type="curve"/>
			<point x="185.668" y="281.97"/>
			<point x="182.69" y="283.955"/>
			<point x="178.718" y="281.97" type="curve"/>
			<point x="116.172" y="122.129"/>
			<point x="43.698" y="7.957"/>
			<point x="-19.842" y="7.957" type="curve" smooth="yes"/>
			<point x="-45.654" y="7.957"/>
			<point x="-61.539" y="30.791"/>
			<point x="-61.539" y="65.539" type="curve" smooth="yes"/>
			<point x="-61.539" y="94.33"/>
			<point x="-52.604" y="133.05"/>
			<point x="-30.762" y="177.726" type="curve" smooth="yes"/>
			<point x="148.934" y="550.026" type="line"/>
			<point x="122.129" y="550.026" type="line"/>
		</contour>
		<contour>
			<point x="191.625" y="732.701" type="curve"/>
			<point x="187.654" y="718.802"/>
			<point x="192.618" y="707.881"/>
			<point x="208.502" y="707.881" type="curve" smooth="yes"/>
			<point x="221.409" y="707.881"/>
			<point x="235.308" y="716.816"/>
			<point x="240.272" y="730.715" type="curve" smooth="yes"/>
			<point x="245.236" y="743.622"/>
			<point x="237.294" y="756.528"/>
			<point x="224.387" y="756.528" type="curve" smooth="yes"/>
			<point x="208.502" y="756.528"/>
			<point x="196.589" y="746.6"/>
		</contour>
	</outline>
</glyph>
<glyph name="j" format="2">
	<advance width="215"/>
	<unicode hex="006A"/>
	<outline>
		<contour>
			<point x="271" y="732" type="curve"/>
			<point x="267" y="720"/>
			<point x="272" y="708"/>
			<point x="288" y="708" type="curve" smooth="yes"/>
			<point x="301" y="708"/>
			<point x="315" y="717"/>
			<point x="320" y="731" type="curve" smooth="yes"/>
			<point x="324" y="744"/>
			<point x="317" y="756"/>
			<point x="304" y="756" type="curve" smooth="yes"/>
			<point x="288" y="756"/>
			<point x="276" y="746"/>
		</contour>
		<contour>
			<point x="-362" y="-423" type="curve" smooth="yes"/>
			<point x="-400" y="-423"/>
			<point x="-424" y="-402"/>
			<point x="-424" y="-368" type="curve" smooth="yes"/>
			<point x="-424" y="-246"/>
			<point x="-156" y="-84"/>
			<point x="-58" y="-12" type="curve"/>
			<point x="-82" y="-76"/>
			<point x="-116" y="-171"/>
			<point x="-163" y="-253" type="curve"/>
			<point x="-226" y="-365"/>
			<point x="-296" y="-423"/>
		</contour>
		<contour>
			<point x="-51" y="4" type="curve"/>
			<point x="-162" y="-80"/>
			<point x="-431" y="-211"/>
			<point x="-431" y="-365" type="curve" smooth="yes"/>
			<point x="-431" y="-408"/>
			<point x="-406" y="-430"/>
			<point x="-359" y="-430" type="curve" smooth="yes"/>
			<point x="-281" y="-430"/>
			<point x="-200" y="-369"/>
			<point x="-142" y="-265" type="curve" smooth="yes"/>
			<point x="-94" y="-179"/>
			<point x="-70" y="-81"/>
			<point x="-43" y="0" type="curve"/>
			<point x="52" y="58"/>
			<point x="153" y="135"/>
			<point x="222" y="278" type="curve"/>
			<point x="222" y="282"/>
			<point x="219" y="284"/>
			<point x="215" y="282" type="curve"/>
			<point x="151" y="148"/>
			<point x="55" y="74"/>
			<point x="-37" y="15" type="curve"/>
			<point x="0" y="135"/>
			<point x="64" y="306"/>
			<point x="127" y="422" type="curve" smooth="yes"/>
			<point x="159" y="481"/>
			<point x="187" y="524"/>
			<point x="236" y="561" type="curve"/>
			<point x="200" y="561" type="line"/>
			<point x="164" y="532"/>
			<point x="122" y="459"/>
			<point x="107" y="429" type="curve" smooth="yes"/>
			<point x="40" y="296"/>
			<point x="-2" y="143"/>
		</contour>
		<contour>
			<point x="205" y="553" type="curve"/>
			<point x="200" y="561" type="line"/>
			<point x="105" y="514"/>
			<point x="21" y="330"/>
			<point x="0" y="282" type="curve"/>
			<point x="0" y="278"/>
			<point x="3" y="276"/>
			<point x="7" y="278" type="curve"/>
			<point x="26" y="319"/>
			<point x="111" y="506"/>
		</contour>
	</outline>
</glyph>
<glyph name="k" format="2">
	<advance width="463"/>
	<unicode hex="006B"/>
	<outline>
		<contour>
			<point x="48" y="195" type="curve" smooth="yes"/>
			<point x="27" y="151"/>
			<point x="10" y="117"/>
			<point x="-2" y="91" type="curve" smooth="yes"/>
			<point x="-35" y="23"/>
			<point x="-41" y="9"/>
			<point x="-46" y="9" type="curve" smooth="yes"/>
			<point x="-56" y="9"/>
			<point x="-31" y="77"/>
			<point x="-11" y="118" type="curve" smooth="yes"/>
			<point x="29" y="203"/>
			<point x="99" y="305"/>
			<point x="147" y="376" type="curve" smooth="yes"/>
			<point x="204" y="462"/>
			<point x="301" y="585"/>
			<point x="362" y="585" type="curve" smooth="yes"/>
			<point x="385" y="585"/>
			<point x="414" y="574"/>
			<point x="414" y="512" type="curve" smooth="yes"/>
			<point x="414" y="438"/>
			<point x="352" y="336"/>
			<point x="272" y="336" type="curve" smooth="yes"/>
			<point x="258" y="336"/>
			<point x="238" y="341"/>
			<point x="224" y="368" type="curve"/>
			<point x="223" y="366"/>
			<point x="221" y="359"/>
			<point x="220" y="356" type="curve"/>
			<point x="221" y="353"/>
			<point x="222" y="351"/>
			<point x="223" y="349" type="curve"/>
			<point x="220" y="342"/>
			<point x="217" y="333"/>
			<point x="213" y="328" type="curve"/>
			<point x="176" y="266"/>
			<point x="149" y="213"/>
			<point x="149" y="134" type="curve" smooth="yes"/>
			<point x="149" y="56"/>
			<point x="182" y="0"/>
			<point x="238" y="0" type="curve" smooth="yes"/>
			<point x="323" y="0"/>
			<point x="409" y="144"/>
			<point x="470" y="278" type="curve"/>
			<point x="470" y="284"/>
			<point x="467" y="286"/>
			<point x="463" y="282" type="curve"/>
			<point x="405" y="156"/>
			<point x="319" y="9"/>
			<point x="239" y="9" type="curve" smooth="yes"/>
			<point x="194" y="9"/>
			<point x="171" y="57"/>
			<point x="171" y="123" type="curve" smooth="yes"/>
			<point x="171" y="183"/>
			<point x="190" y="258"/>
			<point x="226" y="330" type="curve" smooth="yes"/>
			<point x="228" y="333"/>
			<point x="230" y="336"/>
			<point x="234" y="336" type="curve" smooth="yes"/>
			<point x="236" y="336"/>
			<point x="238" y="336"/>
			<point x="240" y="334" type="curve" smooth="yes"/>
			<point x="253" y="326"/>
			<point x="270" y="324"/>
			<point x="282" y="324" type="curve" smooth="yes"/>
			<point x="380" y="324"/>
			<point x="436" y="436"/>
			<point x="436" y="501" type="curve" smooth="yes"/>
			<point x="436" y="563"/>
			<point x="403" y="594"/>
			<point x="365" y="594" type="curve" smooth="yes"/>
			<point x="303" y="594"/>
			<point x="216" y="487"/>
			<point x="162" y="412" type="curve" smooth="yes"/>
			<point x="94" y="318"/>
			<point x="18" y="199"/>
			<point x="-21" y="115" type="curve" smooth="yes"/>
			<point x="-37" y="80"/>
			<point x="-56" y="33"/>
			<point x="-56" y="13" type="curve" smooth="yes"/>
			<point x="-56" y="5"/>
			<point x="-53" y="0"/>
			<point x="-46" y="0" type="curve" smooth="yes"/>
			<point x="-30" y="0"/>
			<point x="6" y="48"/>
			<point x="68" y="187" type="curve" smooth="yes"/>
			<point x="162" y="399" type="line" smooth="yes"/>
			<point x="178" y="436"/>
			<point x="189" y="475"/>
			<point x="203" y="510" type="curve" smooth="yes"/>
			<point x="210" y="528"/>
			<point x="216" y="547"/>
			<point x="223" y="566" type="curve"/>
			<point x="333" y="652"/>
			<point x="602" y="779"/>
			<point x="602" y="935" type="curve" smooth="yes"/>
			<point x="602" y="978"/>
			<point x="575" y="1003"/>
			<point x="527" y="1003" type="curve" smooth="yes"/>
			<point x="449" y="1003"/>
			<point x="374" y="941"/>
			<point x="316" y="837" type="curve" smooth="yes"/>
			<point x="269" y="751"/>
			<point x="241" y="651"/>
			<point x="214" y="570" type="curve"/>
			<point x="137" y="508"/>
			<point x="63" y="426"/>
			<point x="0" y="282" type="curve"/>
			<point x="1" y="278"/>
			<point x="4" y="277"/>
			<point x="7" y="278" type="curve"/>
			<point x="66" y="414"/>
			<point x="134" y="493"/>
			<point x="209" y="554" type="curve"/>
			<point x="204" y="538"/>
			<point x="199" y="527"/>
			<point x="194" y="512" type="curve"/>
			<point x="171" y="452"/>
			<point x="146" y="394"/>
			<point x="118" y="337" type="curve" smooth="yes"/>
			<point x="96" y="290"/>
			<point x="71" y="241"/>
		</contour>
		<contour>
			<point x="533" y="993" type="curve" smooth="yes"/>
			<point x="572" y="993"/>
			<point x="595" y="972"/>
			<point x="595" y="938" type="curve" smooth="yes"/>
			<point x="595" y="817"/>
			<point x="327" y="653"/>
			<point x="230" y="582" type="curve"/>
			<point x="253" y="646"/>
			<point x="287" y="741"/>
			<point x="334" y="823" type="curve" smooth="yes"/>
			<point x="397" y="935"/>
			<point x="467" y="993"/>
		</contour>
	</outline>
</glyph>
